<svg xmlns="http://www.w3.org/2000/svg" width="1178" height="517" viewBox="0 0 1178 517">
  <g fill="none" fill-rule="evenodd">
    <path fill="#E52628" d="M264.519 0C262.351.768 258.251 4.445 262.519 5.736 266.365 6.898 268.167 1.627 264.519 0M270.6766 60.2328C268.4646 60.9488 270.2836 64.6578 272.3426 63.5498 274.2096 62.5458 272.5186 59.0768 270.6766 60.2328M326.353 49.9689C324.228 50.3569 324.38 53.6319 326.212 54.2249 330.027 55.4609 330.586 48.7429 326.353 49.9689M553.6458 61.0362C549.9168 61.6002 552.9908 67.8552 555.8158 65.4392 557.5028 63.9952 556.0718 59.9042 553.6458 61.0362M455.2838 132.1416C452.2968 132.5546 452.7438 136.8856 455.3908 137.4096 457.4028 137.8086 459.3028 136.5996 458.7198 134.3276 458.2588 132.5336 456.8078 132.6406 455.2838 132.1416M131.6702 331.8106C128.4872 331.7536 128.9312 335.3436 126.8602 336.6236 125.1762 337.6646 123.7882 336.8246 123.5072 339.2516 123.3142 340.9146 123.4642 342.3386 125.1782 342.8506 125.7242 343.0136 127.4512 343.1826 127.9792 342.8736 128.5512 342.5386 129.1182 341.0186 129.5112 340.5016 130.6062 339.0616 132.0272 338.9376 133.5872 338.1166 136.6082 336.5256 134.9192 331.8716 131.6702 331.8106M193.8761 299.6154C190.7061 299.1534 189.9271 304.2054 193.3801 304.8124 194.8791 305.0754 195.7441 304.3654 196.1761 303.0004 196.7761 301.1034 195.5811 300.2934 193.8761 299.6154M676.9689 26.872C674.7919 27.836 671.6439 29.122 672.0819 32.026 672.3789 33.994 674.2269 35.738 676.1319 36.144 678.3629 36.619 680.3539 34.995 681.0179 32.888 681.8479 30.26 679.3169 27.581 676.9689 26.872M121.8309 361.9051C116.8809 361.6731 117.5919 370.2461 122.7919 369.7151 129.2759 369.0531 126.1499 359.2091 121.8309 361.9051M261.9512 313.3661C259.0292 313.8121 260.0292 319.0041 263.0082 318.1561 264.0562 317.8571 265.0092 316.8201 264.9082 315.6951 264.7672 314.1401 263.1702 313.6971 261.9512 313.3661M660.1549 118.394C656.1129 121.558 654.3579 127.158 658.4979 131.056 660.4069 132.853 661.9539 133.849 664.6599 133.578 666.9849 133.345 669.2949 132.309 670.9079 130.6 671.7369 129.722 672.2319 128.73 672.6979 127.633 673.3309 126.145 673.9929 126.165 675.0989 125.179 676.7469 123.711 676.6909 121.163 674.6409 120.217 673.5669 119.721 672.3339 119.992 671.2479 119.559 670.0739 119.091 669.2239 118.099 667.9929 117.673 665.4509 116.794 662.5619 117.35 660.1549 118.394M802.5256 51.861C802.2536 51.997 800.3426 52.778 800.2836 53.155 800.2046 53.667 801.3206 54.736 801.7746 54.828 803.9116 55.261 803.1816 52.824 802.5256 51.861M825.6294 79.469C824.0324 79.678 824.4054 82.294 825.9794 82.103 827.5724 81.909 827.2114 79.332 825.6294 79.469M914.202 30.5141C913.219 30.7731 911.889 32.6291 913.536 33.1511 915.29 33.7071 914.815 31.1381 914.202 30.5141M907.8364 38.8163C906.1234 39.1013 906.0504 42.5383 908.3974 42.1233 909.4134 41.9433 909.9054 41.4433 909.8224 40.6973 909.7304 39.8683 908.6524 38.8263 907.8364 38.8163M935.4084 43.3385C933.1364 43.4545 933.5514 47.2445 935.6484 46.7415 937.1604 46.3785 937.2554 43.2065 935.4084 43.3385M869.4647 83.0394C865.7597 83.4324 867.4867 90.1204 871.4277 88.1984 874.0277 86.9304 872.4187 82.0834 869.4647 83.0394M385.3807 366.9419C383.6137 367.1559 384.2787 369.9899 385.9557 369.8209 388.0097 369.6139 386.9397 366.7209 385.3807 366.9419M934.8339 51.2755C931.0049 51.7665 932.7339 57.9295 936.1159 56.3315 938.5529 55.1805 937.5329 51.1475 934.8339 51.2755M601.98 252.7215C598.122 254.5335 601.001 261.4315 605.018 259.6625 609.951 257.4895 606.951 250.2675 601.98 252.7215M909.0932 91.7981C905.9962 92.5261 907.6222 97.5611 910.5292 95.9611 912.6032 94.8211 911.0022 92.0691 909.0932 91.7981M946.659 94.3108C943.325 95.9868 941.777 99.6428 943.227 103.1448 944.321 105.7878 948.198 107.3218 950.874 106.3778 958.784 103.5868 954.3 91.1118 946.659 94.3108M958.9422 103.202C954.5102 104.01 956.6032 109.43 960.2802 108.767 963.5142 108.184 961.8792 103.277 958.9422 103.202M1063.6224 44.2772C1060.7594 44.6512 1061.6774 49.5902 1064.6784 48.7092 1067.1604 47.9802 1066.2174 43.9062 1063.6224 44.2772M816.8835 196.5306C814.9235 196.5906 814.8555 199.5976 816.6455 199.9786 819.0755 200.4956 819.1985 196.4996 816.8835 196.5306M971.516 118.605C969.142 118.969 969.899 122.952 971.804 122.348 973.729 121.737 973.519 118.883 971.516 118.605M1093.6055 50.4086C1090.5195 51.0836 1090.6615 54.2276 1092.0235 56.3726 1092.6535 57.3636 1093.5005 58.2006 1094.3175 59.0346 1095.4125 60.1516 1095.7045 60.9616 1097.1245 60.4946 1103.7005 58.3276 1097.6735 51.4776 1093.6055 50.4086M873.9649 181.0292C870.9639 181.6542 872.2589 186.6092 875.0799 186.1702 878.1339 185.6952 876.7869 180.7652 873.9649 181.0292M1031.1764 102.4228C1029.8764 102.8028 1031.0504 104.9638 1031.7044 104.9668 1032.1844 104.9698 1033.0774 104.0478 1033.0904 103.5718 1033.1174 102.5818 1031.9534 102.7048 1031.1764 102.4228M1135.6904 49.6775C1133.6704 49.5855 1132.3504 51.8575 1132.5394 53.7595 1132.7674 56.0525 1135.8164 57.6775 1137.8354 57.7995 1144.5064 58.2025 1141.1904 48.3625 1135.6904 49.6775M1091.8195 96.9579C1087.9665 97.1769 1089.1065 104.0889 1092.9665 103.7709 1096.8315 103.4529 1096.0525 95.9419 1091.8195 96.9579M1027.2494 140.1589C1024.3044 139.9839 1023.1974 144.9719 1026.1664 145.6969 1029.4794 146.5059 1030.0334 141.1859 1027.2494 140.1589M1096.0674 104.2333C1094.5414 104.1863 1094.7384 106.8823 1096.3884 106.2113 1097.4154 105.7943 1097.3854 104.0703 1096.0674 104.2333M1012.4764 153.9949C1011.2924 154.0259 1010.4614 154.7639 1009.7174 155.6009 1008.7474 156.6929 1008.6234 156.9869 1009.3054 158.2569 1010.5394 160.5499 1011.0634 162.5559 1013.9804 161.9279 1018.8774 160.8749 1016.4854 154.6429 1012.4764 153.9949M1036.6124 142.4887C1031.6264 143.2147 1034.7364 152.2857 1040.0924 149.4727 1041.2304 148.8757 1041.0994 148.0947 1041.8354 147.2857 1042.5254 146.5267 1044.4464 146.4337 1044.0634 144.8527 1043.8144 143.8237 1041.5384 143.5527 1040.5904 143.1017 1039.2874 142.4817 1038.0584 141.6507 1036.6124 142.4887M1029.4994 159.3301C1025.4984 160.8561 1028.9504 161.6671 1030.8934 162.7981 1028.0044 168.0441 1031.8184 174.7681 1037.0774 176.6821 1042.0634 178.4971 1048.2324 174.5411 1048.7354 169.2881 1049.1824 164.6201 1045.7854 159.1631 1041.0444 158.2121 1038.7394 157.7491 1037.0494 157.7961 1035.0154 159.0161 1033.1584 160.1301 1031.1764 161.5971 1029.4994 159.3301M1150.8074 124.1919C1143.9354 125.1359 1146.9304 135.0679 1152.5924 135.5369 1155.9634 135.8159 1157.5924 132.5849 1157.5374 129.5539 1157.4754 126.0539 1154.2144 123.6879 1150.8074 124.1919M999.9784 215.0555C997.4864 215.8165 994.8604 217.8005 993.8184 220.2575 992.8964 222.4305 993.4334 225.7765 994.3664 227.9155 996.6114 233.0615 1003.4684 233.6655 1007.3494 230.1685 1013.1044 224.9845 1007.7374 213.5425 999.9784 215.0555M530.3742 496.0549C528.2582 496.8859 529.8482 499.5389 531.7872 498.8319 534.3252 497.9059 532.3322 495.2609 530.3742 496.0549M1121.7725 170.4321C1119.6715 170.8131 1118.8315 172.9611 1119.2865 174.8821 1120.0615 178.1531 1122.8645 177.7771 1125.4255 176.6721 1126.3905 179.7361 1132.0845 181.7651 1132.7425 177.5291 1132.9805 175.9951 1132.2985 174.2931 1130.9395 173.4901 1129.1345 172.4241 1127.4935 173.8141 1125.8655 174.6451 1125.6865 172.3701 1124.1645 170.4691 1121.7725 170.4321M1017.8464 231.8817C1014.6674 232.1037 1014.9744 237.5887 1018.1924 236.6647 1020.4134 236.0277 1020.2654 232.1097 1017.8464 231.8817M1143.2534 173.0098C1142.6964 173.3318 1142.1424 173.6588 1141.5884 173.9858 1141.9894 175.0498 1143.3424 175.4858 1144.2394 174.7428 1143.9224 174.1588 1143.5854 173.5848 1143.2534 173.0098M1075.2704 280.6478C1072.7364 280.9288 1072.0794 284.8608 1073.4604 286.5258 1074.7104 288.0348 1077.5844 288.8198 1079.1064 287.2638 1079.9574 286.3938 1079.9564 284.9758 1080.4554 283.8988 1081.0044 282.7138 1082.0054 281.4818 1081.6764 280.0898 1080.8234 276.4958 1077.2194 281.0318 1075.2704 280.6478M1135.6315 263.1394C1133.7155 263.6084 1132.2695 264.9134 1130.8665 266.2164 1129.8085 267.1974 1129.8995 267.0954 1129.9305 268.3764 1129.9495 269.1564 1130.2905 270.1234 1130.5135 270.8684 1131.4515 273.9914 1134.1185 276.3214 1137.4955 276.2444 1141.1375 276.1624 1144.1085 272.4354 1143.2725 268.8364 1142.5015 265.5164 1139.1795 262.5364 1135.6315 263.1394M1004.2034 355.4441C1002.9064 355.8591 1001.4944 358.5921 1003.7384 358.4001 1005.1404 358.2801 1005.1774 356.1171 1004.2034 355.4441M1084.3854 378.9095C1082.9804 379.4455 1082.0764 379.6485 1082.7824 381.0405 1083.2614 381.9835 1083.9634 382.5795 1085.0074 382.2205 1086.7244 381.6305 1086.1974 378.8765 1084.3854 378.9095"/>
    <path fill="#F39423" d="M301.3547 96.8239C299.7627 97.0299 300.1357 99.6369 301.7057 99.4519 303.3097 99.2629 302.9387 96.6859 301.3547 96.8239M359.8258 188.0551C357.6648 188.6071 355.9488 190.1011 354.5898 191.8101 353.3698 193.3451 353.6128 195.0571 353.9498 196.9641 354.6148 200.7171 358.1528 202.8261 361.8778 202.2341 363.5858 201.9621 365.2298 201.1481 366.4178 199.8811 367.4248 198.8081 368.6318 196.6441 368.8198 195.2161 369.0318 193.6171 367.4878 191.6841 366.7198 190.3721 366.0238 189.1841 365.5848 189.1461 364.1158 188.7081 362.7258 188.2931 361.2928 187.8981 359.8258 188.0551M236.7203 269.7317C234.9063 269.6537 235.0103 273.7717 237.6793 273.5977 238.9243 273.5157 239.5583 272.7917 239.6093 271.5207 239.6893 269.5247 238.3233 269.5977 236.7203 269.7317M441.6526 161.9266C438.3706 161.8666 438.1486 166.4826 440.6986 167.7996 444.4976 169.7626 446.4716 161.3826 441.6526 161.9266M568.5982 93.268C565.0422 93.64 565.5372 99.383 568.4322 100.364 574.4312 102.396 574.1922 91.738 568.5982 93.268M692.8692 51.7716C683.7142 54.2396 687.5902 66.3386 696.1802 65.5006 699.8672 65.1416 702.0342 62.3536 702.2672 58.7506 702.6282 53.1396 697.7332 51.4536 692.8692 51.7716M476.7778 211.2505C475.1868 211.4575 475.5468 214.0615 477.1198 213.8785 478.7188 213.6925 478.3628 211.1105 476.7778 211.2505M451.4553 257.728C448.5923 258.735 449.5103 263.37 452.5603 263.31 453.9073 263.284 454.7603 262.276 454.9563 260.984 455.3203 258.591 453.3763 258.137 451.4553 257.728M463.3405 255.4521C460.4175 255.9631 461.6075 260.6231 464.0145 261.0091 468.3115 261.6981 467.6635 253.5011 463.3405 255.4521M670.0912 136.8492C667.7682 137.6852 669.8482 140.4112 671.4582 140.6652 674.8392 141.1972 673.4872 135.5302 670.0912 136.8492M41.3809 502.1967C37.4899 502.9747 34.2789 507.3727 35.2939 511.3267 36.4159 515.6937 40.7789 517.8647 44.9079 516.4097 53.1649 513.4977 50.2459 498.8227 41.3809 502.1967M898.8082 7.9038C897.7152 8.7828 895.9282 9.9408 896.2012 11.5678 896.4892 13.2838 899.1242 14.5358 900.7112 14.3348 905.0362 13.7878 902.9762 6.5198 898.8082 7.9038M834.4928 46.5317C830.3348 49.2527 832.6788 56.2597 837.7368 54.1547 842.5918 52.1327 839.1298 44.6247 834.4928 46.5317M612.9856 184.029C610.9296 184.735 608.4526 186.291 608.5456 188.73 608.6246 190.813 610.1736 192.16 612.1496 192.414 617.9636 193.165 617.7326 185.613 612.9856 184.029M724.9367 145.0838C723.9477 145.3418 722.6327 147.2018 724.2767 147.7228 726.0367 148.2798 725.5507 145.7068 724.9367 145.0838M485.7368 302.9757C484.5978 303.5207 485.4798 305.9827 486.4778 305.5377 487.7158 304.9857 486.9798 302.9637 485.7368 302.9757M744.5633 171.8504C741.6183 171.8904 741.9823 178.2464 745.8543 177.5684 749.6913 176.8974 748.4083 171.3624 744.5633 171.8504M865.6153 113.2552C861.8443 113.8462 859.2183 117.0562 858.8873 120.7832 858.4813 125.3642 861.8753 128.8812 866.2743 129.7892 867.7103 130.0852 868.2443 129.9192 869.3793 129.3302 870.1753 128.9172 871.4993 128.6222 872.1923 128.1462 874.0223 126.8902 875.2343 123.4012 874.9303 121.3902 874.5463 118.8482 873.8833 116.6392 871.7603 115.0802 870.0003 113.7892 867.8183 112.9952 865.6153 113.2552M1006.6074 44.727C1004.9794 44.861 1004.6204 46.836 1004.8834 48.162 1005.2044 49.774 1006.6314 50.456 1008.3784 49.971 1011.3574 49.144 1009.8674 43.906 1006.6074 44.727M1002.8104 59.7088C999.8184 60.0888 999.6364 65.0688 1002.6694 65.4438 1006.7834 65.9528 1006.6444 59.7018 1002.8104 59.7088M1034.0034 59.0643C1030.6494 59.1263 1030.1964 63.9403 1033.3834 64.7183 1037.7504 65.7843 1037.0184 59.2033 1034.0034 59.0643M1009.3834 95.2253C1005.8084 95.4593 1005.7804 100.3263 1008.9054 101.3563 1012.8144 102.6453 1012.9854 95.7053 1009.3834 95.2253M732.7639 261.7968C731.7029 262.0778 732.0989 264.0198 733.2799 263.7268 734.6009 263.3988 734.0209 261.5568 732.7639 261.7968M819.896 218.385C817.441 218.473 818.237 222.083 820.162 222.281 823.362 222.609 822.595 216.886 819.896 218.385M957.3874 141.3198C952.7994 141.9128 951.8654 147.8508 952.7124 151.5828 952.9544 152.6488 953.7564 153.1548 954.2744 154.0278 954.8834 155.0538 954.9774 154.5008 954.9364 155.6938 954.9204 156.1298 954.6414 156.6128 954.5634 157.0468 954.1434 159.3768 956.1284 161.7618 958.0434 159.3808 958.6494 158.6278 958.5504 157.4788 959.1394 156.9018 959.8124 156.2428 961.3894 155.8278 962.2134 155.3168 964.0934 154.1508 965.6464 152.6328 966.0384 150.3778 966.8624 145.6398 962.5704 139.8518 957.3874 141.3198M880.135 199.3528C878.928 199.3528 879.289 201.2858 880.246 201.3468 881.554 201.4298 881.602 199.0838 880.135 199.3528M1033.4954 115.4893C1030.8854 116.5803 1028.0934 117.7703 1028.7934 120.9663 1029.3904 123.6923 1030.9694 125.8743 1034.0674 125.9193 1041.5054 126.0273 1040.1874 114.1663 1033.4954 115.4893M1077.8624 90.5495C1074.0714 91.2685 1075.7594 97.1055 1079.1004 96.4945 1080.6804 96.2055 1081.6064 94.3005 1081.2234 93.0305 1080.7814 91.5675 1079.2824 90.7465 1077.8624 90.5495M1169.6174 45.7863C1168.6034 46.2913 1167.6044 46.5643 1167.6694 47.5253 1167.7024 48.0243 1168.5864 49.1553 1169.0784 49.2943 1171.7494 50.0523 1170.1834 46.7163 1169.6174 45.7863M1173.8964 54.7443C1171.7734 54.9863 1171.5854 58.4643 1173.6184 58.9643 1176.3714 59.6423 1176.7094 54.8633 1173.8964 54.7443M883.2688 226.3229C881.6788 226.5389 882.0368 229.1489 883.6108 228.9609 885.2028 228.7709 884.8468 226.1909 883.2688 226.3229M1126.2264 89.1949C1119.7414 90.9419 1122.6574 101.4039 1129.1064 100.6859 1132.7524 100.2809 1134.6614 96.8279 1133.7904 93.4589 1132.9544 90.2289 1129.3014 88.9279 1126.2264 89.1949M895.0617 222.3993C893.9587 222.9133 893.3497 224.8153 894.3327 225.3633 894.7157 225.5763 896.2807 225.0803 896.4027 224.7223 896.5407 224.3183 895.2527 222.6843 895.0617 222.3993M509.3091 482.2133C508.4001 482.2423 507.7101 484.1773 508.5601 484.6693 508.9501 484.8953 509.9711 484.4233 510.1191 484.0283 510.3441 483.4233 509.6151 482.6473 509.3091 482.2133M1021.3294 205.0007C1017.5264 205.5777 1015.6624 209.9027 1016.6094 213.3737 1017.4584 216.4887 1020.7434 217.9147 1023.7714 217.4047 1032.0514 216.0087 1028.8114 203.6167 1021.3294 205.0007M1124.9924 159.4308C1122.7954 159.6818 1123.6674 161.8358 1123.9574 163.1998 1124.3154 164.8868 1124.5584 165.4728 1126.3204 166.1068 1127.3924 166.4928 1127.6404 166.6088 1128.4204 165.9498 1128.9254 165.5228 1129.3874 164.4018 1129.4144 163.7828 1129.5024 161.7498 1126.8184 159.7478 1124.9924 159.4308M1036.1635 211.45C1033.8525 212.016 1033.1455 215.384 1035.8215 215.766 1038.4225 216.138 1037.8925 212.253 1036.1635 211.45M1047.4054 208.2014C1044.2704 209.4614 1043.0244 214.0104 1045.2334 216.6674 1045.8454 217.4034 1047.0304 218.1764 1047.8154 218.7404 1048.7534 219.4134 1048.9694 219.4214 1050.0974 219.3604 1052.3214 219.2384 1055.3284 218.5294 1057.2444 217.3804 1055.8004 215.1024 1055.2034 212.3284 1053.7724 210.0944 1052.5444 208.1794 1049.5344 207.2994 1047.4054 208.2014M1161.6914 159.4796C1160.0554 160.1206 1160.0444 162.3006 1160.2584 163.7696 1160.5534 165.7996 1161.4554 166.2896 1160.7774 168.4416 1159.6704 171.9546 1163.3464 176.8456 1167.1124 174.0376 1168.3194 173.1376 1168.2234 171.2756 1167.7604 169.9926 1167.1664 168.3486 1165.7094 168.2836 1164.6224 167.1006 1163.2204 165.5766 1164.7814 164.4676 1164.7634 162.7506 1164.7454 161.0356 1163.4674 159.5076 1161.6914 159.4796M1120.3615 202.4316C1112.2515 205.6886 1113.5315 216.6076 1119.3875 221.3146 1120.7825 222.4366 1122.3905 223.2946 1124.0795 223.8786 1126.1065 224.5776 1126.9795 224.5776 1128.7485 223.5536 1131.4285 222.0016 1135.5715 220.0436 1135.8445 216.4396 1136.0255 214.0456 1133.0305 211.0106 1134.6525 208.7976 1135.5835 207.5276 1137.3625 208.0556 1137.9955 206.3966 1138.4995 205.0736 1137.8375 203.2386 1137.0395 202.2476 1135.8935 200.8246 1133.7005 199.3526 1131.7925 199.7446 1130.5435 200.0006 1130.2265 200.7986 1129.4195 201.6966 1128.4295 202.7996 1128.2475 202.8896 1126.8855 202.4196 1125.6315 201.9866 1125.0705 201.6276 1123.6715 201.8156 1122.5525 201.9666 1121.5065 202.4186 1120.3615 202.4316M1104.8364 237.7769C1102.2874 237.8379 1100.3614 240.9639 1100.8904 243.3029 1101.5144 246.0639 1104.8574 248.0549 1107.5444 247.2679 1113.2784 245.5889 1110.5674 236.7669 1104.8364 237.7769M1098.9185 310.2186C1093.0005 312.5066 1088.6435 321.5156 1091.7935 327.3666 1092.6875 329.0276 1093.7565 331.0286 1095.1855 332.1966 1096.6395 333.3856 1098.6435 333.9306 1100.3895 334.5276 1102.5715 335.2746 1103.5435 335.2546 1105.7455 334.7906 1106.4445 334.6436 1107.4085 334.2506 1107.9745 334.5536 1108.5195 334.8456 1108.6405 335.8116 1109.2005 336.1416 1110.9025 337.1436 1111.2705 335.7886 1111.6195 334.4226 1112.0645 332.6816 1113.0645 331.3696 1114.3005 329.9806 1115.6005 328.5176 1116.9825 327.7576 1117.0265 325.7296 1117.0645 323.9336 1116.9635 322.1216 1116.6105 320.3566 1115.1305 312.9626 1106.4045 306.8766 1098.9185 310.2186M1083.8474 347.6035C1081.6584 348.3565 1081.1764 351.9835 1082.2404 353.6765 1083.4384 355.5825 1086.1294 356.9245 1088.2584 355.7535 1090.2754 354.6435 1090.9874 351.8475 1090.2194 349.7775 1089.0534 346.6345 1086.4894 346.9845 1083.8474 347.6035M1170.2054 301.3966C1164.7944 302.2256 1162.6224 312.1006 1169.5934 311.5186 1172.8834 311.2446 1174.0774 309.1626 1174.5104 306.0756 1174.9464 302.9646 1172.9084 302.0046 1170.2054 301.3966M1175.5504 311.8596C1172.6094 311.4726 1171.5944 315.0556 1173.9564 316.4996 1175.3334 317.3416 1176.8844 317.0296 1177.4554 315.2746 1178.0294 313.5096 1176.7224 312.8426 1175.5504 311.8596M1114.5774 352.5142C1111.7634 352.4652 1113.3114 356.7582 1115.6614 356.2492 1118.2434 355.6892 1117.1964 351.8812 1114.5774 352.5142M1098.6794 374.4292C1095.6324 375.0832 1096.2504 379.0202 1099.2244 378.6912 1101.5994 378.4282 1100.8564 374.6852 1098.6794 374.4292M1146.2854 366.7332C1141.9864 367.8422 1143.9524 374.4932 1148.1944 373.6332 1150.1414 373.2382 1151.4244 370.6932 1150.8674 368.8302 1150.2974 366.9282 1148.0374 366.4542 1146.2854 366.7332"/>
    <path fill="#29ABE2" d="M323.4015 13.1041C321.5565 13.8341 320.6855 17.0721 322.0185 18.5071 323.1305 19.7031 325.3045 19.6221 326.6345 18.8921 330.4035 16.8241 327.2125 11.1051 323.4015 13.1041M337.9215 30.4232C334.2705 32.7772 334.2855 38.5222 339.5645 37.6632 344.4775 36.8642 341.5695 31.0012 337.9215 30.4232M92.6799 287.0723C91.3529 288.4563 89.1839 290.2863 90.2859 292.4023 91.3439 294.4313 93.8729 295.4853 95.8869 294.3453 97.5599 293.3993 98.6769 291.0203 97.9049 289.1593 97.1029 287.2263 94.5049 286.9393 92.6799 287.0723M178.2796 257.1174C177.2616 257.6174 176.2546 257.9024 176.3236 258.8594 176.3586 259.3514 177.2496 260.4844 177.7356 260.6214 180.3956 261.3754 178.8556 258.0494 178.2796 257.1174M241.5082 227.1112C234.9092 232.3152 242.5762 240.9842 248.9322 235.7142 251.2452 233.7972 252.0342 230.4472 250.4412 227.7922 249.5812 226.3582 248.4302 225.9592 246.9112 225.5772 244.5132 224.9742 243.6892 226.4362 241.5082 227.1112M200.3459 262.6571C195.1159 263.2841 194.7769 271.3761 200.5379 270.9671 202.8019 270.8061 204.5199 269.7051 204.4299 267.3311 204.3399 264.9611 202.9559 262.6451 200.3459 262.6571M314.5283 199.8431C311.2943 199.6991 310.2423 205.0821 313.5613 205.9821 315.6973 206.5621 317.6673 205.6901 318.1463 203.4421 318.5583 201.5081 316.7283 199.2261 314.5283 199.8431M63.6198 350.005C56.9158 350.816 56.6958 362.352 64.1258 361.574 71.3168 360.822 70.8458 348.727 63.6198 350.005M577.3401 75.4366C574.1681 75.9696 572.9151 78.7626 573.1361 81.7186 573.2181 82.8006 573.4771 85.0966 574.2861 85.8746 575.3951 86.9396 579.2111 87.3566 580.5111 86.9566 588.2491 84.5766 584.6401 72.3066 577.3401 75.4366M706.8099 22.4645C702.4699 22.7325 704.0769 29.3885 707.7409 28.8075 711.3589 28.2335 710.1889 22.4125 706.8099 22.4645M5.9067 428.0692C2.1107 428.8482-.0523 432.9192.0007 436.5552.0347 438.8612 2.0057 440.2232 3.7907 441.4092 4.7517 442.0482 5.5057 442.6352 6.6177 442.6332 7.5897 442.6312 8.8227 442.1552 9.7057 441.8152 13.2567 440.4482 15.9737 436.9972 14.8597 433.0392 13.8377 429.4052 9.6287 426.5032 5.9067 428.0692M649.9982 57.51C648.3022 57.605 647.3212 58.783 647.2102 60.417 647.0812 62.309 647.6792 63.684 649.5112 64.131 651.6502 64.652 652.8402 64.065 653.4562 61.881 654.1922 59.277 652.4032 58.1 649.9982 57.51M775.8282 25.0808C774.0012 25.1918 773.3462 27.0908 773.5162 28.6818 773.7002 30.3918 775.7322 31.8288 777.5542 31.5558 781.6872 30.9368 779.7512 23.6928 775.8282 25.0808M367.8208 266.5949C364.7978 266.9489 366.0818 271.1479 368.1348 270.1379 369.4838 269.4739 369.7048 266.6149 367.8208 266.5949M573.0572 166.979C569.4852 166.995 569.2162 173.043 573.0172 172.721 574.3952 172.604 575.5572 171.401 575.7002 170.053 575.9022 168.146 574.4192 167.76 573.0572 166.979M246.1081 355.7821C244.5121 355.9911 244.8761 358.6031 246.4521 358.4141 248.0451 358.2231 247.6921 355.6421 246.1081 355.7821M440.4927 252.6865C437.2847 252.7765 438.2657 257.7955 441.0447 256.8855 443.1227 256.2055 443.0307 252.4255 440.4927 252.6865M87.3599 459.8363C83.3319 460.5583 81.8219 464.5773 80.2789 467.8493 78.5979 471.4123 77.6389 474.6443 79.4439 478.4463 82.7219 485.3533 92.6389 488.3483 99.2629 484.7553 102.3859 483.0613 104.5529 481.8893 106.4079 478.6423 106.9729 477.6513 106.8259 476.9553 107.0729 475.8183 107.3159 474.7003 107.8989 473.8083 108.0109 472.6393 108.1849 470.8383 107.9339 468.3413 107.5809 466.5973 106.9449 463.4643 103.2639 460.6023 100.3809 459.1543 98.4489 458.1833 96.3229 456.8833 94.0619 457.3533 91.8149 457.8213 89.5309 459.0463 87.3599 459.8363M767.2492 68.706C761.5062 71.409 763.2432 81.616 770.2272 80.389 771.8572 80.103 773.7062 79.066 774.7832 77.821 775.9292 76.496 775.9342 75.04 775.5932 73.305 774.7152 68.847 771.2832 67.837 767.2492 68.706M789.4323 94.2762C787.5483 95.7712 787.1943 100.1852 790.5643 99.1122 794.1563 97.9682 791.4013 95.2472 789.4323 94.2762M703.5439 147.6801C701.6479 148.1611 702.8299 151.1041 703.9729 151.1191 706.6099 151.1551 705.4499 147.7191 703.5439 147.6801M880.8763 54.4395C879.0163 54.6695 879.9043 57.4755 881.4073 57.5475 883.7933 57.6615 883.0583 54.0015 880.8763 54.4395M517.1354 284.9708C514.3964 286.5208 517.1014 290.6078 519.2444 288.6178 520.9154 287.0658 519.4734 283.9418 517.1354 284.9708M829.5669 105.3575C823.8379 107.2235 824.7359 117.5395 830.8969 117.9615 834.6219 118.2175 837.6239 116.3255 837.9419 112.3985 838.3379 107.5165 834.0299 104.8635 829.5669 105.3575M987.2274 14.9112C984.3424 14.7472 982.7814 18.3772 985.5674 19.8592 988.8574 21.6092 990.6774 16.0862 987.2274 14.9112M1032.0504 23.8356C1028.6314 24.0176 1027.9494 29.8836 1031.3874 30.3936 1033.5314 30.7116 1035.1194 30.1026 1035.0624 27.7106 1035.0194 25.8626 1033.8964 24.2556 1032.0504 23.8356M706.4919 223.9882C703.1609 224.3162 703.7669 229.6972 707.0319 229.4412 710.3719 229.1802 709.7429 223.8172 706.4919 223.9882M484.6838 376.3063C480.0938 378.1883 481.0918 385.9463 486.5468 383.8953 491.2488 382.1283 489.4898 376.1113 484.6838 376.3063M1103.1184 31.3886C1099.2464 33.0386 1101.9444 39.2516 1105.6994 37.5386 1107.3194 36.7996 1108.3924 34.6536 1107.5434 32.9676 1106.7234 31.3376 1104.7154 31.2916 1103.1184 31.3886M486.5817 402.3883C484.7667 402.3293 484.9677 404.5683 486.5727 404.7163 488.6317 404.9073 488.1357 402.0743 486.5817 402.3883M1000.3124 116.4065C998.3774 117.0345 998.8744 120.7675 1000.8604 120.9625 1001.5914 121.0335 1003.2674 119.7455 1003.3194 118.9195 1003.4074 117.5145 1001.4504 116.4715 1000.3124 116.4065M1045.3014 96.4461C1039.6294 97.5761 1040.9564 106.2361 1046.5344 105.0241 1051.6804 103.9071 1049.9244 96.8151 1045.3014 96.4461M980.969 141.445C977.228 143.069 975.233 147.363 975.574 151.305 976.004 156.287 980.211 159.151 984.882 159.98 985.385 160.07 986.091 160.219 986.597 160.1 987.844 159.805 987.41 159.661 988.203 158.877 989.127 157.964 989.8 156.822 990.801 155.952 992.136 154.794 993.005 154.712 993.118 152.815 993.192 151.585 993.122 150.346 992.896 149.135 992.43 146.646 991.342 143.894 989.152 142.524 986.892 141.109 983.444 140.004 980.969 141.445M1006.1004 128.9562C1002.1154 129.7042 1002.2814 135.7032 1006.5274 135.5862 1010.4464 135.4782 1009.9654 129.0292 1006.1004 128.9562M1003.9274 173.23C1003.6644 173.361 1001.8304 174.188 1001.7484 174.488 1001.7134 174.616 1002.9244 176.705 1003.0474 176.737 1003.3144 176.805 1005.1924 175.597 1005.2254 175.479 1005.3444 175.059 1004.1264 173.532 1003.9274 173.23M1008.7304 200.9444C1005.1654 201.0134 1009.0454 207.1984 1011.2374 204.5244 1012.5654 202.9044 1010.7474 200.1134 1008.7304 200.9444M986.3401 220.5631C982.7731 221.6841 983.6621 227.6481 987.5691 227.2091 989.0361 227.0451 989.9861 224.8621 989.8921 223.6191 989.7491 221.7221 988.0871 220.9821 986.3401 220.5631M1026.2985 198.2334C1024.5735 198.6734 1024.8195 201.7324 1026.6855 201.5814 1028.7615 201.4124 1028.1645 198.2064 1026.2985 198.2334M907.1805 271.6838C904.9155 272.1398 906.0935 275.8888 908.2505 275.4138 911.0055 274.8068 909.3425 270.4248 907.1805 271.6838M903.4985 288.0678C902.1365 288.5778 900.7385 289.6868 901.2045 291.3628 901.4935 292.4038 903.3595 293.7228 904.2865 293.5038 906.9215 292.8838 905.8845 288.3608 903.4985 288.0678M943.3166 307.4585C942.4026 307.8255 941.0336 308.3465 941.1026 309.5615 941.1626 310.6275 942.4806 311.3635 943.4096 311.4045 946.2146 311.5255 945.6246 307.6535 943.3166 307.4585M1091.6714 265.7033C1089.1314 265.9623 1086.6814 268.7243 1088.0404 271.2483 1089.4464 273.8603 1092.2124 274.2373 1094.8894 273.8283 1100.3354 272.9973 1095.8344 265.1343 1091.6714 265.7033M1084.1664 284.4246C1083.0564 285.1246 1083.7994 286.5646 1084.9144 286.6866 1087.0374 286.9176 1085.4004 284.4426 1084.1664 284.4246M1099.4974 290.7486C1096.5604 291.6106 1098.1854 297.2386 1101.2434 295.3866 1103.3344 294.1196 1101.8234 290.4876 1099.4974 290.7486M1151.4904 284.1068C1148.0204 283.8968 1147.8574 289.2708 1151.1464 289.5978 1152.6224 289.7448 1154.0264 288.9498 1154.3104 287.4488 1154.6744 285.5348 1152.9224 284.8278 1151.4904 284.1068M1092.3434 362.2532C1088.8104 362.7402 1089.6564 368.0632 1092.7084 368.4612 1094.7824 368.7312 1096.0664 367.5282 1096.0824 365.4072 1096.1024 362.9232 1094.1444 362.9012 1092.3434 362.2532"/>
    <path fill="#8EC044" d="M476.0244 93.011C474.8444 94.166 473.6354 94.969 474.5734 96.625 475.1584 97.657 476.2384 98.175 477.4294 97.907 480.7374 97.163 479.3874 91.702 476.0244 93.011M453.94 145.0969C450.132 146.2269 451.334 152.4339 455.392 152.0879 457.264 151.9279 458.777 149.4049 458.62 147.6539 458.403 145.2339 455.886 144.9399 453.94 145.0969M579.8095 185.0583C576.3985 186.5693 574.1535 188.6373 574.7615 192.5223 575.2365 195.5603 577.8705 197.5883 581.0005 197.2253 583.7565 196.9053 586.5845 194.6643 586.4375 191.7103 586.2635 188.2053 583.2835 185.2423 579.8095 185.0583M529.6819 225.3559C527.3699 225.7309 528.1369 229.0549 530.0859 228.8289 532.0739 228.5979 531.5589 225.4319 529.6819 225.3559M882.1263 36.3161C878.8233 36.2681 879.2833 40.2711 881.3613 41.7171 882.5393 42.5371 883.9603 42.3661 884.9033 41.2081 885.5683 40.3921 885.6593 39.3651 885.3903 38.3581 884.9623 36.7511 883.5953 36.6431 882.1263 36.3161M812.0934 90.4679C809.9134 90.9269 808.7694 94.8779 809.1964 96.7019 809.9234 99.8109 813.6304 101.8159 816.5814 100.8219 819.4634 99.8499 821.1224 96.5569 819.7824 93.7269 819.2674 92.6369 817.9124 91.1789 816.8654 90.5649 815.2414 89.6129 813.8464 90.2319 812.0934 90.4679M235.1795 438.647C233.3455 438.753 232.7055 440.658 232.8655 442.247 233.0405 443.982 234.9715 445.387 236.8165 444.982 240.9395 444.077 239.0905 437.136 235.1795 438.647M646.0444 204.3625C644.9904 204.7995 645.5494 206.6145 646.5824 206.6275 648.1164 206.6475 647.3654 204.3515 646.0444 204.3625M874.7542 76.842C873.4362 77.267 872.3662 77.983 872.7432 79.451 873.0832 80.777 874.1952 81.373 875.4022 80.946 877.5102 80.2 876.9432 76.973 874.7542 76.842M699.5547 186.5449C697.2507 188.1759 695.0417 190.8889 694.8007 193.7189 694.5657 196.4649 694.9547 200.5309 696.9197 202.5629 700.5557 206.3229 707.1137 208.0919 711.2147 204.2069 713.0877 202.4319 714.2797 200.0219 714.8707 197.5299 715.4517 195.0839 714.3757 192.6089 713.0697 190.5319 710.2057 185.9749 704.5157 183.7609 699.5547 186.5449M1003.8034 29.7017C1000.1564 31.1077 1002.2464 35.7807 1005.9264 34.8937 1009.8404 33.9507 1007.3464 28.8397 1003.8034 29.7017M800.6531 193.9465C798.3031 195.6565 796.8731 198.9915 798.4611 201.6985 799.1501 202.8725 800.4401 203.6505 801.6661 204.1505 803.4561 204.8815 804.3681 204.3015 806.0161 203.4475 807.6331 202.6115 808.5421 202.0645 808.7461 200.1975 808.8831 198.9415 808.6621 197.5735 808.0831 196.4455 806.4881 193.3385 803.6131 193.5555 800.6531 193.9465M1077.1254 52.4646C1073.0384 54.2866 1075.7564 60.9176 1080.0724 59.0776 1084.9624 56.9926 1081.4334 51.4676 1077.1254 52.4646M921.1603 195.3573C919.5463 195.5823 920.0023 197.7773 921.3573 197.9703 923.5483 198.2803 923.0693 195.3813 921.1603 195.3573M857.0372 252.1829C853.8092 252.6399 855.2172 257.5179 857.8422 257.6919 861.8422 257.9569 860.8802 250.9119 857.0372 252.1829M1083.0404 122.4981C1079.5674 123.2131 1078.7744 127.0471 1079.8524 129.8961 1080.7414 132.2451 1084.2814 134.3621 1086.8344 133.2651 1089.2204 132.2391 1090.1384 129.5111 1089.7904 127.0821 1089.6124 125.8411 1089.1224 124.6341 1088.2674 123.7041 1086.7714 122.0771 1085.0774 122.3981 1083.0404 122.4981M1097.1564 167.1777C1093.2274 167.5817 1093.9614 172.3787 1096.8804 173.7817 1101.3134 175.9137 1102.7574 167.5137 1097.1564 167.1777M1090.0144 227.346C1086.5414 227.047 1085.4564 232.161 1088.4224 233.622 1090.4554 234.624 1092.9584 233.581 1093.4964 231.371 1094.2294 228.365 1092.2084 228.063 1090.0144 227.346M942.0252 333.231C940.3192 333.365 940.9002 336.478 942.2702 336.663 944.4882 336.963 944.7182 332.722 942.0252 333.231M973.7651 323.0878C972.7761 323.3438 971.4511 325.2028 973.0991 325.7248 974.8511 326.2798 974.3791 323.7118 973.7651 323.0878M1034.6284 335.6615C1028.5154 338.8745 1033.8774 349.0275 1040.1994 344.7155 1042.4384 343.1895 1043.2564 339.9875 1041.8974 337.5585 1040.5214 335.0985 1037.0054 335.3445 1034.6284 335.6615"/>
    <path fill="#E32185" d="M390.768 40.6284C392.258 40.1844 392.358 37.7604 390.553 37.7554 388.428 37.7904 388.566 41.2844 390.768 40.6284M409.1725 78.1055C411.8785 78.2935 414.1945 75.1295 413.3115 72.5145 412.5225 70.1755 409.8495 68.5185 407.5045 69.8155 405.3955 70.0525 404.0205 71.9385 404.0615 73.9995 404.1205 76.9825 406.5285 77.9215 409.1725 78.1055M560.6071 21.2485C560.4921 19.5255 559.9481 17.7545 558.8251 16.4155 557.1571 14.4285 555.5331 14.4795 553.1451 14.4105 551.4611 14.7205 550.6751 17.0775 549.5141 18.1475 549.2831 18.3605 548.5931 18.3295 548.4481 18.5205 548.2271 18.8115 548.1991 19.6495 548.1541 20.0275 548.0271 21.0905 548.0711 22.1705 548.2601 23.2235 548.9301 26.9525 552.2151 31.1625 556.4401 29.4415 559.5621 28.1705 560.8151 24.3715 560.6071 21.2485M373.9235 144.9563C371.8335 145.8843 371.7345 149.4103 374.5005 149.2483 377.7145 149.0603 375.9055 145.6543 373.9235 144.9563M297.4312 267.8399C298.5992 267.8899 299.3732 267.0189 299.3702 265.9019 299.3662 264.4539 298.2002 264.0529 297.0582 263.5059 294.5212 263.8959 294.8962 267.7309 297.4312 267.8399M547.1891 178.2019C543.3681 178.0339 543.5431 184.3089 547.5721 183.9109 551.0281 183.5689 550.6581 178.0079 547.1891 178.2019M288.1447 366.2885C284.4537 366.8715 283.8897 372.2485 288.0017 372.5555 291.9817 372.8525 291.6527 366.9835 288.1447 366.2885M696.1506 164.0867C694.3206 165.0787 694.7056 168.6147 696.9846 168.6217 700.2786 168.6317 698.9726 163.8967 696.1506 164.0867M758.4604 137.3363C757.4104 137.3913 757.9054 139.9583 759.2454 139.6543 761.0794 139.2383 760.3184 136.2243 758.4604 137.3363M819.994 184.0947C815.863 184.2357 815.68 190.0677 820.028 190.2257 821.786 190.2897 822.45 189.3227 822.713 187.7557 823.075 185.5947 821.787 185.0017 819.994 184.0947M1153.9634 24.0204C1151.1924 25.7984 1153.4574 31.4584 1156.4134 29.1464 1158.6094 27.4284 1156.9174 22.8874 1153.9634 24.0204M939.8702 156.5617C936.7762 157.3407 934.3162 159.9777 934.4142 163.2707 934.4882 165.7487 937.5772 166.7537 934.8652 168.9137 932.9142 170.4687 930.8972 171.1287 930.9492 174.0817 930.9982 176.7977 932.8252 178.9327 935.3382 179.7117 937.8122 180.4777 939.7792 179.4097 940.9392 177.1217 941.4712 176.0717 941.7622 174.8567 941.7582 173.6797 941.7532 172.5297 940.8992 170.8697 941.1682 170.1657 941.5502 169.1657 944.2972 167.6227 945.0402 166.6427 945.9292 165.4707 946.9352 163.6917 946.8122 162.1427 946.5462 158.7927 942.6232 157.1927 939.8702 156.5617M1103.6204 77.9073C1100.1414 78.6403 1101.3814 83.7343 1104.3024 82.6943 1106.5174 81.9063 1105.5454 78.3883 1103.6204 77.9073M862.52 220.9346C857.148 221.9116 861.522 229.5306 864.744 226.6586 866.785 224.8376 865.227 220.9166 862.52 220.9346M1004.1844 142.0975C1000.7664 142.0455 1000.9244 146.2295 1003.3394 147.6535 1004.9024 148.5745 1006.8314 147.9945 1007.2734 146.1735 1007.7774 144.0945 1005.9024 142.7905 1004.1844 142.0975M965.0915 200.2378C962.2725 200.2388 961.4165 203.3708 963.8985 204.8038 967.0585 206.6288 968.9875 200.8448 965.0915 200.2378M890.8152 263.6268C887.0812 263.5578 886.4792 270.4478 890.5962 270.7208 895.3652 271.0378 895.5142 263.7688 890.8152 263.6268M1019.7954 250.6159C1017.7134 251.6619 1013.2144 253.3529 1014.2434 256.4259 1014.8104 258.1179 1017.2404 259.7679 1018.6044 260.8099 1020.3344 262.1319 1022.4484 263.2079 1024.6644 262.5179 1027.6904 261.5759 1029.1314 257.9349 1028.4884 255.0039 1028.1364 253.4019 1027.1664 252.1119 1025.8044 251.2129 1023.8534 249.9269 1021.9784 250.7079 1019.7954 250.6159M1082.3724 216.6164C1080.6674 218.0424 1078.2504 217.7294 1078.6564 220.6164 1078.9334 222.5934 1080.4904 223.7574 1082.4384 223.9614 1084.3204 224.1584 1086.1434 223.3784 1086.6704 221.4644 1087.4564 218.6074 1084.8774 216.9794 1082.3724 216.6164M1055.4274 232.2485C1052.1384 232.6335 1053.9324 237.4045 1056.6684 237.4505 1058.0834 237.4735 1059.3664 236.0805 1059.3714 234.5745 1059.3764 232.7605 1057.1204 231.8515 1055.4274 232.2485M934.8278 316.9212C932.8198 316.8932 932.7178 320.2572 934.8678 319.8062 936.2658 319.5132 936.4938 316.9472 934.8278 316.9212M1020.6664 278.748C1018.5654 278.726 1019.3304 281.298 1020.7924 281.737 1023.2794 282.484 1023.2424 278.344 1020.6664 278.748M1011.2744 291.7013C1007.8924 292.1723 1008.1234 298.3793 1011.8764 297.9483 1013.2664 297.7883 1014.8304 296.6523 1015.0124 295.1763 1015.2764 293.0413 1012.9504 292.1933 1011.2744 291.7013M1085.9554 365.1171C1083.5614 365.4651 1084.1464 368.8721 1086.4754 368.4621 1087.5154 368.2791 1088.0264 367.7121 1087.9344 367.0031 1087.8284 366.1821 1086.7954 365.1261 1085.9554 365.1171M1109.8744 442.1767C1107.6344 442.3327 1108.0504 445.6317 1109.8744 446.1297 1110.8704 446.4017 1112.4584 445.3407 1112.5164 444.2647 1112.5994 442.7477 1110.9194 442.4817 1109.8744 442.1767"/>
  </g>
</svg>
