<svg xmlns="http://www.w3.org/2000/svg" width="38" height="28" viewBox="0 0 38 28">
  <path fill="#FFFFFF" fill-rule="evenodd" d="M19,28 C19,26.3431458 20.3524401,25 21.9976599,25 L54.0023401,25 C55.657902,25 57,26.3465171 57,28 C57,29.6568542 55.6475599,31 54.0023401,31 L21.9976599,31 C20.342098,31 19,29.6534829 19,28 Z M19,39 C19,37.3431458 20.3524401,36 21.9976599,36 L54.0023401,36 C55.657902,36 57,37.3465171 57,39 C57,40.6568542 55.6475599,42 54.0023401,42 L21.9976599,42 C20.342098,42 19,40.6534829 19,39 Z M19,50 C19,48.3431458 20.3524401,47 21.9976599,47 L54.0023401,47 C55.657902,47 57,48.3465171 57,50 C57,51.6568542 55.6475599,53 54.0023401,53 L21.9976599,53 C20.342098,53 19,51.6534829 19,50 Z" transform="translate(-19 -25)"/>
</svg>
