<svg xmlns="http://www.w3.org/2000/svg" width="574" height="195" viewBox="0 0 574 195">
  <g fill="#000000" fill-rule="evenodd">
    <path d="M167.5658 169.7528C160.5588 169.3918 153.5478 169.8728 146.5378 169.7728 148.5908 163.8328 150.9318 158.0468 153.1538 152.1508 154.2418 149.2658 155.5038 146.4718 156.8078 143.6808 158.2228 140.6498 158.8938 137.2568 160.5468 134.3478 160.6538 134.5898 160.8168 134.8528 160.8848 135.1078 160.8078 134.9298 160.7298 134.7508 160.6528 134.5728 163.1958 140.4478 164.5408 146.0878 165.9278 152.3068 166.5688 155.1818 167.5948 157.9508 168.8968 160.5908 170.3198 163.4738 170.9018 166.2888 171.8118 169.3498 170.4988 169.6998 168.6908 169.7528 167.5658 169.7528M184.1098 189.9138C182.7708 186.6618 182.3748 183.1508 181.4738 179.7928 180.5118 176.2098 178.8978 172.8018 177.8128 169.2528 176.7348 165.7308 176.0428 162.1538 174.4688 158.8018 172.5658 154.7498 171.4998 150.8358 170.6238 146.4598 169.9008 142.8428 168.7358 139.3528 167.3608 135.9338 166.5768 133.9818 165.7268 132.0608 164.8248 130.1608 164.1498 128.7408 163.5138 126.4608 162.0098 125.6318 158.9038 123.9218 157.3408 128.0428 156.3118 130.1088 154.5828 133.5808 153.4798 137.1348 151.9248 140.6608 145.6008 155.0038 139.9218 169.7388 135.3468 184.7448 134.6178 187.1388 131.6558 192.2528 134.9478 193.8508 138.1988 195.4308 139.2118 191.2588 139.9528 189.0878 141.1228 185.6638 141.8468 182.0958 143.1518 178.7148 143.9158 176.7338 144.0158 175.3888 146.2648 175.3938 148.6578 175.3988 151.0608 175.4918 153.4578 175.4948 158.0788 175.5008 162.6988 175.4678 167.3188 175.4598 168.3468 175.4588 169.4058 175.5238 170.4288 175.4138 170.8598 175.3678 173.1468 174.6358 173.4748 174.7738 174.4398 175.1798 175.5638 179.7368 175.8368 180.7508 176.8568 184.5438 177.1798 189.0788 179.0328 192.6158 179.8208 194.1198 181.4848 194.9758 183.0818 194.0358 184.8048 193.0218 184.5118 191.4988 184.1098 189.9138M120.5519 125.7732C115.7169 125.2252 117.2909 133.8152 117.1429 136.4032 116.9609 139.5732 116.8279 142.4712 116.8909 145.6652 116.9569 149.0212 116.2119 152.3602 116.2409 155.7332 113.4389 155.2702 110.5499 155.9932 107.7159 155.7032 104.5589 155.3792 101.4129 155.1442 98.2379 155.1122 92.5679 155.0562 86.7559 155.0142 81.0949 155.2922 81.0329 149.0612 82.1139 143.0242 82.1489 136.8092 82.1599 134.6992 82.0129 121.9432 76.8009 126.6242 74.8859 128.3432 76.1709 131.4792 76.3529 133.6612 76.6359 137.0722 76.3449 140.5482 75.8879 143.9292 75.4939 146.8462 75.4049 149.6182 75.4799 152.5582 75.5569 155.5822 75.1919 158.5492 75.1809 161.5582 75.1719 164.3522 76.0219 167.1302 75.8059 169.9052 75.5569 173.1172 75.6599 176.3162 75.4109 179.5252 75.2009 182.2322 75.0649 185.0562 74.6249 187.7292 74.2649 189.9212 74.2439 193.7292 77.7899 192.8352 80.4509 192.1632 80.2389 189.0082 80.3959 186.8902 80.5559 184.7332 80.9789 182.6212 81.0799 180.4532 81.3239 175.1822 81.5849 169.8912 81.1769 164.6512 81.1009 163.6672 80.5749 161.3832 81.4889 160.9382 82.2819 160.5522 84.8929 160.9832 85.7769 160.9772 89.1439 160.9542 92.5109 160.9912 95.8769 160.9212 99.2079 160.8512 102.4849 160.9242 105.7999 161.2802 109.3749 161.6642 112.8259 161.2072 116.3849 161.4712 116.1329 163.9652 115.3249 166.1802 115.5289 168.7252 115.7139 171.0412 115.4989 173.2822 115.5569 175.5952 115.6149 177.9222 115.9189 180.2282 115.8589 182.5602 115.8009 184.8022 115.3629 187.0962 115.5029 189.3352 115.5989 190.8852 115.8919 192.4132 117.6139 192.8662 119.5519 193.3752 120.7699 191.9042 121.1259 190.2092 122.1039 185.5582 121.5339 180.2412 121.2999 175.5472 121.0689 170.9262 121.4059 166.6562 122.0039 162.1092 122.5639 157.8532 122.0109 153.3582 122.3609 149.0362 122.5259 147.0012 122.3829 145.0072 122.3559 142.9702 122.3259 140.6842 122.7499 138.4622 122.8509 136.1882 122.9489 134.0052 122.9919 131.7402 122.9649 129.5582 122.9429 127.8322 122.5679 126.0562 120.5519 125.7732M61.7022 123.5782C61.4742 121.3812 60.8362 117.5972 57.9642 117.5682 54.2522 117.5302 55.4132 121.2432 55.8662 123.4272 56.8822 128.3292 55.3252 132.9412 52.4862 136.8972 51.2122 138.6732 50.5712 141.5562 53.6932 142.0202 56.4742 142.4342 58.2642 138.6992 59.3062 136.6982 61.4582 132.5632 62.1672 128.1402 61.7022 123.5782M38.2175 161.6625C38.0785 164.0295 37.6085 166.3295 37.5365 168.7065 37.4775 170.6325 37.2465 172.3815 36.4665 174.1715 34.9275 177.6975 32.0695 181.4495 28.8965 183.6565 22.4855 188.1155 13.9045 187.2135 6.5295 187.1765 7.2915 181.8765 6.9905 177.0085 6.5315 171.7145 6.1165 166.9215 6.7335 162.2015 6.9745 157.4225 7.2305 152.3395 7.9565 146.7775 7.3915 141.7175 7.1495 139.5495 6.8115 137.4025 6.2705 135.2995 6.0875 134.5895 5.3715 132.2185 5.9025 131.6355 6.3495 131.1455 7.2445 131.3365 7.9325 131.3195 12.4255 131.2125 17.3035 130.6085 21.6855 131.8515 25.3395 132.8875 30.1405 134.8125 32.2045 138.1625 33.3195 139.9725 33.7445 142.1025 34.4505 144.0835 35.2105 146.2135 36.1885 147.8555 36.3085 150.1685 36.4295 152.4785 36.6905 154.3495 37.3675 156.5545 37.8835 158.2375 38.3405 159.8865 38.2175 161.6625M42.8325 154.7895C41.7235 151.5715 42.2355 148.2305 40.9635 145.0925 39.8175 142.2645 39.1015 139.1875 37.7455 136.4545 34.9105 130.7405 28.3535 127.8105 22.4475 126.1925 19.2005 125.3035 15.8805 125.5395 12.5545 125.5645 9.4535 125.5885 5.0615 124.6575 2.2185 126.3245-.2725 127.7845-.1225 131.1155.1355 133.6375.4905 137.0985 1.6115 140.3005 1.6905 143.8185 1.8395 150.5025 1.0935 157.3205.8205 164.0105.5435 170.7795 2.1405 177.5595 1.2025 184.2745.8825 186.5665.3445 189.3415 1.4925 191.5145 2.7145 193.8275 5.2775 192.8135 7.4875 192.8835 14.3505 193.1005 21.9895 193.2365 28.3965 190.4305 34.5025 187.7575 39.4615 182.0145 41.9095 175.8755 43.2985 172.3905 43.1365 168.4345 43.5625 164.7515 43.9545 161.3655 43.9325 158.0465 42.8325 154.7895M468.0222 188.0087C468.2502 184.0447 467.5522 179.9207 467.5642 175.9207 467.5782 170.9167 467.5992 165.9307 467.3952 160.9307 467.1952 156.0427 467.1412 151.1907 467.4542 146.3057 467.7652 141.4637 467.7402 137.0397 467.3762 132.2107 467.2422 130.4307 467.3052 127.8287 465.7552 126.6027 464.1152 125.3067 461.7082 126.0807 461.2162 128.1407 460.7832 129.9567 461.6912 132.9347 461.8292 134.8197 462.0202 137.4497 462.4362 139.8877 462.1932 142.5397 461.2572 152.7897 461.9332 162.8937 461.8592 173.1567 461.8192 178.7247 461.8852 184.2267 462.2842 189.7577 462.4312 191.7987 463.8122 193.7527 466.0902 192.9997 468.4762 192.2107 467.8982 189.9567 468.0222 188.0087M518.311 185.7154C513.469 185.8154 508.508 186.6564 503.679 187.1354 500.855 187.4144 498.22 187.1834 495.392 187.0854 493.804 187.0304 493.502 187.3514 493.222 185.6234 492.984 184.1504 493.047 182.6784 493.087 181.1794 493.155 178.6014 493.412 175.9664 493.332 173.3954 493.28 171.7064 492.867 170.1164 492.859 168.4254 492.852 167.2084 492.484 165.1534 492.93 164.0204 493.297 163.0874 492.625 163.7784 493.577 163.3224 494.609 162.8274 497.203 163.2644 498.378 163.2164 503.086 163.0244 507.833 162.0684 512.538 162.1574 514.748 162.2004 518.357 162.8784 518.786 159.8084 519.161 157.1294 516.59 156.4924 514.501 156.4024 508.596 156.1464 502.642 157.4484 496.74 157.6354 496.068 157.6564 494 157.9574 493.399 157.6234 492.607 157.1824 492.77 156.5764 492.728 155.6784 492.604 153.0404 492.977 150.3974 493.089 147.7594 493.205 145.0514 492.921 142.3284 493.134 139.6344 493.226 138.4704 493.345 137.4404 493.25 136.2644 493.182 135.4304 492.565 133.3454 493.202 132.6764 493.564 132.2964 495.747 132.6354 496.293 132.5944 497.447 132.5084 498.476 132.4244 499.635 132.4804 502.373 132.6124 505.075 132.6114 507.818 132.5674 510.228 132.5284 512.603 132.1564 514.975 132.4584 516.92 132.7054 519.814 132.9994 520.923 130.9474 523.846 125.5404 513.241 126.6084 510.964 126.7414 505.477 127.0624 499.851 127.0524 494.374 126.9364 492.129 126.8884 489.168 126.2064 487.871 128.5844 486.797 130.5514 487.432 133.4564 487.539 135.5714 487.812 140.9834 487.392 146.5324 487.105 151.9474 486.862 156.5344 487.232 161.4734 487.17 166.2224 487.129 169.3204 487.834 172.3944 487.539 175.4394 487.235 178.5714 487.192 181.9044 487.388 185.0494 487.463 186.2654 487.693 187.3514 487.683 188.5604 487.671 190.0604 487.608 191.7164 489.109 192.5854 490.927 193.6364 494.52 192.6404 496.57 192.7874 502.931 193.2424 508.89 191.9704 515.202 191.6534 517.354 191.5464 520.994 192.0224 521.82 189.3494 522.551 186.9834 520.327 185.7154 518.311 185.7154M571.0207 167.7101C568.7177 163.5221 564.0477 160.1201 559.7787 158.1481 554.4947 155.7061 548.6467 155.2461 543.8357 151.6721 540.6927 149.3361 538.1107 142.4131 539.4247 138.7071 541.0647 134.0811 546.2077 131.8841 550.7257 131.2901 555.3047 130.6881 563.4097 130.9821 565.5727 136.0561 566.5087 138.2511 565.4857 141.6011 567.8987 143.0511 569.7937 144.1901 571.8247 142.9021 572.0017 140.8761 573.0547 128.8031 560.2577 124.1601 550.3167 125.4781 545.1637 126.1601 539.9827 128.2541 536.6077 132.3461 532.7927 136.9711 532.9867 141.8241 534.8097 147.2331 535.6937 149.8581 536.6817 152.8501 538.6617 154.8771 540.4477 156.7051 543.0877 157.9561 545.3417 159.1091 550.4207 161.7091 556.3687 162.0021 561.0627 165.4331 565.8307 168.9191 568.1127 173.3391 567.1007 179.3361 566.2457 184.4081 561.3117 188.4951 556.3467 189.0001 551.3127 189.5121 545.1867 188.5881 541.1027 185.4221 539.3307 184.0491 538.1117 182.3911 537.2007 180.3671 536.3497 178.4791 534.6537 176.4681 532.4467 178.2411 528.2117 181.6441 535.6987 188.4441 538.2157 190.3311 543.0197 193.9321 549.6517 194.8871 555.5247 194.6891 568.6667 194.2461 577.4127 179.5001 571.0207 167.7101M442.2036 188.6492C441.9116 182.2362 442.4396 175.7772 442.1396 169.3762 441.9356 165.0092 441.3586 160.6902 441.2786 156.3102 441.2006 152.0122 441.3476 147.7172 441.3666 143.4202 441.3856 139.0512 440.7466 134.5922 440.8536 130.2552 440.8936 128.6502 441.6346 127.4052 440.0776 126.2202 438.8726 125.3032 437.1406 125.4812 436.1546 126.6222 433.9426 129.1802 435.4846 134.8152 435.5626 137.8032 435.6806 142.2832 435.5596 146.7652 435.5216 151.2452 435.4766 156.3772 435.7416 161.4642 436.1906 166.5752 436.3906 168.8512 436.4806 171.0902 436.3936 173.3742 436.2866 176.2052 436.7026 179.0072 436.5936 181.8272 433.5486 175.9512 429.1756 171.1222 426.0906 165.2802 424.5806 162.4222 423.0326 159.6462 421.2266 156.9622 419.2596 154.0372 416.9556 151.5092 414.8626 148.7012 413.1176 146.3632 411.5706 143.7812 409.9376 141.3592 408.2096 138.7982 407.3766 135.8262 405.8306 133.1672 405.1116 131.9302 404.2846 130.6592 403.2906 129.6212 402.5056 128.8002 402.0086 127.8202 401.2596 127.0232 399.4276 125.0752 396.9726 126.4812 396.3076 128.6122 395.4756 131.2792 396.1486 134.6342 395.9106 137.4182 395.5926 141.1332 395.2296 144.8102 395.1636 148.5412 395.0316 155.9362 395.2866 163.3762 395.4586 170.7702 395.6136 177.4232 394.8246 184.1502 395.0876 190.7782 395.1856 193.2372 397.5646 195.8312 399.9376 193.5992 401.7086 191.9322 401.2366 187.1452 401.2756 184.8752 401.4116 177.0612 401.3006 169.2022 401.0536 161.3832 400.7986 153.3122 400.9466 145.6382 401.7666 137.6002 402.4886 139.0532 402.8876 140.6412 403.6286 142.0862 404.3936 143.5772 405.5016 144.8072 406.4746 146.1592 408.2666 148.6482 409.5726 151.3822 411.6166 153.6982 416.1546 158.8412 419.2106 164.7692 422.5546 170.7212 424.2276 173.7002 426.4076 176.1082 428.4066 178.8402 430.3626 181.5132 431.5466 184.6512 433.4306 187.3812 434.7206 189.2502 435.5696 193.6002 438.3426 193.7372 441.3986 193.8882 442.3686 191.0582 442.2036 188.6492M375.1178 160.606C374.9588 163.534 374.7238 166.496 373.9738 169.341 373.1318 172.533 371.5218 175.414 370.0898 178.365 367.7108 183.27 364.6818 186.269 359.3038 187.756 354.1378 189.184 348.1698 188.916 343.1528 186.973 338.6398 185.226 336.4638 179.155 335.3728 174.868 334.6298 171.952 333.6838 169 333.2248 166.025 332.7078 162.676 332.7738 159.119 332.8028 155.734 332.8238 153.287 333.8828 151.249 334.1838 148.828 334.5538 145.854 335.2038 143.215 336.6198 140.539 341.9758 130.414 355.1748 127.126 364.9888 133.13 366.3698 133.975 367.6758 134.961 368.8708 136.053 370.3658 137.419 370.3278 138.034 370.8808 139.86 371.8248 142.976 373.6998 145.627 374.4378 148.867 375.3278 152.775 375.2338 156.645 375.1178 160.606M376.4378 138.568C375.9458 137.325 375.9658 135.969 375.3108 134.775 374.6158 133.507 373.4508 132.532 372.3738 131.599 369.6928 129.277 366.7338 127.227 363.3768 126.025 357.0728 123.768 349.8078 124.079 343.6068 126.527 337.8128 128.813 333.6488 133.438 331.0418 139.012 329.5538 142.194 329.1978 145.051 328.5998 148.444 328.3558 149.83 327.7258 151.072 327.4188 152.44 327.0158 154.24 327.1298 156.089 327.1438 157.919 327.1968 164.822 328.2868 171.153 330.2198 177.791 331.8598 183.424 335.1208 190.07 340.9268 192.247 352.4588 196.573 368.7108 194.423 374.5348 182.358 377.8678 175.453 380.4938 169.032 380.8688 161.264 381.0548 157.421 381.0528 153.349 380.3898 149.548 379.7158 145.688 378.0698 142.099 376.4378 138.568 376.0378 137.557 378.3588 142.725 376.4378 138.568M213.399 159.2989C211.502 159.2989 209.675 158.9079 207.763 158.9979 205.837 159.0889 203.92 159.3259 201.99 159.3119 202.491 155.3559 202.522 150.9739 202.534 146.9839 202.546 142.8899 201.286 138.5219 202.004 134.4839 202.255 133.0739 202.251 133.1449 203.52 132.8639 205.762 132.3689 208.682 132.6629 210.986 132.5749 215.132 132.4179 219.824 132.1539 223.807 133.5759 226.924 134.6889 229.469 138.0909 230.797 141.0069 232.538 144.8289 232.487 148.1899 231.045 152.0469 228.503 158.8479 219.722 159.2239 213.399 159.2989 212.041 159.2989 214.928 159.2809 213.399 159.2989M236.802 187.4959C235.853 185.4739 234.409 183.9029 233.092 182.1409 231.745 180.3389 230.814 178.2319 229.697 176.2889 227.368 172.2359 224.64 168.4029 222.868 164.0529 226.099 163.4379 229.429 162.4269 232.066 160.3939 235.072 158.0779 236.555 154.2049 237.488 150.6249 238.441 146.9649 237.656 143.1189 236.342 139.6379 234.92 135.8699 232.665 133.7779 230.005 131.0129 224.365 125.1519 213.969 126.9959 206.647 127.1769 204.843 127.2219 203.029 127.4149 201.225 127.3569 199.616 127.3059 198.102 126.9919 197.136 128.6039 196.304 129.9939 196.543 132.1049 196.376 133.6599 196.127 135.9819 196.156 138.1789 196.395 140.5049 197.289 149.1849 196.42 158.0389 196.112 166.7519 195.95 171.3449 196.43 175.8589 196.433 180.4379 196.435 182.5929 196.286 184.7359 196.074 186.8789 195.899 188.6449 195.237 191.2309 196.285 192.8179 197.226 194.2429 199.301 194.5249 200.579 193.3409 201.986 192.0389 201.603 189.6559 201.698 187.9399 201.942 183.5539 202.181 179.3599 201.859 174.9589 201.71 172.9199 201.685 170.9249 201.784 168.8829 201.828 167.9769 201.713 166.8629 201.922 165.9849 202.3 164.3989 201.714 165.3209 202.954 165.0209 203.546 164.8769 204.35 165.0299 204.964 165.0109 206.694 164.9579 208.393 164.5969 210.126 164.6979 211.951 164.8059 214.537 164.5009 216.251 164.8919 217.746 165.2329 218.063 167.2709 218.676 168.6639 219.719 171.0349 221.101 173.2059 222.412 175.4339 224.652 179.2399 226.873 183.2829 229.588 186.7559 231.279 188.9189 233.122 194.8649 236.518 194.5849 240.802 194.2309 238.37 189.3289 236.802 187.4959M312.5748 165.9394C313.0928 159.0174 312.8978 152.0914 312.5818 145.1654 312.4018 141.2284 311.8328 136.5724 312.3948 132.6944 312.8418 129.6094 313.1498 127.0824 309.5298 126.1924 305.9088 125.3034 304.5918 128.5174 302.7978 131.1714 301.5338 133.0404 299.9258 134.6364 298.8628 136.6424 297.7478 138.7464 296.8648 140.9124 295.5728 142.9304 294.3898 144.7784 293.5238 146.5464 292.5898 148.5304 291.8368 150.1304 290.7178 151.4034 290.0768 153.0574 288.2918 157.6694 285.1448 161.8024 282.5248 165.9854 280.2348 163.0504 279.1968 159.9324 277.2628 156.7634 274.1808 151.7154 271.4058 146.5944 268.2968 141.5584 265.1178 136.4084 262.2698 129.7784 257.4818 125.8954 255.1318 123.9894 252.3368 125.7474 251.9308 128.3564 251.4568 131.4004 251.8168 134.9104 252.0658 137.9604 252.3208 141.0924 252.8148 143.9464 252.5718 147.1094 252.3018 150.6054 252.1068 153.9304 252.4048 157.4324 252.9028 163.2884 252.2238 169.1384 251.6658 174.9804 251.4248 177.4974 251.2728 179.9804 251.2688 182.5114 251.2648 185.2744 250.7038 190.4524 252.4658 192.8034 253.8508 194.6514 256.6918 194.2354 257.3728 192.0664 258.1018 189.7444 256.9528 186.2244 256.9418 183.7824 256.9078 175.8684 258.6668 167.9284 258.2358 160.0484 258.0058 155.8454 257.8358 151.7344 258.0968 147.5264 258.3568 143.3204 257.5408 139.2484 257.6868 135.0704 260.3348 138.6684 262.3538 142.9214 264.7488 146.7084 266.8858 150.0884 268.6688 153.6174 270.7668 157.0074 272.1948 159.3164 273.2808 161.8274 274.5448 164.2264 275.6098 166.2464 276.8288 168.1994 278.3858 169.8824 279.3428 170.9174 280.6458 172.6764 281.9398 173.2194 285.2538 174.6094 287.4728 168.7694 288.8488 166.6754 291.2088 163.0854 293.5828 159.5684 295.2468 155.5894 296.6158 152.3164 298.3668 149.0494 300.3628 146.1344 301.5178 144.4474 302.4318 142.5484 303.2828 140.6964 304.1858 138.7324 305.3848 137.2354 306.7228 135.5404 306.9828 139.7684 306.9608 144.1634 306.9498 148.4014 306.9378 152.6244 307.4538 156.7734 307.2298 161.0094 307.0108 165.1644 306.8078 169.2944 306.8018 173.4574 306.7958 177.6324 305.9448 181.7064 306.0218 185.8704 306.0648 188.1864 305.3378 193.5514 308.5018 194.2204 312.4848 195.0634 312.1178 189.8664 311.9008 187.5124 311.5498 183.7024 312.4218 180.1364 312.5548 176.3514 312.6768 172.8814 312.3158 169.4074 312.5748 165.9394M189.8552 23.2791C190.2872 23.4331 192.6292 24.3061 193.0812 23.6931 193.3222 23.3671 192.7942 22.3931 192.8282 21.8311 192.8972 20.6701 194.5422 18.7581 194.0152 17.7821 193.0142 15.9281 189.3822 16.6251 188.2552 17.7941 186.1132 20.0171 187.3172 22.3771 189.8552 23.2791M368.3872 23.2791C368.8192 23.4331 371.1612 24.3061 371.6132 23.6931 371.8542 23.3671 371.3262 22.3931 371.3602 21.8311 371.4292 20.6711 373.0752 18.7581 372.5482 17.7821 371.5482 15.9271 367.9142 16.6251 366.7872 17.7941 364.6472 20.0151 365.8502 22.3781 368.3872 23.2791"/>
    <path d="M331.9743,63.2521 C331.7323,65.5471 331.4923,67.5591 330.8723,69.7861 C328.8033,66.0091 323.5583,71.8571 329.5623,72.7381 C327.5673,75.9311 322.7513,79.3691 319.1693,76.2961 C316.1853,73.7361 316.9803,68.6181 317.8383,65.2311 C318.8553,61.2141 319.3963,55.8981 323.6633,53.8251 C329.7313,50.8781 332.4653,58.5331 331.9743,63.2521 C331.8643,64.2921 332.0133,62.8741 331.9743,63.2521 M221.9013,89.4021 C221.3503,90.8601 220.0383,92.6951 218.8133,93.7041 C218.1873,94.2201 215.0533,96.1531 214.2273,95.1811 C213.2723,94.0561 216.3523,90.8551 216.9063,90.3621 C218.5233,88.9251 220.4643,87.8111 222.4813,87.0431 C222.2743,87.8261 222.1393,88.6261 221.9013,89.4021 C221.6333,90.1091 222.1553,88.5761 221.9013,89.4021 M221.8073,48.1581 C220.8953,46.0231 219.8663,41.7041 222.8063,40.4791 C224.5293,39.7621 225.3163,41.7381 225.0753,43.2841 C224.8013,45.0351 222.9143,46.8581 221.8073,48.1581 C221.4133,47.2371 222.7713,47.0261 221.8073,48.1581 M127.8383,19.0691 C129.3013,14.6241 129.6133,9.9071 132.3053,5.9301 C133.1423,4.6941 134.9533,1.6391 136.7453,1.7701 C139.0113,1.9351 138.4203,5.2111 138.0823,6.6751 C137.0873,10.9901 134.6753,14.7331 131.8573,18.0671 C129.8233,20.4741 128.2133,23.0841 126.4903,25.7101 C126.8973,23.5001 127.1343,21.2121 127.8383,19.0691 C128.5223,16.9901 127.2633,20.8201 127.8383,19.0691 M452.4123,53.2421 C453.0153,50.9621 457.6733,38.7911 460.5913,43.3591 C462.0333,45.6171 460.4583,50.3101 458.9873,52.2981 C456.8783,55.1501 453.8383,57.5181 451.2643,59.9431 C451.4343,57.8361 451.8773,55.2871 452.4123,53.2421 C452.5983,52.5411 451.9993,54.8191 452.4123,53.2421 M479.5593,59.4991 C479.0503,57.2731 477.0773,60.6581 476.8103,61.1121 C475.9573,62.5641 474.9983,63.8881 473.9593,65.2151 C471.9323,67.8041 469.7133,69.9611 467.1143,71.9471 C464.4503,73.9821 461.6693,76.2531 458.3583,77.1701 C454.5483,78.2261 453.1593,75.6801 452.1343,72.5301 C451.4123,70.3101 451.0983,68.2081 451.1493,65.8891 C451.1613,65.3281 451.2093,64.7811 451.2083,64.2211 C451.2083,63.9141 451.0873,63.5551 451.1273,63.2491 C451.2993,61.9031 452.1693,61.4891 453.1743,60.5181 C457.7513,56.0981 463.9963,51.2831 462.8863,43.9661 C461.7373,36.3981 451.7603,41.0371 448.2463,43.7341 C442.7773,47.9311 441.1333,54.3661 437.4693,59.9141 C434.8633,63.8601 431.7033,67.6301 428.5713,71.1571 C424.6603,75.5611 421.1023,80.3031 417.2463,84.7611 C415.2393,87.0821 413.5243,89.6131 411.4393,91.8821 C410.7773,92.6021 409.4333,94.4161 408.2143,94.1271 C406.8933,93.8141 406.7403,91.3231 406.7483,90.2291 C406.7843,85.3061 410.0433,80.4501 411.9703,76.1581 C414.5233,70.4721 417.6523,62.3301 412.4453,57.1771 C410.7853,55.5341 405.3893,54.4141 405.1383,52.3621 C404.9653,50.9491 406.6553,48.9531 407.2963,47.8171 C408.0833,46.4211 409.1623,44.9271 409.1083,43.2571 C409.0233,40.6131 405.8003,38.9551 403.3533,39.1661 C399.9033,39.4641 398.1373,42.6441 397.2413,45.5961 C395.8073,50.3191 392.7283,54.7631 389.5263,58.5281 C387.6763,60.7041 386.1103,63.2571 384.3643,65.5431 C382.1083,68.4931 379.5563,71.1861 377.1123,73.9871 C375.2483,76.1241 372.0403,79.1381 368.8433,78.8231 C364.8273,78.4281 365.8563,73.5261 366.4803,70.8471 C367.4943,66.4901 368.1363,62.1141 368.5813,57.6581 C368.9063,54.3951 370.0573,51.1351 370.0273,47.8501 C369.9943,44.3501 368.0453,41.5751 364.9333,40.0561 C363.6333,39.4211 362.4533,38.6551 361.6733,40.0101 C360.8663,41.4111 360.8823,43.8891 360.2393,45.4801 C359.2593,47.9031 357.2843,50.2081 355.7443,52.3451 C354.0753,54.6601 352.3613,56.8621 350.5893,59.1101 C345.7763,65.2131 340.7433,71.1211 332.3453,71.1211 C334.3213,64.9771 335.2433,54.9371 328.3723,51.3591 C320.9623,47.5011 314.0003,51.5691 309.1383,57.3931 C302.8873,64.8801 297.1333,72.7951 290.9743,80.3751 C289.4083,82.3021 287.7053,83.7491 285.8953,85.3931 C283.4233,87.6371 281.6263,90.5261 278.2133,91.5211 C275.3393,92.3591 273.3703,91.5421 272.5883,88.6921 C271.4423,84.5181 271.8183,80.4771 272.0143,76.2141 C272.3913,67.9691 273.6113,59.6011 274.5923,51.4171 C274.9563,48.3851 274.9463,45.3841 275.3783,42.3361 C275.6583,40.3611 275.9263,38.3821 276.2643,36.4161 C276.4133,35.5481 276.4593,34.3421 276.8173,33.5351 C277.5343,31.9201 277.2583,32.2521 279.3163,32.2941 C289.5023,32.5031 299.6763,32.9631 309.8663,32.7441 C314.7033,32.6401 319.5433,32.5361 324.3713,32.2081 C326.9383,32.0341 329.4983,31.8321 332.0693,31.7181 C332.4533,31.7011 334.0293,31.9081 334.3433,31.3631 C334.7133,30.7221 334.5083,29.9491 333.6943,29.8691 C324.2873,29.8801 314.8953,31.0341 305.4753,31.0351 C296.1303,31.0361 286.7953,30.7111 277.4543,30.5291 C277.8093,28.4881 278.0373,26.4271 278.3153,24.3751 C278.4723,23.2211 279.0383,21.8311 278.2563,20.8671 C277.4393,19.8611 274.0093,18.6761 272.7883,19.0331 C271.0173,19.5521 271.1043,23.4231 270.8013,25.0541 C270.5033,26.6551 270.3723,29.8821 268.9243,30.4441 C267.1303,31.1391 263.7163,30.4541 261.7743,30.4651 C256.1373,30.4961 250.5033,30.5071 244.8703,30.7361 C239.5383,30.9541 233.9993,30.7911 228.7103,31.5351 C227.5893,31.6921 225.1743,32.8831 227.5093,33.4971 C228.3563,33.7191 230.0073,33.1151 230.9103,33.0461 C232.2473,32.9451 233.5893,32.9561 234.9283,32.9191 C246.2823,32.6061 257.6123,32.3201 268.9723,32.2311 C268.0323,35.7451 267.5813,39.6391 266.2223,43.0081 C265.5983,44.5541 264.6083,46.0401 263.8203,47.5101 C261.1713,52.4571 257.8393,57.4321 254.1153,61.6441 C251.6543,64.4271 249.1543,67.1091 246.3993,69.6241 C244.5483,71.3151 242.6383,72.9351 240.7153,74.5421 C237.7413,77.0251 234.4413,78.7481 231.2403,80.8631 C234.9893,71.8751 232.4993,62.0521 226.4633,54.7531 C225.4993,53.5881 222.4553,50.8261 222.9343,49.5201 C223.7653,47.2551 226.4433,46.1471 226.8633,43.4711 C227.1123,41.8811 226.4813,39.6171 224.9743,38.7781 C222.9693,37.6621 220.7503,39.2511 219.2193,40.4441 C215.5273,43.3211 213.4443,47.1931 214.6693,51.9541 C215.1343,53.7581 215.2823,53.4081 214.0523,55.0481 C212.4823,57.1441 210.9833,59.2981 209.3893,61.3721 C206.6953,64.8771 203.6873,68.2231 200.7103,71.5091 C199.1653,73.2151 197.8103,75.1971 195.9683,76.6091 C194.3173,77.8751 191.0883,79.5331 189.0633,78.4451 C185.1563,76.3451 188.6103,68.5001 189.0993,65.2411 C189.5183,62.4421 189.8453,59.6291 190.1293,56.8131 C190.3803,54.3141 191.1373,51.9061 191.4133,49.4101 C191.8613,45.3671 190.1113,41.8661 186.3993,40.0561 C184.2173,38.9911 183.4483,38.7701 182.9623,41.1941 C182.5033,43.4861 181.7623,45.7381 180.4403,47.6631 C176.3393,53.6341 171.9533,59.1721 167.2693,64.7071 C164.3413,68.1681 162.0323,72.1491 158.9883,75.5181 C157.3933,77.2831 156.1113,79.2571 154.6323,81.1181 C153.1073,83.0391 151.3633,84.7351 149.9333,86.7491 C148.4593,88.8251 146.7543,91.5291 144.6703,93.0371 C141.8603,95.0711 140.7483,92.8671 140.6573,90.1971 C140.4613,84.4001 142.0683,78.6411 141.4953,72.8141 C141.0093,67.8721 137.9523,62.6971 132.3163,62.8571 C129.8513,62.9271 127.9763,64.9421 126.3113,66.5481 C124.3093,68.4771 122.1163,70.4131 120.3043,72.5171 C120.6783,59.1871 122.8273,46.1331 125.1353,33.0311 C125.4733,31.1111 125.8043,29.9831 126.8743,28.3971 C127.9443,26.8131 128.9463,25.1811 129.9853,23.5761 C132.9863,18.9411 136.8663,15.2071 138.9393,9.9751 C139.9013,7.5491 141.1133,3.8071 139.4123,1.4011 C137.6643,-1.0719 134.4343,0.2171 132.4213,1.5441 C127.4663,4.8111 123.9563,10.5071 121.7733,15.9151 C120.6843,18.6111 119.7673,21.5181 118.8843,24.2871 C118.1063,26.7241 117.9063,30.0931 116.6373,32.3011 C115.4713,34.3301 111.7693,36.3041 109.8853,37.6411 C107.2893,39.4841 104.8663,41.5551 102.2623,43.3781 C100.7443,44.4411 99.1593,45.4461 97.5993,46.4481 C96.7803,46.9731 94.6543,47.6961 94.1473,48.4731 C93.0383,50.1711 95.0723,50.0541 96.1303,49.4981 C97.5333,48.7611 98.8323,47.6851 100.1423,46.7951 C105.5323,43.1311 110.8013,39.2971 115.9533,35.2971 C115.3593,37.9121 114.7823,40.5271 114.2453,43.1551 C113.1553,48.4881 112.6123,53.7291 111.9713,59.1141 C111.2173,65.4571 110.3023,72.7271 111.6553,79.0711 C112.3283,82.2261 115.9953,80.0911 117.8593,78.8401 C119.1043,78.0041 119.3893,77.3921 120.0503,76.1431 C120.8403,74.6481 121.8523,73.4121 123.0723,72.2101 C124.3663,70.9361 125.6943,69.6961 126.9853,68.4181 C127.8763,67.5361 128.9933,66.0211 130.2063,65.5971 C133.7343,64.3651 132.6503,70.1491 132.4283,71.9901 C131.6933,78.1061 129.5673,86.3351 133.4133,91.7261 C135.3633,94.4601 136.9203,96.4321 140.5313,96.5201 C143.9873,96.6031 145.9513,94.4931 148.0163,92.0191 C151.9993,87.2501 155.5223,82.0531 159.5913,77.3791 C164.1133,72.1851 168.1533,66.6161 172.5713,61.3561 C175.9043,57.3851 178.4623,52.8891 181.6983,48.8831 C180.2073,54.2981 177.9253,59.7861 178.3413,65.5571 C178.8093,72.0631 182.9723,79.8671 190.0933,80.9431 C193.1663,81.4081 196.5383,78.5471 198.5273,76.5031 C200.9293,74.0371 203.2673,71.4771 205.4843,68.8431 C209.1373,64.5061 212.5263,59.9991 215.9443,55.4481 C218.0563,60.7491 220.5183,66.3841 221.1853,72.0441 C221.4033,73.8951 221.7263,75.7601 222.0423,77.6011 C222.3613,79.4651 223.6283,82.5161 222.8473,84.3911 C222.2713,85.7711 219.5113,86.3871 218.1993,87.2381 C216.3613,88.4301 214.4193,89.9601 213.3293,91.9041 C210.1973,97.4911 216.2003,97.7091 219.7483,95.3431 C223.5143,92.8301 226.2563,89.6371 228.6553,85.8071 C229.1153,85.0731 229.4943,84.2201 230.1133,83.6391 C231.7123,82.1401 234.2413,81.3851 236.0683,80.1801 C240.0663,77.5441 244.0433,74.3861 247.4953,71.0671 C254.1583,64.6601 260.4463,57.5601 264.8623,49.3531 C263.7243,55.4241 263.3133,61.6951 262.7273,67.8481 C262.3003,72.3361 261.9893,76.8601 262.6533,81.3351 C263.6653,88.1591 269.4603,95.7531 277.0883,94.3101 C282.8283,93.2251 287.7543,86.8531 291.2213,82.7161 C294.3553,78.9771 297.1783,74.9221 300.4463,71.3101 C302.9873,68.5021 304.9623,65.2141 307.4773,62.4231 C305.2103,69.3731 308.8613,77.2781 315.7633,79.6521 C318.9863,80.7601 322.1403,80.8661 325.1703,79.1391 C326.6363,78.3041 327.9453,77.4761 329.0713,76.2191 C329.8653,75.3321 330.6693,73.4451 331.7943,72.9611 C333.1783,72.3671 335.4183,72.7451 336.9483,72.4221 C339.0383,71.9791 340.7003,71.2461 342.4003,69.9721 C345.2953,67.8021 347.4713,65.5761 349.7783,62.8411 C352.0943,60.0951 354.4563,57.3471 356.4553,54.3701 C357.6583,52.5781 358.8863,50.5491 360.2313,48.8831 C358.5813,54.8421 356.0493,60.8991 357.1303,67.2361 C357.7813,71.0581 359.1863,74.6561 362.0453,77.3941 C364.3633,79.6151 368.3263,81.9581 371.5353,80.4871 C377.3603,77.8161 381.8143,71.7041 385.6513,66.7421 C387.4293,64.4421 389.0053,61.9321 390.8503,59.6671 C392.8403,57.2251 395.9813,54.1421 396.8413,50.9951 C398.0003,54.8631 402.6063,54.9101 405.1893,57.2931 C407.6413,59.5551 405.9383,63.5931 405.0573,66.2591 C403.4823,71.0251 402.1263,75.4781 401.4333,80.4911 C400.7493,85.4401 400.7843,96.2561 408.1983,95.9101 C411.4463,95.7581 414.6133,91.2071 416.3973,88.8741 C418.9183,85.5771 421.5303,82.3111 424.2333,79.1571 C429.6703,72.8111 434.7043,66.2821 439.7633,59.6401 C439.3473,65.3901 440.9153,70.0091 444.4643,74.5701 C447.8863,78.9661 452.2353,80.4421 457.7113,79.5341 C462.3453,78.7661 467.5863,74.3331 470.8773,71.1441 C472.7863,69.2931 474.5383,67.3901 476.1303,65.2441 C477.2363,63.7521 479.4923,61.4041 479.5593,59.4991"/>
  </g>
</svg>
