<svg xmlns="http://www.w3.org/2000/svg" width="118" height="25" viewBox="0 0 118 25">
  <path fill="#000000" fill-rule="evenodd" d="M72.115,8.6784 C71.444,8.0344 71.34,6.2664 71.787,5.5054 C72.314,4.6074 73.837,4.1544 74.808,4.7014 C76.276,5.5284 75.457,7.1884 74.657,8.1874 C73.814,9.0294 72.824,9.3584 72.115,8.6784 Z M69.952,15.5374 C70.051,14.8794 71.337,12.5564 72.197,12.6104 C74.192,12.7354 74.527,18.0154 71.705,18.0154 C70.365,18.0154 69.774,16.7234 69.952,15.5374 Z M60.717,2.2904 C62.833,2.2974 63.314,4.2344 62.777,5.9244 C62.145,7.9114 60.4196245,8.9214 58.8776245,10.1534 C57.4226245,7.9734 56.689,2.2784 60.717,2.2904 Z M54.321,19.4894 C54.318,17.0064 56.39,14.9494 58.257,13.5934 C59.831,15.9504 62.448,20.7154 58.257,22.1104 C56.145,22.8134 54.324,21.7394 54.321,19.4894 Z M43.989,12.7744 C42.928,11.4484 42.303,8.2534 44.329,7.3624 C45.948,6.6504 47.05,8.5854 46.941,9.9894 C46.443,11.3154 45.006,11.9274 43.989,12.7744 Z M41.33,20.1964 C40.669,18.5144 42.516,16.6754 43.661,15.7224 C44.49,16.7574 45.383,18.0964 45.301,19.4894 C45.032,21.3694 42.107,22.1744 41.33,20.1964 Z M100.077,5.6454 C96.383,6.1894 92.447,5.9044 88.843,6.8364 C84.959,7.8404 81.102,8.0964 77.117,8.5154 C79.406,5.4664 76.683,1.8344 73.187,2.3454 C69.458,2.8894 68.851,6.4674 70.065,9.4974 C67.386,9.8254 64.708,10.1534 62.029,10.4804 C64.212,8.6974 65.983,6.1534 65.097,3.1974 C64.49,1.1714 62.664,-0.1056 60.569,0.0064 C55.34,0.2874 53.972,7.4754 56.617,11.1354 C53.671,11.5774 50.727,12.1774 47.761,12.4464 C50.983,10.3004 48.053,4.5134 44.52,5.1304 C40.755,5.7884 40.301,10.6484 41.693,13.4294 C31.913,15.2894 21.621,16.2264 11.681,16.7724 C8.802,16.9304 2.713,17.3484 2.497,13.2654 C2.435,12.0934 2.787,10.7774 3.812,10.0964 C4.91,9.3664 7.618,10.7354 7.636,8.7604 C7.655,6.6484 4.324,7.2184 3.202,7.7024 C1.552,8.4124 0.509,9.7204 0.162,11.4854 C-0.67,15.7174 1.783,17.9634 5.592,18.8274 C10.604,19.9654 16.274,18.8664 21.383,18.4094 C27.623,17.8514 33.865,17.1894 40.053,16.2134 C38.191,19.0044 39.333,23.8994 43.333,23.7484 C48.074,23.5704 48.152,18.1534 45.957,15.2314 C48.732,14.7274 51.536,14.5124 54.321,14.0844 C51.226,17.5614 51.084,25.0384 57.301,24.7104 C63.712,24.3714 63.522,17.2674 60.717,13.2654 C63.654,12.7764 66.615,12.4474 69.573,12.1184 C67.016,14.6724 67.093,20.1094 71.705,20.1454 C77.094,20.1874 76.045,14.4684 74.165,11.4634 C77.563,11.0004 80.952,10.5234 84.365,10.1824 C87.628,9.8564 90.702,8.8904 93.984,8.6304 C98.337,8.2854 102.634,7.8924 106.992,7.6144 C108.782,7.5004 111.737,7.6414 113.323,8.4614 C114.856,9.2544 115.372,11.4304 114.181,12.7744 C112.877,14.2454 112.457,13.2254 111.065,12.9134 C109.907,12.6534 108.208,13.3794 109.212,14.8004 C109.907,15.7834 112.86,16.1014 113.812,15.8244 C117.396,14.7854 118.657,9.2984 115.493,7.0404 C112.08,4.1994 104.219,5.0354 100.077,5.6454 Z"/>
</svg>
