<svg xmlns="http://www.w3.org/2000/svg" width="118" height="25" viewBox="0 0 118 25">
  <path fill="#17243E" fill-rule="evenodd" d="M74.6200014,8.19101978 C74.2920014,8.51862714 73.8000013,8.68243083 73.4720013,9.01003819 C72.9800013,9.01003819 72.6520013,9.01003819 72.3240013,9.17384187 L71.8320013,8.19101978 C71.6680013,7.86341242 71.5040013,7.37200138 71.5040013,6.88059033 C71.5040013,5.89776825 71.8320013,4.91494616 72.4880013,4.75114248 C73.4720013,4.42353512 74.7840014,4.42353512 75.2760014,5.07874984 C76.0960014,6.06157193 75.2760014,7.37200138 74.6200014,8.19101978 L74.6200014,8.19101978 Z M71.6680013,18.0192406 C70.6840013,18.0192406 69.8640013,17.3640259 69.8640013,15.8897928 C69.8640013,14.4155597 71.1760013,13.4327376 72.1600013,12.6137192 C72.9800013,13.4327376 73.8000013,14.743167 73.8000013,15.8897928 C73.8000013,17.2002222 72.3240013,18.0192406 71.6680013,18.0192406 L71.6680013,18.0192406 Z M58.7120011,10.156664 C58.0560011,9.17384187 57.564001,7.37200138 57.564001,5.89776825 L57.564001,5.57016089 C57.7280011,3.93212408 58.8760011,2.29408727 60.6800011,2.29408727 C61.9920011,2.29408727 62.9760011,3.11310567 62.9760011,4.42353512 C62.9760011,5.73396457 62.4840011,6.88059033 61.5000011,8.0272161 C60.0240011,9.01003819 59.5320011,9.50144923 58.7120011,10.156664 L58.7120011,10.156664 Z M58.2200011,22.1143327 C57.7280011,22.2781363 57.236001,22.2781363 56.744001,22.2781363 C55.432001,22.2781363 54.284001,21.6229216 54.284001,19.4934738 C54.284001,17.0364186 56.416001,14.9069707 58.2200011,13.5965413 C59.2040011,15.0707744 60.5160011,16.8726149 60.5160011,18.838259 C60.5160011,20.4762959 59.6960011,21.6229216 58.2200011,22.1143327 L58.2200011,22.1143327 Z M46.9040009,9.99286027 C46.4120008,11.3032897 44.9360008,11.9585044 43.9520008,12.7775228 C43.2960008,11.9585044 42.9680008,11.139486 42.9680008,10.156664 C42.9680008,9.66525291 43.1320008,9.01003819 43.2960008,8.51862714 C43.6240008,7.69960874 44.2800008,7.2081977 44.9360008,7.2081977 C45.2640008,7.2081977 45.5920008,7.2081977 45.9200008,7.53580506 C46.4120008,8.0272161 46.9040009,8.84623451 46.9040009,9.50144923 L46.9040009,9.99286027 Z M45.2640008,19.4934738 C45.1000008,20.6400995 44.2800008,21.2953143 43.4600008,21.2953143 C42.3120008,21.4591179 41.1640007,20.8039032 41.1640007,19.4934738 C41.1640007,19.1658664 41.1640007,19.0020627 41.3280008,18.838259 C41.6560008,17.5278296 42.6400008,16.5450075 43.6240008,15.7259891 C44.2800008,16.5450075 45.2640008,18.0192406 45.2640008,19.1658664 L45.2640008,19.4934738 Z M115.456002,7.04439402 C114.472002,6.22537561 113.324002,5.89776825 112.176002,5.73396457 C110.700002,5.57016089 109.224002,5.24255352 107.912002,5.24255352 L106.928002,5.24255352 L104.632002,5.24255352 C103.648002,5.24255352 102.828002,5.24255352 101.844002,5.40635721 C100.040002,5.57016089 98.2360018,6.06157193 96.4320018,6.06157193 C94.6280017,6.22537561 93.1520017,6.38917929 91.3480017,6.38917929 C89.7080016,6.38917929 87.9040016,7.2081977 86.2640016,7.53580506 C83.3120015,8.0272161 80.1960015,8.19101978 77.0800014,8.51862714 C77.5720014,7.86341242 77.9000014,7.04439402 77.9000014,6.06157193 C77.9000014,4.75114248 77.2440014,3.44071303 76.0960014,2.78549831 C75.4400014,2.45789095 74.7840014,2.29408727 73.9640013,2.29408727 C73.1440013,2.29408727 72.3240013,2.45789095 71.6680013,2.78549831 C70.0280013,3.44071303 69.3720013,5.07874984 69.3720013,6.88059033 C69.3720013,7.86341242 69.7000013,8.68243083 70.0280013,9.50144923 L61.9920011,10.4842713 C63.7960012,9.01003819 65.2720012,7.37200138 65.2720012,4.75114248 C65.2720012,1.63887254 62.9760011,0.000835733066 61.0080011,0.000835733066 C60.5160011,0.000835733066 57.072001,-0.162967948 55.596001,4.09592776 C55.432001,4.5873388 55.268001,5.24255352 55.268001,5.89776825 C55.268001,6.88059033 55.596001,7.86341242 55.760001,8.84623451 C56.088001,9.50144923 56.088001,10.3204676 56.416001,10.9756824 C56.416001,11.139486 56.580001,11.139486 56.580001,11.139486 L53.300001,11.6308971 C51.4960009,11.9585044 49.5280009,12.2861118 47.7240009,12.4499155 C48.2160009,12.1223081 48.5440009,11.4670934 48.8720009,10.8118787 C49.0360009,10.4842713 49.0360009,9.99286027 49.0360009,9.50144923 C49.0360009,8.35482346 48.5440009,7.2081977 47.7240009,6.38917929 C46.9040009,5.40635721 45.9200008,5.07874984 45.1000008,5.07874984 C42.8040008,5.07874984 40.8360007,7.37200138 40.8360007,10.3204676 C40.8360007,11.4670934 41.1640007,12.4499155 41.6560008,13.4327376 C38.2120007,14.0879523 34.6040006,14.5793633 31.1600006,14.9069707 C27.3880005,15.2345781 23.7800004,15.7259891 20.0080004,16.0535965 C16.2360003,16.3812038 12.3000002,16.8726149 8.52800016,16.8726149 C7.05200013,16.8726149 5.7400001,16.3812038 4.42800008,16.0535965 C2.95200005,15.5621854 2.46000004,14.5793633 2.46000004,13.2689339 L2.46000004,12.9413265 C2.46000004,11.3032897 3.28000006,9.82905659 5.08400009,9.66525291 C5.5760001,9.66525291 6.06800011,9.99286027 6.56000012,9.99286027 C6.72400012,9.99286027 6.88800013,9.82905659 7.21600013,9.66525291 C7.70800014,9.17384187 7.87200014,8.35482346 7.21600013,7.86341242 C6.72400012,7.37200138 6.06800011,7.2081977 5.4120001,7.2081977 C4.42800008,7.2081977 3.44400006,7.53580506 2.78800005,7.86341242 C0.820000015,8.84623451 0,10.648075 0,12.9413265 C0,15.7259891 1.31200002,18.0192406 4.26400008,18.5106517 C5.7400001,18.838259 7.05200013,19.3296701 8.52800016,19.3296701 L9.18400017,19.3296701 C10.9880002,19.1658664 12.7920002,19.0020627 14.7600003,19.0020627 L25.7480005,18.0192406 C29.3560005,17.5278296 33.1280006,17.2002222 36.9000007,16.7088112 L40.0160007,16.2174002 C39.6880007,16.7088112 39.5240007,17.2002222 39.3600007,17.6916333 C39.1960007,18.1830443 39.0320007,18.6744554 39.0320007,19.1658664 C38.8680007,21.4591179 40.8360007,23.7523695 43.2960008,23.7523695 C43.6240008,23.7523695 44.1160008,23.5885658 44.6080008,23.4247621 C46.0840008,22.9333511 47.5600009,21.1315106 47.5600009,19.4934738 C47.3960009,18.0192406 46.9040009,16.5450075 45.9200008,15.2345781 L47.7240009,14.9069707 C49.8560009,14.5793633 52.152001,14.4155597 54.284001,14.0879523 C52.972001,15.5621854 51.9880009,17.5278296 51.9880009,19.4934738 C51.9880009,22.44194 53.956001,24.7351916 56.908001,24.7351916 C60.0240011,24.7351916 62.8120011,22.2781363 62.8120011,18.838259 C62.8120011,16.8726149 61.8280011,14.9069707 60.6800011,13.2689339 C63.6320012,12.7775228 66.5840012,12.4499155 69.5360013,12.1223081 C68.7160013,12.9413265 67.8960012,13.9241486 67.7320012,15.0707744 C67.2400012,17.855437 69.2080013,20.1486885 71.6680013,20.1486885 C72.3240013,20.1486885 73.1440013,19.9848848 73.9640013,19.4934738 C75.2760014,18.6744554 75.9320014,17.3640259 75.9320014,16.0535965 C75.9320014,14.4155597 74.9480014,12.7775228 74.1280014,11.4670934 L81.3440015,10.4842713 L86.2640016,9.99286027 C87.9040016,9.82905659 89.5440016,9.01003819 91.1840017,8.84623451 C92.6600017,8.84623451 94.3000017,8.51862714 95.7760017,8.51862714 C97.5800018,8.51862714 99.2200018,8.19101978 101.024002,7.86341242 C102.664002,7.69960874 104.304002,7.86341242 105.944002,7.69960874 C106.600002,7.69960874 107.256002,7.53580506 108.076002,7.53580506 L108.404002,7.53580506 L110.864002,8.0272161 C111.848002,8.19101978 113.160002,8.19101978 113.980002,8.84623451 C114.472002,9.50144923 114.800002,10.156664 114.800002,10.9756824 C114.800002,11.6308971 114.636002,12.2861118 114.144002,12.7775228 C113.816002,13.1051302 113.160002,13.5965413 112.668002,13.5965413 L112.340002,13.5965413 C111.684002,13.2689339 111.028002,12.7775228 110.372002,12.7775228 C109.552002,12.7775228 108.896002,13.2689339 108.896002,14.0879523 C108.896002,15.0707744 109.716002,15.0707744 111.520002,15.7259891 C113.160002,16.3812038 114.472002,15.7259891 115.784002,14.5793633 C116.768002,13.5965413 117.260002,12.2861118 117.260002,10.9756824 C117.260002,9.50144923 116.604002,7.86341242 115.456002,7.04439402 L115.456002,7.04439402 Z"/>
</svg>
