<svg xmlns="http://www.w3.org/2000/svg" width="37" height="34" viewBox="0 0 37 34">
  <path fill="#BBA569" fill-rule="evenodd" d="M53.3156622,30.615963 L23.5337073,30.615963 L23.5337073,52.2764604 L53.3156622,52.2764604 L53.3156622,30.615963 Z M27.9483979,33.4083285 C27.5944361,33.4083285 27.2994679,33.5656449 27.0634933,33.7721226 C26.8373511,34.0080972 26.6800347,34.3227299 26.6800347,34.6766917 L26.6800347,48.2157316 C26.6800347,48.5598612 26.8373511,48.8744939 27.0438288,49.1006362 C27.2994679,49.3267785 27.6042684,49.4840949 27.9483979,49.4840949 L43.4047311,49.4840949 C43.7390283,49.4840949 44.0634933,49.3267785 44.2896356,49.1006362 C44.5157779,48.8744939 44.6534297,48.5598612 44.6534297,48.2157316 L44.6534297,34.6766917 C44.6534297,34.3227299 44.5157779,34.0277617 44.2896356,33.7917872 C44.0634933,33.5656449 43.7390283,33.4083285 43.4047311,33.4083285 L27.9483979,33.4083285 Z M43.4047311,31.7860035 C44.1913129,31.7860035 44.9189011,32.1006362 45.4400116,32.6414112 C45.961122,33.1920185 46.2757548,33.8901099 46.2757548,34.6766917 L46.2757548,48.2157316 C46.2757548,49.0023135 45.961122,49.7200694 45.4400116,50.2510121 C44.9189011,50.7721226 44.1913129,51.0965876 43.4047311,51.0965876 L27.9483979,51.0965876 C27.1618161,51.0965876 26.4440602,50.7721226 25.9131174,50.2510121 C25.3723424,49.6905726 25.0675419,49.0023135 25.0675419,48.2157316 L25.0675419,34.6766917 C25.0675419,33.8802776 25.3920069,33.1625217 25.9131174,32.6414112 C26.4440602,32.1006362 27.1618161,31.7860035 27.9483979,31.7860035 L43.4047311,31.7860035 Z M49.382753,47.0653557 C49.1271139,47.0653557 48.9206362,47.183343 48.7436553,47.3308271 C48.5863389,47.4881434 48.4978485,47.7142857 48.4978485,47.9699248 C48.4978485,48.1960671 48.5765067,48.4123771 48.7239907,48.5598612 L48.7436553,48.5991903 C48.9206362,48.7565067 49.1271139,48.8646617 49.382753,48.8646617 C49.6088953,48.8646617 49.8252053,48.7761712 49.9825217,48.6286871 L50.0120185,48.5991903 C50.1791671,48.4320416 50.2774899,48.2157316 50.2774899,47.9699248 C50.2774899,47.7142857 50.1791671,47.4979757 50.0120185,47.3308271 C49.8547021,47.183343 49.6285599,47.0653557 49.382753,47.0653557 Z M51.1525622,46.1804511 C51.614679,46.642568 51.8899826,47.2718334 51.8899826,47.9699248 C51.8899826,48.6581839 51.614679,49.2874494 51.1623944,49.739734 L51.1034008,49.7888953 C50.6511163,50.2215153 50.0513476,50.4869867 49.382753,50.4869867 C48.6846617,50.4869867 48.0553962,50.2018508 47.6129439,49.739734 L47.5539503,49.6905726 C47.1311625,49.2579526 46.8656912,48.6286871 46.8656912,47.9699248 C46.8656912,47.2718334 47.1508271,46.642568 47.6129439,46.1804511 C48.0553962,45.7379988 48.6846617,45.4430307 49.382753,45.4430307 C50.0710121,45.4430307 50.7002776,45.7379988 51.1525622,46.1804511 Z M50.7396067,41.9919028 C50.7396067,42.7391556 50.1300058,43.3487565 49.382753,43.3487565 C48.625668,43.3487565 48.0357316,42.7391556 48.0357316,41.9919028 C48.0357316,41.2446501 48.625668,40.6350492 49.382753,40.6350492 C50.1300058,40.6350492 50.7396067,41.2446501 50.7396067,41.9919028 Z M50.7396067,37.1052632 C50.7396067,37.8623482 50.1300058,38.4719491 49.382753,38.4719491 C48.625668,38.4719491 48.0357316,37.8623482 48.0357316,37.1052632 C48.0357316,36.3678427 48.625668,35.768074 49.382753,35.768074 C50.1300058,35.768074 50.7396067,36.3678427 50.7396067,37.1052632 Z M29.6985425,27.9120879 L24.1728051,22.3765182 C23.8581724,22.0717178 23.8581724,21.5604396 24.1728051,21.2359746 C24.4874378,20.9213418 25.0085483,20.9213418 25.3133488,21.2359746 L31.193048,27.0960093 L37.0432504,21.2359746 C37.3578832,20.9213418 37.8789936,20.9213418 38.1936264,21.2359746 C38.4984268,21.5604396 38.4984268,22.0717178 38.1936264,22.3765182 L32.667889,27.9120879 L54.6823482,27.9120879 C55.4099364,27.9120879 56.0195373,28.5118566 56.0195373,29.2591093 L56.0195373,53.6333141 C56.0195373,54.3707345 55.4099364,55 54.6823482,55 L22.1866859,55 C21.4296009,55 20.82,54.3707345 20.82,53.6333141 L20.82,29.2591093 C20.82,28.5118566 21.4296009,27.9120879 22.1866859,27.9120879 L29.6985425,27.9120879 Z" transform="translate(-20 -21)"/>
</svg>
