<svg xmlns="http://www.w3.org/2000/svg" width="39" height="32" viewBox="0 0 39 32">
  <g fill="#BBA569" fill-rule="evenodd">
    <path d="M10.6180508 13.3014179L.581522505 23.3379462.581522505 31.753019 38.6793456 31.753019 38.6793456 24.0659179 25.446456 10.8330283 16.8101109 19.493478 10.6180508 13.3014179zM21.1571085 23.8789703L19.0247803 21.5003662 25.4775078 15.1067208 35.6793456 25.3009033 35.697876 28.753019 3.5815225 28.7739258 3.59459008 24.5698109 10.6370327 17.5630405 18.8538906 25.7798985 21.1571085 23.8789703zM16.8154297 5.5C16.8154297 2.46243388 14.3529958 0 11.3154297 0 8.27786356 0 5.81542969 2.46243388 5.81542969 5.5 5.81542969 8.53756612 8.27786356 11 11.3154297 11 14.3529958 11 16.8154297 8.53756612 16.8154297 5.5zM7.81542969 5.5C7.81542969 3.56700338 9.38243306 2 11.3154297 2 13.2484263 2 14.8154297 3.56700338 14.8154297 5.5 14.8154297 7.43299662 13.2484263 9 11.3154297 9 9.38243306 9 7.81542969 7.43299662 7.81542969 5.5z"/>
  </g>
</svg>
