<svg xmlns="http://www.w3.org/2000/svg" width="29" height="34" viewBox="0 0 29 34">
  <path fill="#BBA569" fill-rule="evenodd" d="M43.3686667,45.2675846 C42.2376667,45.2675846 41.2226667,45.605 40.517,46.1737859 C39.8983333,46.6461675 39.502,47.3017174 39.502,47.9765482 C39.502,48.6803003 39.8983333,49.3165694 40.517,49.7889509 C41.2226667,50.3577369 42.2376667,50.6951523 43.3686667,50.6951523 C44.519,50.6951523 45.5243333,50.3577369 46.23,49.8082318 C46.839,49.3165694 47.2353333,48.6899408 47.2353333,48.01511 L47.2353333,47.9765482 C47.2353333,47.2824365 46.839,46.6461675 46.23,46.1737859 C45.5243333,45.605 44.519,45.2675846 43.3686667,45.2675846 Z M27.525,48.9020304 C26.3746667,48.9020304 25.3693333,49.2394458 24.654,49.8082318 C24.0256667,50.2902538 23.639,50.9361633 23.639,51.6206345 C23.639,52.3147462 24.0256667,52.9510152 24.654,53.4330372 C25.3693333,53.9921827 26.3746667,54.3392386 27.525,54.3392386 C28.6656667,54.3392386 29.6613333,53.9921827 30.367,53.4426777 C31.005,52.9510152 31.382,52.3147462 31.382,51.6206345 C31.382,50.9361633 31.005,50.2902538 30.367,49.8082318 C29.6613333,49.2394458 28.6656667,48.9020304 27.525,48.9020304 Z M31.382,47.3017174 L31.382,28.0401184 C31.382,28.0401184 31.4131286,27.5176392 31.7758789,27.177124 C32.1386292,26.8366089 32.397,26.7579399 32.4646667,26.738659 L48.2503333,23.0367301 C48.9366667,22.882483 49.416687,23.2457886 49.6571655,23.5183716 C49.897644,23.7909546 49.9033333,24.2610659 49.9033333,24.3863917 L49.9033333,47.9765482 C49.8936667,49.5672208 49.13,50.9168824 47.8636667,51.8809264 C46.7036667,52.7871277 45.1086667,53.3462733 43.3686667,53.3462733 C41.6286667,53.3462733 40.0433333,52.7871277 38.893,51.8809264 C37.617,50.9168824 36.834,49.528659 36.834,47.9765482 C36.834,46.4340778 37.617,45.0651353 38.893,44.0818105 C40.0433333,43.1659687 41.6286667,42.6068232 43.3686667,42.6068232 C44.8186667,42.6068232 46.1623333,43.0117216 47.2353333,43.6479907 L47.2353333,29.8043189 L34.0306667,32.8989001 L34.0306667,51.6206345 C34.0113333,53.2016667 33.2476667,54.5609687 32.0103333,55.5250127 C30.831,56.4215736 29.2456667,57 27.525,57 C25.7946667,57 24.19,56.4215736 23.0203333,55.5250127 C21.7636667,54.5513283 21,53.1823858 21,51.6206345 C21,50.0781641 21.7636667,48.6995812 23.0396667,47.7162563 C24.19,46.810055 25.7946667,46.2509095 27.525,46.2509095 C28.9653333,46.2509095 30.2993333,46.6461675 31.382,47.3017174 Z M34.0306667,31.2600253 L47.2353333,28.1654441 L47.2353333,25.9867047 L34.0306667,29.0909264 L34.0306667,31.2600253 Z" transform="translate(-21 -23)"/>
</svg>
