<svg xmlns="http://www.w3.org/2000/svg" width="158" height="54" viewBox="0 0 158 54">
  <g fill="#BBA569" fill-rule="evenodd">
    <path d="M46.1156857 46.7619079C45.5554629 46.7331376 45.0187143 46.7232478 44.4819657 46.7232478 43.0974343 46.7232478 41.70884 46.7870819 40.3274686 46.7673023 40.46696 46.3649672 40.5567943 45.9491461 40.6895143 45.5445633 40.8168171 45.1557143 41.0348571 44.7817 41.1973714 44.405438 41.5860514 43.5041175 41.9016 42.571779 42.2532629 41.6560733 42.5539143 40.8716322 42.9128 40.1119157 43.2748457 39.3539973 43.6386971 38.5929321 43.7637429 37.782418 44.1835714 37.0456278L44.2765657 37.2542127 44.2129143 37.1072143C44.5402 37.8610868 44.8823829 38.5821432 45.1076457 39.3778227 45.3378743 40.1905846 45.4696914 41.0181811 45.6362686 41.844429 45.7924629 42.6198794 46.0804743 43.4214028 46.4253657 44.1343675 46.6109029 44.5182716 46.8221714 44.8594698 46.9395429 45.2734928 47.0686514 45.7293228 47.1490057 46.1972902 47.2844343 46.6513219 46.7982457 46.7803389 45.9603943 46.7619079 46.1156857 46.7619079L46.1156857 46.7619079zM50.6696971 52.2948021C50.4340514 51.7243404 50.4150914 51.3080697 50.1916343 50.7308649 50.0751657 50.4296755 50.0869029 50.1046607 50.0146743 49.7922329 49.9298057 49.423613 49.8043086 49.0635344 49.6702343 48.7101987 49.5411257 48.3703492 49.3980229 48.0358941 49.2481486 47.7041362 49.0919543 47.3575437 49.0743486 46.9767863 48.9362114 46.6247993 48.6698686 45.9459993 48.5917714 45.2150531 48.3502571 44.5290605 48.1322171 43.9100489 47.7787486 43.350376 47.5498743 42.732713 47.2943657 42.0444727 47.1323029 41.3710672 47.0086114 40.6473136 46.7689029 39.2488058 46.2926457 37.9999936 45.7364857 36.7102736 45.4972286 36.1627382 45.2299829 35.6277899 44.9704114 35.0892453 44.8191829 34.7741203 44.55284 34.5569942 44.2287143 34.5569942 43.6052914 34.5569942 43.3407543 35.1921891 43.1290343 35.6525144 42.8807486 36.1928572 42.5444343 36.6967875 42.3367771 37.2546622 42.14492 37.7693814 42.05644 38.2818529 41.8104114 38.7781411 41.5734114 39.2555488 41.3540171 39.7536352 41.1346229 40.239584 40.6416629 41.3337557 40.3333371 42.5034494 39.8448914 43.5985201 39.5988629 44.1510004 39.3067886 44.6967376 39.1280229 45.27619 38.9334571 45.9073392 38.7533371 46.5362406 38.5362 47.1615458 38.1312686 48.324946 37.6523029 49.4335028 37.3209543 50.6256734 37.1810114 51.1296037 36.9864457 51.6160021 36.8808114 52.1289232 36.7562171 52.2858114 36.6925657 52.4773139 36.6925657 52.6661192 36.6925657 52.8931351 36.7851086 53.1165547 36.9765143 53.2711952 37.1327086 53.3970654 37.3042514 53.4573033 37.4735371 53.4573033 37.6879657 53.4573033 37.8987829 53.360653 38.0698743 53.181288 38.35608 52.8805481 38.3289943 52.5231666 38.4739029 52.1761245L38.5149829 52.0682358C38.83008 51.3453812 38.9036629 50.7277182 39.13344 49.9769924 39.2381714 49.6357942 39.3568971 49.3026877 39.4959371 48.9740766 39.5717771 48.7947116 39.6480686 48.6157961 39.7216514 48.4359815 39.7681486 48.3226983 39.8873257 48.2934785 40.0254629 48.2934785 40.1717257 48.2934785 40.3387543 48.3262946 40.4619943 48.3276432 41.1486171 48.3352854 41.8379486 48.3379826 42.5281829 48.3379826 43.89872 48.3379826 45.2715143 48.3276432 46.6312171 48.3276432 46.8131429 48.3258451 46.9946171 48.3141572 47.1765429 48.2768456 47.3665943 48.237736 47.5530343 48.1837916 47.7421829 48.139737 47.8121543 48.3015701 47.8907029 48.459807 47.9633829 48.620741 48.1240914 49.0001497 48.2748686 49.3849529 48.39224 49.7800954 48.52496 50.2282832 48.5159314 50.7034432 48.6748343 51.1399431 48.8107143 51.5126088 48.9307943 51.885724 49.0395886 52.2669309 49.1343886 52.5995878 49.2120343 53.113408 49.4941771 53.3444697 49.6557886 53.4775325 49.8309429 53.5350731 49.9984229 53.5350731 50.41464 53.5350731 50.7825543 53.1772421 50.7825543 52.737146L50.7816514 52.737146C50.7816514 52.552836 50.7071657 52.4422501 50.6696971 52.2948021L50.6696971 52.2948021zM33.1745829 34.6923046L33.0621771 34.685112C32.2333543 34.6941028 32.2500571 35.64712 32.2306457 36.2378108 32.2171029 36.6522834 32.2405771 37.0685541 32.2428343 37.4834762 32.24464 37.8210781 32.1570629 38.1519369 32.1186914 38.486392 32.1037943 38.6190052 32.0974743 38.752068 32.0974743 38.8851308 32.0974743 39.3535477 32.1706057 39.8251114 32.1706057 40.2917302 32.1706057 40.4481689 32.16248 40.6041581 32.14036 40.7587986 32.0532343 41.4524333 31.9819086 42.214847 31.9877771 42.9143257 31.8293257 42.8882526 31.6735829 42.8783628 31.5182914 42.8783628 30.9865086 42.8783628 30.4696229 42.9929946 29.9297143 42.9435456 28.8738229 42.7983453 27.8030343 42.7426028 26.74308 42.7426028 26.1174 42.7426028 25.4935257 42.7682264 24.8664914 42.7848592 24.7599543 42.788006 24.6529657 42.7893546 24.5459771 42.7902537 24.0494057 42.7934004 23.5523829 42.7772171 23.0562629 42.7772171 22.8084286 42.7772171 22.5610457 42.7812629 22.3136629 42.7934004 22.3100514 42.4315236 22.2983143 42.0665 22.2983143 41.701926 22.2983143 41.1872068 22.3213371 40.6738362 22.4197486 40.171704 22.6274057 39.1103485 22.6030286 37.97437 22.6030286 36.9139136 22.6030286 36.59744 22.5917429 36.2769205 22.5222229 35.973933 22.4495429 35.6570098 22.4346457 35.2344455 22.2098343 34.9822556 22.0432571 34.795698 21.8459829 34.7156805 21.6536743 34.7156805 21.2076629 34.7156805 20.7905429 35.1454373 20.8519371 35.66645 20.9196514 36.2427557 21.0320571 36.7426402 21.0320571 37.3656977 21.0320571 37.7680328 21.0180629 38.171267 21.0004571 38.5731525 20.9647943 39.405694 20.7476571 40.2189053 20.7476571 41.0491991 20.7476571 41.6079729 20.7806114 42.1874253 20.7806114 42.7619329 20.7806114 43.1453874 20.7670686 43.5261448 20.7210229 43.8979114 20.6961943 44.0993037 20.6858114 44.3051914 20.6858114 44.5128772 20.6858114 45.1233477 20.777 45.7509005 20.8677371 46.3424904 20.9115257 46.793825 20.7544286 47.2824711 20.7553314 47.7392001 20.7557829 48.102875 20.78332 48.4741921 20.78332 48.8419129 20.78332 49.0442043 20.7747429 49.2455966 20.7490114 49.4438422 20.6898743 49.9005712 20.6840057 50.3532543 20.6122286 50.8090843 20.5729543 51.0617237 20.5869486 51.3143632 20.5576057 51.5652045 20.5264571 51.8286329 20.4194686 52.0803733 20.4194686 52.3375081 20.4194686 52.7515311 20.7720343 53.1098117 21.19096 53.1192519 21.7191314 53.1304903 22.0270057 52.6679174 22.0807257 52.1977023 22.1267714 51.793569 22.0974286 51.3799955 22.1732686 50.9799081 22.2292457 50.682315 22.2730343 50.3847219 22.2901886 50.0821839 22.2960571 49.9747447 22.3393943 49.1484967 22.3393943 48.7960602 22.3393943 48.4867791 22.32856 48.176599 22.32856 47.8695656 22.3263029 47.417332 22.4468343 46.9376766 22.4477371 46.5020759 22.4477371 46.4072237 22.44232 46.312821 22.4292286 46.219767 22.34752 45.6412136 22.3086971 45.084238 22.2924457 44.4993911 22.2865771 44.2791183 22.3940171 44.3537413 22.5822629 44.3546404 22.7294286 44.3550899 22.8765943 44.3591358 23.02376 44.3586862 23.3180914 44.3573376 23.6119714 44.3514936 24.0056171 44.3514936 24.8299257 44.3514936 25.9390857 44.3568881 26.9340343 44.3236224 27.3795943 44.3236224 27.8256057 44.331714 28.2729714 44.3564385 28.9248343 44.3924014 29.5830171 44.5218679 30.2375886 44.5218679 30.5346286 44.5218679 30.8253486 44.4782629 31.1178743 44.4310616 31.4329714 44.4000436 31.71692 44.4661254 32.0275029 44.4890518 31.9733314 45.0248992 31.7670286 45.5360221 31.7670286 46.0804107 31.7670286 46.4368931 31.8428686 46.7893296 31.8428686 47.1444634 31.8428686 47.460937 31.7945657 47.7738144 31.7945657 48.0911871 31.7945657 48.7299783 31.8871086 49.3737145 31.8871086 50.0107076 31.8871086 50.7214247 31.7846343 51.423151 31.7846343 52.1361158 31.7846343 52.6279086 31.9417314 53.1273436 32.5850171 53.1273436 33.09784 53.1273436 33.3398057 52.6458901 33.3519943 52.1747759 33.3691486 51.503618 33.4576286 50.8383041 33.4576286 50.1689444 33.4576286 49.5153185 33.4088743 48.8643897 33.3723086 48.2125619 33.3673429 48.1244528 33.3646343 48.0367932 33.3637314 47.9495831 33.3592171 47.6047887 33.3786286 47.263141 33.3786286 46.9187961 33.3786286 46.7398806 33.3736629 46.5600661 33.35696 46.3784533 33.2887943 45.6281771 33.6147257 44.924203 33.6147257 44.1653856 33.6147257 43.7459681 33.5587486 43.3355413 33.5587486 42.9125276 33.5587486 42.7713731 33.5614571 42.627971 33.5664229 42.4836698 33.5822229 42.0148033 33.6214971 41.5337994 33.6725086 41.0766208 33.6955314 40.8693845 33.7032057 40.6648455 33.7032057 40.4607559 33.7032057 40.0247056 33.6675429 39.5922516 33.6675429 39.1449628 33.6675429 38.6554177 33.7646 38.2036336 33.7989086 37.7068958 33.8061314 37.6026034 33.8101943 37.4983109 33.812 37.3940185 33.8169657 37.0883337 33.8038743 36.7830985 33.8038743 36.4774137 33.8038743 36.2872598 33.8092914 36.0971059 33.8268971 35.906952 33.8761029 35.3863889 33.8192229 34.7826614 33.1745829 34.6923046L33.1745829 34.6923046zM16.97552 34.0899258C16.9245086 33.5999311 16.8098457 33.0330657 16.5082914 32.6896199 16.3597714 32.518796 16.1534686 32.4405767 15.9467143 32.4405767 15.5512629 32.4405767 15.1535543 32.7264819 15.1535543 33.1926511 15.1535543 33.3621264 15.21856 33.5154183 15.2781486 33.6992787 15.3774629 34.0085597 15.4325371 34.3187399 15.44292 34.6433052 15.4487886 34.8154776 15.4849029 34.9629256 15.4849029 35.1175661 15.4849029 35.184547 15.47768 35.2528765 15.45872 35.3252519 15.4095143 35.5023693 15.35128 35.665551 15.3034286 35.8318794 15.2718286 35.9424654 15.2235257 36.3722222 15.1919257 36.4787624 15.0750057 36.8779507 14.7233429 37.3238908 14.5504457 37.5999062 14.3820629 37.869628 14.0990171 37.9694251 14.0990171 38.3861454 14.0990171 38.6441793 14.2290286 38.8918738 14.45068 39.0339273 14.5969429 39.1269814 14.7391429 39.1669901 14.8750229 39.1669901 15.3034286 39.1669901 15.6681829 38.7700495 15.8988629 38.4014296 16.2401429 37.8552429 16.5642686 37.3018635 16.7150457 36.6833014 16.74168 36.5736145 16.7619943 36.3920018 16.8125543 36.1982516 16.8730457 36.0040519 16.9543029 35.8165952 17.00396 35.6196983 17.0396229 35.480342 17.05136 35.3441324 17.05136 35.2106201L17.0509086 35.2119687C17.0509086 34.949889 16.9877086 34.209053 16.97552 34.0899258L16.97552 34.0899258zM10.511108 44.5416475C10.4831194 45.0177066 10.3774851 45.4838759 10.3395651 45.9576873 10.3052566 46.3847469 10.3517537 46.8261916 10.2664337 47.2478568 10.065548 48.2372864 9.35409657 49.152093 8.70539371 49.8992226 7.420628 51.3790965 5.41357657 51.5638559 3.50313086 51.5638559 2.914468 51.5638559 2.33528514 51.546324 1.78860514 51.5436268 1.87257086 50.9610276 1.96150229 50.4328223 1.96150229 49.8398838 1.96150229 49.157937 1.94344514 48.5061092 1.84864514 47.830456 1.77506229 47.3053974 1.74571943 46.7632565 1.74571943 46.2179688 1.74571943 45.4649953 1.80124514 44.7057283 1.86986229 43.9761307 1.98271943 42.7803639 1.88791943 41.5823493 2.04185657 40.3915273 2.064428 40.2166577 2.07435943 40.0341459 2.07435943 39.8484873 2.07435943 39.4173819 2.02199371 38.9696436 1.95518229 38.5677581 1.90733086 38.2814034 1.87392514 38.0004431 1.83284514 37.7136389 1.79221657 37.4268347 1.63557086 37.1876813 1.62157657 36.8954826 1.61209657 36.697237 1.61615943 36.499441 1.61615943 36.3011955 1.61615943 36.2351136 1.64008514 36.2256733 1.79402229 36.2229761 2.13259371 36.2166826 2.47116514 36.2063433 2.80973657 36.1987012 3.52795943 36.1834169 4.25295371 36.1559952 4.97117657 36.1883618 6.03745086 36.2369118 7.14525657 36.7884929 8.058948 37.3045608 8.63271371 37.6286765 8.950068 38.1438452 9.15953086 38.7552148 9.38795371 39.4218773 9.528348 40.0260542 9.88587943 40.640121 10.0619366 41.1961975 9.92515371 41.8304934 10.0583251 42.4054505 10.214068 43.078856 10.536388 43.6735927 10.5178794 44.3807135L10.5183309 44.381163 10.511108 44.5416475 10.511108 44.5416475zM11.781428 42.6553927C11.6672166 42.3249835 11.5466851 42.004464 11.5295309 41.6754033 11.5141823 41.3764616 11.5313366 41.0766208 11.5010909 40.7785782 11.4333766 40.116411 11.0284451 39.6533885 10.8758623 39.0303311 10.5842394 37.8363623 10.059228 36.6752098 8.96406229 36.0184371 8.43137657 35.6988167 7.84135943 35.468654 7.275268 35.215565 6.62656514 34.9251645 5.98057086 34.6994972 5.26686229 34.6451033 5.01090229 34.6253237 4.753588 34.6190302 4.49582229 34.6190302 4.05929086 34.6190302 3.62140514 34.6370116 3.18532514 34.6370116 2.80025657 34.6370116 2.39035943 34.6113881 1.98813657 34.6113881 1.69109657 34.6113881 1.39857086 34.6253237 1.12319943 34.6734241.616696571 34.7615332.200028 35.0002371.0754337143 35.5315891.0226165714 35.7568069.0000451428571 36.0220334.0000451428571 36.2931038.0000451428571 36.666219.042028 37.0510222.103422286 37.3598537.208153714 37.8889581.387822286 38.3955856.420325143 38.9413228.439736571 39.2685854.460050857 39.5693252.460050857 39.8709642.460050857 40.1182092.446508 40.3663533.407685143 40.6315798.394593714 40.7187898.389176571 40.8055504.386919429 40.8927604.383308 41.0276214.388273714 41.1624823.388273714 41.2973432.388273714 41.3854524.386468 41.4735615.378342286 41.5616706.344485143 41.942428.322816571 42.3132955.322816571 42.7007959.322816571 43.3629631.280382286 44.0066992.242462286 44.6706645.213570857 45.1862828.194159429 45.701002.194159429 46.2148221.194159429 47.04107.244719429 47.8641712.389628 48.6823275.423936571 49.1296162.391433714 49.5863452.391433714 50.0354321.391433714 50.6121873.215828 51.1098241.215828 51.7032122.215828 52.299747.378342286 53.1601597.957976571 53.1700495 1.06090229 53.1700495 1.17782229 53.1462241 1.31009086 53.0940779 1.49291943 53.0221521 1.57282229 53.1071144 1.76874229 53.1080135 2.05223943 53.1093621 2.336188 53.1120593 2.61968514 53.1147566 3.18758229 53.1192519 3.75547943 53.1210501 4.32247371 53.0972246 5.42441086 53.0513719 6.56020514 52.9237036 7.59533086 52.5240657 9.38208514 51.8340273 10.7878337 50.1779351 11.5272737 48.442275 11.9182109 47.5252207 11.8058051 46.6185058 11.9452966 45.6605437 12.012108 45.2038147 12.0554451 44.7731588 12.0554451 44.3487964 12.0554451 43.787775 11.9796051 43.2384415 11.7809766 42.6553927L11.781428 42.6553927 11.781428 42.6553927zM128.819702 51.7719913L128.819251 51.7719913C128.847691 51.2959322 128.745668 50.8580837 128.743862 50.3847219 128.734834 50.1316329 128.676148 49.8915804 128.676148 49.633097 128.676148 49.6133174 128.676148 49.5935378 128.677051 49.5733087 128.689239 49.2469452 128.693302 48.9214809 128.693302 48.5946679 128.693302 47.8475384 128.703234 47.1004088 128.703234 46.3510316 128.703234 45.0091654 128.590828 43.6726936 128.590828 42.3290293 128.590828 41.0874097 128.692399 39.8516341 128.794874 38.6145099 128.844531 38.0148283 128.713165 37.4007615 128.663959 36.801979 128.622879 36.2975992 128.635068 35.6417255 128.408902 35.1769049 128.272119 34.8963942 127.987268 34.734561 127.696097 34.734561 127.549834 34.734561 127.402217 34.7754689 127.270399 34.8631285 127.008571 35.0379981 126.930022 35.2740048 126.930022 35.5293414 126.930022 35.7968156 127.016245 36.085418 127.068159 36.3470482 127.106531 36.8981798 127.107434 37.4533573 127.209457 37.9981954 127.243765 38.1811568 127.256857 38.3776042 127.256857 38.579446 127.256857 39.0492116 127.185531 39.5490961 127.143548 39.9802015 127.055519 40.8860174 127.026628 41.7918333 127.026628 42.6980987 127.026628 44.362732 127.123234 46.0282645 127.123234 47.6960446 127.123234 47.8870976 127.117365 48.0848936 127.109691 48.2862859 127.094794 48.6674928 127.073577 49.0617362 127.073577 49.4496861 127.073577 49.7787468 127.091182 50.1028626 127.147159 50.410795 127.218034 50.8005431 127.288005 51.1844472 127.262274 51.5827365 127.251891 51.7463677 127.233834 51.9360721 127.233834 52.1257764 127.233834 52.3802141 127.265885 52.6360003 127.389125 52.8324477 127.540354 53.0729497 127.787285 53.1866824 128.034668 53.1866824 128.436439 53.1866824 128.839114 52.8881902 128.839114 52.3487465 128.839114 52.1855648 128.817445 52.0169886 128.817445 51.8574032 128.817445 51.8286329 128.817897 51.8003121 128.819702 51.7719913L128.819702 51.7719913zM142.662263 51.1426403L142.662714 51.1435394C142.308343 51.1435394 142.088046 51.2051259 141.730063 51.2388411 141.287663 51.2801984 140.708029 51.3008771 140.2724 51.3647113 139.811943 51.4330408 139.364577 51.4869852 138.899154 51.5099116 138.546137 51.5269939 138.195377 51.6065619 137.841909 51.6065619 137.381 51.6065619 136.921897 51.5355351 136.457377 51.5215995 136.24972 51.515306 136.042514 51.509462 135.835309 51.5072143 135.824023 51.3224549 135.773011 51.164218 135.719291 50.9902475 135.672794 50.2642461 135.763531 49.5315018 135.723806 48.8050509 135.761726 48.497568 135.790166 48.1927823 135.790166 47.8897948 135.790166 47.5476976 135.7536 47.2073985 135.661509 46.8495675 135.656091 46.7003214 135.639389 44.997927 135.708006 44.997927 136.87224 44.9970279 138.067171 44.9430836 139.240886 44.8221583 139.581714 44.7870944 140.476897 44.6729122 140.792446 44.6729122 141.16668 44.6729122 141.541366 44.7030311 141.911537 44.7030311 142.142217 44.7030311 142.365223 44.6688663 142.550309 44.5020883 142.726817 44.343402 142.80672 44.1361657 142.80672 43.9307275 142.80672 43.5652544 142.553017 43.2069739 142.135446 43.1453874 141.876326 43.1076264 141.614046 43.0927917 141.350411 43.0927917 140.786577 43.0927917 140.219583 43.1602221 139.676063 43.2074235 138.792617 43.2847437 137.9024 43.3548714 137.019406 43.4209532 136.823486 43.4362375 136.626211 43.4402833 136.428486 43.4402833 136.220829 43.4402833 136.01272 43.4353384 135.805063 43.4330907 135.586571 43.4303935 135.64616 43.2015795 135.628554 43.0114256 135.615011 42.8621795 135.60508 42.7129334 135.60508 42.5632378 135.60508 42.5407609 135.60508 42.5178346 135.605531 42.4953578 135.667829 41.6120187 135.74096 40.726432 135.74096 39.8403957 135.74096 39.5014452 135.7062 39.1656415 135.7062 38.8253425 135.7062 38.5286484 135.784749 38.2467891 135.784749 37.9487464 135.784749 37.5279803 135.695366 37.1135078 135.681371 36.6949894 135.711617 36.5129271 135.87368 36.5906969 136.036646 36.5884492 136.31924 36.5844034 136.602286 36.5713669 136.883074 36.5358535 136.965234 36.5241655 137.060937 36.5196702 137.164766 36.5196702 137.536291 36.5196702 138.012097 36.5781099 138.343897 36.5781099 138.915857 36.5781099 139.488269 36.5578808 140.059777 36.5533854 140.34508 36.5506882 140.637154 36.542147 140.920651 36.5142757 141.046149 36.5016887 141.203697 36.4607809 141.342737 36.4607809 141.38156 36.4607809 141.419029 36.4639276 141.453789 36.4720193 141.68176 36.530459 141.996406 36.5682201 142.298863 36.5682201 142.531349 36.5682201 142.756611 36.5457433 142.92996 36.492698 143.256794 36.3924514 143.481154 36.0620421 143.481154 35.7271375 143.481154 35.1652169 142.980971 34.9503385 142.513743 34.9503385 142.068634 34.9521367 141.600503 34.8716697 141.160811 34.9170728 140.638509 34.9705677 140.121623 34.9827052 139.597063 34.9880996 139.022394 34.9939436 138.44908 35.0200167 137.874411 35.0069801 137.586851 35.0006866 137.302451 34.9615769 137.01444 34.9615769 136.771571 34.9615769 136.532314 35.0173195 136.288091 35.0182185 136.019943 35.0186681 135.67144 34.974164 135.33964 34.974164 135.072394 34.974164 134.815983 35.0033838 134.621417 35.1085753 134.165023 35.3553708 134.139743 35.8727873 134.139743 36.3286172 134.139743 36.8658132 134.210166 37.3715417 134.210166 37.9141321 134.210166 38.2876969 134.143354 38.6522709 134.143354 39.0267348 134.143354 39.3175848 134.1736 39.6133798 134.1736 39.9096243 134.1736 40.2791432 134.155994 40.6504603 134.13252 41.0154839 134.115366 41.2793618 134.090086 41.5423406 134.076091 41.8057689 134.072931 41.8592637 134.052166 42.2863233 134.070223 42.1703429 134.042686 42.3551024 134.031851 42.5407609 134.031851 42.7273186 134.031851 43.4533199 134.193463 44.1883119 134.127554 44.9147628 134.075189 45.5000592 134.092343 46.0835575 134.092343 46.6782941 134.092794 46.7884306 134.095954 46.8976679 134.104983 47.0069053 134.128006 47.2707831 134.240411 47.5112851 134.240411 47.7787593 134.240411 48.1442324 134.143354 48.5016138 134.143354 48.8639402 134.143354 49.5220615 134.147417 50.1896231 134.147417 50.8486435 134.147417 50.9969905 134.152383 51.144888 134.177663 51.2927855 134.200234 51.4244996 134.267046 51.5485717 134.261629 51.6802859 134.23996 51.8349264 134.21784 52.0075484 134.21784 52.1792713 134.21784 52.4350575 134.266594 52.6881465 134.435429 52.8751537 134.611937 53.070702 134.82772 53.1291417 135.0584 53.1291417 135.170354 53.1291417 135.28592 53.1156556 135.401937 53.0972246 135.602371 53.0657571 135.811383 53.0540691 136.022651 53.0540691 136.372057 53.0540691 136.727783 53.0859862 137.06184 53.1147566 137.325023 53.1376829 137.590011 53.1475727 137.856354 53.1475727 138.67028 53.1475727 139.49188 53.052271 140.290006 52.9228045 140.837137 52.8342458 141.391491 52.793338 141.944943 52.7645677 142.36432 52.7425404 143.016634 52.7973839 143.362429 52.5186713 143.570086 52.3509942 143.659017 52.1401616 143.659017 51.9338244 143.659017 51.4734991 143.349789 51.1426403 142.662263 51.1426403L142.662263 51.1426403zM157.171222 46.201336L157.171674 46.2004369C157.021348 45.9266692 156.838068 45.6740298 156.620931 45.4483625 155.695051 44.485006 154.652702 43.7306838 153.388251 43.3027252 152.778371 43.0959384 152.149982 42.9552335 151.536942 42.7587861 150.919388 42.5605405 150.424171 42.2274341 149.866657 41.912309 149.293342 41.5890923 149.073497 41.1395559 148.848234 40.5344799 148.636062 39.9581742 148.327285 39.2780256 148.368817 38.6540691 148.565188 37.4304309 149.659902 36.6819528 150.780348 36.3704241 151.311228 36.2225266 151.855199 36.153298 152.399171 36.153298 153.033428 36.153298 153.667685 36.2472511 154.283885 36.4198731 154.781359 36.5592294 155.260325 36.8617674 155.553754 37.2942214 155.894131 37.7954545 155.737034 38.3892921 155.925279 38.9309835 156.048519 39.2879154 156.348268 39.5486465 156.704445 39.5486465 156.801502 39.5486465 156.903525 39.5293165 157.006451 39.4870601 157.362628 39.3423093 157.441177 39.1054036 157.441177 38.8370304 157.441177 38.6441793 157.400548 38.4346953 157.393777 38.2315048 157.354502 37.0110135 156.728822 35.9492085 155.668417 35.3279491 154.768719 34.8001934 153.634279 34.5453062 152.485845 34.5453062 151.047142 34.5453062 149.585868 34.9449441 148.536297 35.7096055 147.556245 36.4234694 146.796942 37.5747321 146.796942 38.8109573 146.796942 39.4277213 147.013628 40.0017793 147.203679 40.5816812 147.397342 41.1759684 147.638405 41.7796958 147.970657 42.3114974 148.277177 42.7996939 148.716868 43.0572783 149.203959 43.3382385 149.816548 43.6915742 150.371805 44.023332 151.052559 44.244504 152.222662 44.6239127 153.429782 44.8136171 154.430148 45.5764804 154.885639 45.9248711 155.409297 46.3231604 155.720782 46.8118064 156.064319 47.3512501 156.136097 48.0278025 156.136097 48.6594011 156.136097 49.1471481 156.108559 49.6497299 155.867948 50.0857802 155.577228 50.6166827 155.035062 51.2581712 154.524497 51.5930758 153.975559 51.9540535 153.305639 52.0673367 152.625337 52.0673367 152.050668 52.0673367 151.468325 51.9864202 150.945571 51.9059531 149.782691 51.7274872 148.680754 51.1053288 148.046948 50.083982 147.795502 49.6780506 147.798211 49.1165797 147.269137 48.9511503 147.192394 48.9273248 147.115199 48.9160864 147.040262 48.9160864 146.618628 48.9160864 146.252971 49.2707707 146.252971 49.7234538 146.252971 50.77447 147.386959 51.830431 148.141297 52.4094339 149.225177 53.2388286 150.487371 53.4555052 151.817279 53.571036 152.091297 53.5944119 152.373439 53.6092466 152.657839 53.6092466 153.647371 53.6092466 154.663537 53.4316797 155.464822 52.8436861 156.428171 52.1352167 157.365788 51.0221645 157.604142 49.8331407 157.682691 49.4397963 157.725125 49.0226266 157.725125 48.6014109 157.725125 47.763475 157.556742 46.9102549 157.171222 46.201336L157.171222 46.201336zM121.712862 51.94776C121.698868 51.6411762 121.694805 51.33684 121.694805 51.0329534 121.694805 50.6400586 121.701577 50.2489619 121.701577 49.8565166 121.701577 49.7508755 121.701125 49.644785 121.699771 49.5391439 121.696611 49.2851558 121.660948 48.2512221 121.670428 48.0107201 121.683519 47.6933474 121.705639 47.3773233 121.705639 47.0612992 121.705639 46.9268878 121.701577 46.7924764 121.695257 46.6585145 121.664559 46.0305122 121.573822 45.4065556 121.530034 44.7794523 121.470445 43.9248836 121.451034 43.0730121 121.451034 42.2197919 121.451034 41.6610182 121.459159 41.1022444 121.469994 40.542122 121.478119 40.1231541 121.483085 39.7032871 121.483085 39.2834201 121.483085 38.326357 121.458708 37.3679454 121.396411 36.4153777 121.387382 36.2796177 121.341337 36.085418 121.341337 35.9222363 121.341337 35.8678424 121.346754 35.8170447 121.360297 35.7729902 121.389188 35.6322853 121.430719 35.5163049 121.430719 35.3836916 121.430719 35.3391875 121.425754 35.2933348 121.414468 35.2434363 121.331405 34.8766146 120.998702 34.6504977 120.647942 34.6504977 119.961771 34.6504977 119.784811 35.3355912 119.784811 35.8619984 119.784811 36.5286609 119.863811 37.1953234 119.881868 37.8664813 119.893154 38.2912932 119.897668 38.7156556 119.897668 39.1395684 119.897668 40.2359877 119.869679 41.3310584 119.869679 42.4333217 119.869679 43.6866293 119.968091 44.9295975 120.084108 46.1779601 120.114805 46.5065712 120.128799 46.8311365 120.128799 47.1566009 120.128799 47.4555426 120.117062 47.7549339 120.095394 48.0574719 120.047091 48.731327 120.194708 49.4015858 120.168525 50.0754408 119.844399 49.4519338 119.560902 48.8180875 119.123919 48.2606623 118.649017 47.6542377 118.158314 47.1017574 117.768731 46.4314986 117.376891 45.7576435 117.040577 45.0536695 116.654154 44.3771172 116.258251 43.6848311 115.780188 43.0330033 115.339142 42.3685885 114.955879 41.7913837 114.415971 41.3526362 114.038125 40.7736333 113.669759 40.2090155 113.291914 39.5513438 112.905039 39.0698903 112.431491 38.4787499 112.245502 37.795005 111.919119 37.1265443 111.636977 36.5497891 111.127314 35.7860267 110.716965 35.4875345 110.617199 35.4138106 110.568445 35.1701618 110.442497 35.0353009 110.293525 34.876165 110.081805 34.7867073 109.865119 34.7867073 109.835777 34.7867073 109.805982 34.7885054 109.776188 34.7916522 109.108977 34.8685229 108.987091 35.6246432 109.018239 36.1708299 109.090919 37.4349263 108.856628 38.6266474 108.797942 39.8822026 108.769502 40.4899758 108.757765 41.0919051 108.757765 41.6929353 108.757765 42.4913119 108.778531 43.2874409 108.807874 44.0939093 108.857982 45.4708393 108.799748 46.8441731 108.897708 48.2197545 108.941497 48.8297754 108.830445 49.4321542 108.830445 50.040377 108.830445 50.1410732 108.830445 50.2399712 108.829994 50.3366215 108.827285 50.8900008 108.815097 51.3889863 108.778982 51.9464114 108.766794 52.1293727 108.743771 52.3325632 108.743771 52.5321574 108.743771 52.8747041 108.812388 53.2055629 109.124777 53.4029094 109.252982 53.4842755 109.394279 53.521587 109.533771 53.521587 109.868279 53.521587 110.191502 53.3049105 110.294428 52.9578684 110.432114 52.4943963 110.329639 51.9338244 110.408639 51.4487746 110.437531 51.2703086 110.447011 51.0913931 110.447011 50.9120281 110.447011 50.5519494 110.408188 50.1900726 110.408188 49.8290949 110.408188 49.6843442 110.412702 49.5391439 110.419022 49.3943932 110.435274 49.0199293 110.464165 48.6454655 110.464165 48.2701026 110.464165 47.294159 110.401417 46.3141696 110.401417 45.3323821 110.401417 44.0781755 110.286754 42.8307119 110.286754 41.5783035 110.286754 40.3551149 110.457845 39.1512564 110.581988 37.9379576 110.798674 38.3726593 110.911079 38.8514156 111.149434 39.2775761 111.393657 39.7145255 111.747125 40.0741546 112.020691 40.4913244 112.301028 40.918384 112.538479 41.3724158 112.833262 41.7895856 113.117211 42.1910216 113.457588 42.5313207 113.789388 42.8913993 114.110354 43.2402396 114.326588 43.6987668 114.598348 44.0867167 114.908028 44.528611 115.198748 44.9763493 115.458319 45.4497111 115.988297 46.4144163 116.447851 47.4236255 117.127251 48.2975243 117.433319 48.6908687 117.784531 49.0415071 118.057645 49.4600255 118.346108 49.9023693 118.563697 50.3770798 118.802954 50.8459463 119.038599 51.3076202 119.410577 51.6811849 119.637194 52.1451065 119.764948 52.4624792 119.943262 52.9493272 120.210508 53.1745449 120.355417 53.2963693 120.503034 53.3440201 120.650199 53.3440201 120.880879 53.3440201 121.111108 53.2275902 121.332308 53.0985733 121.763422 52.8459338 121.734982 52.3820122 121.714217 51.9468609L121.712862 51.94776 121.712862 51.94776zM103.246725 44.2516965C103.188491 45.3197951 103.086017 46.417563 102.680182 47.4119376 102.468011 47.9257577 102.216565 48.4197982 101.965571 48.9151873 101.685234 49.4726125 101.468097 50.0642024 101.027954 50.521381 100.000051 51.5858832 98.302228 51.9576498 96.9551651 51.9576498 96.6044051 51.9576498 96.2581594 51.9207878 95.9064966 51.8241375 95.3516909 51.6712951 94.7391023 51.6492678 94.2204109 51.3903349 93.6024051 51.0801547 93.3879766 50.5910591 93.0421823 50.02779 92.6783309 49.435301 92.4661594 48.8401148 92.3063537 48.1658101 92.162348 47.5450003 91.9921594 46.9340804 91.8328051 46.3173164 91.6581023 45.6439108 91.6246966 44.9660099 91.6246966 44.2737238 91.6246966 43.8273342 91.5989651 43.368807 91.5989651 42.9147752 91.5989651 42.7372084 91.6034794 42.560091 91.6165709 42.3843223 91.6436566 42.1842786 91.7542566 42.0166015 91.827388 41.8300439 91.9452109 41.5297535 91.9686851 41.2191239 91.9871937 40.9008521 92.0526509 39.8309554 92.5659251 38.7583615 93.1730966 37.8930039 94.0005651 36.7992818 95.2835251 36.0535009 96.6766337 35.9577496 96.9176966 35.9411168 97.1596623 35.9316765 97.4007251 35.9316765 98.3870966 35.9316765 99.3617309 36.0908124 100.234794 36.579908 100.831582 36.9143631 101.433788 37.3800829 101.900114 37.8808664 102.035994 38.0827083 102.012519 38.4221083 102.106868 38.65317 102.237782 38.9736895 102.399845 39.2771266 102.554685 39.5864076 103.085565 40.6522585 103.268394 41.8785938 103.281034 43.0730121L103.281485 43.0725625 103.246725 44.2516965 103.246725 44.2516965zM103.610125 38.2036336C103.499977 37.9262696 103.502685 37.6246307 103.389828 37.3499639 103.287805 37.0914805 103.109942 36.8694095 102.913571 36.6765584 102.436862 36.2144349 101.900114 35.7950175 101.350274 35.4268471 100.245628 34.6896074 98.8904394 34.3479597 97.5307366 34.3479597 96.3281309 34.3479597 95.1214623 34.6154339 94.0818223 35.1117221 92.9505423 35.6525144 92.0472337 36.6271094 91.4337423 37.7055472 91.1145823 38.2670182 90.8491423 38.8806354 90.6599937 39.4978489 90.4803251 40.0849435 90.5326909 40.7151936 90.3593423 41.2914992 90.1444623 41.7972277 90.0361194 42.2161957 90.0361194 42.7538412 90.0361194 43.1764054 90.0442451 43.5985201 90.0442451 44.0210844 90.0442451 44.1267254 90.0446966 44.2323665 90.0455994 44.3380075 90.0478566 44.5753628 90.0528223 44.8122685 90.0654623 45.0491742 90.1363366 46.3816001 90.5530051 47.682109 90.8879651 48.9677831 91.1403137 49.9369836 91.6508794 50.7128835 92.1366166 51.5719476 92.6051994 52.3995441 93.5504909 52.9398869 94.4695994 53.1125089 95.3878051 53.2842318 96.2360394 53.5063028 97.1510851 53.5063028 97.3235309 53.5063028 97.4982337 53.4982111 97.676548 53.4806792 98.6665309 53.3831298 99.6533537 53.1615083 100.553954 52.731302 101.436497 52.3091873 102.198508 51.6996159 102.732548 50.8769643 103.002051 50.4624917 103.183074 49.9864326 103.402919 49.5458869 103.638565 49.0765709 103.871502 48.6072549 104.073291 48.1226546 104.657439 46.7183029 104.848845 45.1561638 104.848845 43.6156025 104.848845 42.9880497 104.817245 42.3636436 104.767137 41.7549713 104.662405 40.4809851 104.138748 39.344557 103.610125 38.2036336L103.610125 38.2036336 103.610125 38.2036336zM58.7318051 43.8929665C58.3580223 43.8929665 57.9905594 43.7972152 57.6158737 43.7972152 56.9333137 43.7972152 56.2764851 43.9015077 55.5912166 43.8965628 55.6408737 43.5059156 55.642228 43.1103236 55.642228 42.7151811 55.642228 42.503899 55.6417766 42.2935159 55.6480966 42.0835824 55.6535137 41.8965753 55.664348 41.7095681 55.6851137 41.5239096 55.7248394 41.18406 55.7410909 40.8478068 55.7410909 40.5133517 55.7410909 39.8588267 55.6796966 39.2096961 55.6119823 38.5493271 55.5699994 38.1281115 55.5307251 37.6808227 55.5541994 37.2573594 55.5776737 37.1386818 55.6146909 37.0276463 55.6300394 36.906721 55.6693137 36.6068802 55.6982051 36.6441918 56.0123994 36.6383478 57.0904109 36.6181186 58.1616509 36.5322572 59.2473366 36.5322572 59.9465994 36.5322572 60.6427023 36.6068802 61.3248109 36.7660161 61.6520966 36.8424373 61.895868 36.8855928 62.1260966 37.14048 62.3933423 37.4416694 62.7860851 37.6637403 63.011348 37.9865075 63.5413251 38.7381324 63.927748 39.6835075 63.927748 40.6082039 63.927748 40.91254 63.8469423 41.1822619 63.744468 41.473112 63.614908 41.7855398 63.4961823 42.2571035 63.3079366 42.5484031 63.2605366 42.6063933 63.210428 42.6675302 63.1445194 42.7556394 62.7734451 43.1791027 62.1554394 43.3957792 61.5870909 43.5454748 60.4458794 43.8457652 59.1525366 43.8880216 58.7318051 43.8929665L58.7318051 43.8929665 58.7318051 43.8929665zM65.1736909 51.6312864C64.9118623 51.0747603 64.5453023 50.6229762 64.1525594 50.1617518 63.7990909 49.6735553 63.5219137 49.0779195 63.2181023 48.5555582 62.6046109 47.509487 61.9310794 46.5362406 61.4340566 45.429482 61.4015537 45.3521617 61.3699537 45.2748414 61.3383537 45.1975212 62.508908 44.9754502 63.8442337 44.5214184 64.5484623 43.4915305 64.8129994 43.1071768 64.9750623 42.5825678 65.1479594 42.1532606 65.3533594 41.6457339 65.4914966 41.127868 65.4914966 40.5902224 65.4914966 40.4562606 65.4829194 40.3209501 65.4644109 40.184291 65.2996394 38.9588548 64.8676223 37.7352166 64.0505366 36.7839976 63.8776394 36.5826053 63.6289023 36.4846063 63.4483309 36.2935533 63.2469937 36.0791245 63.0844794 35.8444665 62.8357423 35.6776885 62.306668 35.3234538 61.6078566 35.2038771 60.9898509 35.1076763 60.451748 35.0240625 59.9181594 34.9975399 59.3854737 34.9975399 58.5011251 34.9975399 57.6199366 35.0712638 56.7243023 35.0802546 56.3198223 35.0838508 55.8927709 35.1319512 55.4837766 35.1319512 55.2761194 35.1319512 55.0729766 35.0937406 54.8788623 35.0937406 54.3701023 35.0937406 54.1145937 35.5680016 54.1145937 36.0391157 54.109628 36.5929446 53.9814223 37.1211499 53.9814223 37.6731806 53.9814223 38.5637123 54.1800509 39.4331157 54.1800509 40.3362344 54.1800509 41.4353509 54.0437194 42.5340179 54.0437194 43.6313363 54.0437194 44.7857458 53.9489194 45.9383572 53.9489194 47.0914181 53.9489194 47.553092 53.964268 48.0152154 54.0067023 48.4773389 54.0450737 48.880573 54.0617766 49.2874035 54.0617766 49.694234 54.0617766 50.101514 54.0450737 50.5087939 54.014828 50.9120281 53.9746509 51.4627102 53.8830109 52.0102456 53.8830109 52.564524 53.8830109 52.7897417 53.9204794 53.0073174 54.0829937 53.1875815 54.242348 53.3624511 54.4531651 53.4438172 54.6621766 53.4438172 54.991268 53.4438172 55.3153937 53.2410763 55.421028 52.8841444 55.5361423 52.503387 55.4788109 52.027328 55.5180851 51.6299378 55.5596166 51.1839976 55.6097251 50.7389566 55.6250737 50.2912183 55.6566737 49.4874472 55.5966337 48.6908687 55.5311766 47.8906939 55.5149251 47.6991913 55.5086051 47.5085879 55.5086051 47.3179845 55.5086051 46.6985233 55.5740623 46.084007 55.5776737 45.461399 56.138348 45.4636467 56.6827709 45.4807291 57.238028 45.3903723 57.3531423 45.3719413 57.4678051 45.3647487 57.5820166 45.3647487 57.9973309 45.3647487 58.4081309 45.4609495 58.8270566 45.4618486 59.1019766 45.4622981 59.3796051 45.4384727 59.6545251 45.4173445 59.7538394 45.4097024 59.8824966 45.7535977 59.9136451 45.8291198 60.1334909 46.3375455 60.3276051 46.8495675 60.6178737 47.3229294 61.1731309 48.2264976 61.6836966 49.1768175 62.2913194 50.046221 62.5635309 50.4386663 62.7152109 50.8774138 63.0321137 51.2442355 63.3517251 51.6115068 63.6266451 51.9774294 63.8230166 52.4256172 63.9038223 52.6166702 64.2207251 53.0769955 64.4067137 53.3008646 64.5588451 53.4829269 64.7890737 53.583623 65.021108 53.583623 65.1208737 53.583623 65.2206394 53.5651921 65.3154394 53.5265319 65.659428 53.3853775 65.7844737 53.1543158 65.7844737 52.8940342 65.7844737 52.4575343 65.4328109 51.9392188 65.1763994 51.6303873L65.1736909 51.6312864 65.1736909 51.6312864zM86.0310451 45.7153871C86.088828 44.9453312 86.1542851 44.1739267 86.1542851 43.4043204 86.1542851 42.8761151 86.123588 42.3483594 86.0378166 41.8219522L86.0527137 40.6396714C86.0527137 40.5160489 86.0495537 40.3924264 86.044588 40.2688039 86.0283366 39.8444415 85.9926737 39.4218773 85.9926737 38.9966158 85.9926737 38.4778508 86.0102794 37.9595353 85.9890623 37.4403207 85.9791309 37.202516 85.9502394 36.9642617 85.9502394 36.7260074L86.0712223 36.2076919C86.0915366 36.0984545 86.1041766 35.9779788 86.1041766 35.8548058 86.1041766 35.5531669 86.0278851 35.2371428 85.7976566 35.0478879 85.6107651 34.8936969 84.9778623 34.7314143 84.7160337 34.7314143 84.6758566 34.7314143 84.6356794 34.734561 84.5955023 34.7413041 84.1734166 34.8087346 84.1440737 35.135098 83.8980451 35.3904347 83.5621823 35.7392749 83.3694223 36.1946553 83.0588394 36.5659724 82.792948 36.8837947 82.5175766 37.2002683 82.3148851 37.5634937 82.1094851 37.930765 81.9704451 38.3281552 81.7650451 38.6976741 81.5397823 39.1027064 81.3181309 39.4780693 81.0432109 39.8520836 80.7393994 40.2656571 80.6590451 40.7214871 80.4233994 41.1566383 80.2261251 41.5207628 79.933148 41.7536227 79.838348 42.1802327 79.7471594 42.5915586 79.4830737 42.9574812 79.2718051 43.3153122 78.7883251 44.1348171 78.2655709 44.9224049 77.7595194 45.7279741L77.164988 44.9682576 76.981708 44.5852526C76.8530509 44.2485498 76.7203309 43.9194891 76.5478851 43.602566 76.2228566 43.0046825 75.7344109 42.3402677 75.4423366 41.8758966 75.2139137 41.5122216 75.0816451 41.0964004 74.9010737 40.7071019 74.6663309 40.2885835 74.3665823 39.9046794 74.1237137 39.4888582 73.8496966 39.0195422 73.553108 38.5673085 73.2583251 38.1110291 72.9707651 37.6664376 72.7676223 37.1746447 72.478708 36.7327504 72.2110109 36.3232228 71.9126166 35.8889706 71.5799137 35.5288919 71.4228166 35.3589671 71.2530794 35.2011799 71.0968851 35.030356 71.0205937 34.8500919 70.8801994 34.7053412 70.7000794 34.6257732 70.5610394 34.5646363 70.396268 34.5304715 70.2314966 34.5304715 70.0093937 34.5304715 69.7881937 34.5929571 69.6310966 34.7350106 69.3150966 35.0204662 69.3119366 35.554965 69.3119366 35.9784283 69.3119366 37.0649578 69.3299937 38.1901475 69.5358451 39.2564479 69.549388 39.4110884 69.5548051 39.566628 69.5548051 39.7221676 69.5548051 40.5439202 69.3990623 41.3796084 69.3990623 42.2045077 69.3990623 42.3272311 69.4022223 42.4513032 69.4080909 42.5762743 69.4414966 43.2847437 69.5529994 44.0156899 69.5529994 44.7309024 69.5529994 44.9898353 69.5385537 45.2469702 69.501988 45.5000592 69.4265994 46.0152279 69.3701709 46.5294976 69.3435366 47.0496112 69.3299937 47.31259 69.3178051 47.5755688 69.2983937 47.8380981L69.2622794 48.2269471 69.2433194 48.3968719C69.138588 49.2851558 69.1570966 49.9342864 69.1570966 50.8284143 69.1570966 51.4708019 69.2342909 52.120382 69.3390223 52.749733 69.4013194 53.1241968 69.742148 53.4127992 70.1240566 53.4083038 70.7208451 53.4020103 70.8684623 53.0190053 70.8684623 52.5604782 70.8684623 52.1244278 70.7352909 51.6204975 70.7276166 51.3053725 70.7208451 51.0293571 70.7167823 50.7515436 70.7167823 50.472831 70.7167823 49.7724533 70.7425137 49.0666811 70.8147423 48.3775418 70.9014166 47.5575874 70.8820051 46.7218992 71.018788 45.9064401 71.0779251 45.5526549 71.0986909 45.1984202 71.0986909 44.8432865 71.0986909 44.2481003 71.0400051 43.6515654 71.0056966 43.0545811 70.9885423 42.7601347 70.9813194 42.4683856 70.9813194 42.177086 70.9813194 41.4686166 71.0242051 40.7668902 71.0779251 40.0525769 71.1487994 39.1018073 70.889228 38.1959915 70.9226337 37.2438733 71.2607537 37.7019509 71.4729251 38.2184683 71.7717709 38.6994723 72.083708 39.2016044 72.4150566 39.6907001 72.7184166 40.1986762 73.0059766 40.6805792 73.3513194 41.1355101 73.6126966 41.6313488 73.8700109 42.1208939 74.0298166 42.5978521 74.3792223 43.0357005 74.7719651 43.646171 74.8730851 43.8974619 75.562868 45.245172 75.919948 45.9428526 76.4074909 46.6513219 76.9984109 47.1682888 77.278748 47.4141852 77.4128223 47.7792088 77.901268 47.7792088 78.0868051 47.7792088 78.2700851 47.7122279 78.4118337 47.589954 78.5418451 47.4780194 78.6303251 47.3233789 78.6641823 47.1557018 78.7680109 46.9691442 78.9228509 46.8118064 79.0375137 46.6306433 79.2898623 46.2314549 79.5521423 45.8385601 79.8144223 45.4447662 80.3132509 44.695389 80.830588 43.9028563 81.1817994 43.0716635 81.3280623 42.7273186 81.3890051 42.4746791 81.6187823 42.1766364 81.863908 41.8583647 81.9573537 41.5122216 82.0864623 41.140455 82.2354337 40.8248804 82.4679194 40.5619016 82.669708 40.2800423 82.9071594 39.9478349 83.071028 39.5729215 83.2723651 39.2195859 83.431268 38.9413228 83.516588 38.634739 83.6705251 38.3555769 83.8696051 37.9954982 84.1661937 37.6938593 84.420348 37.3728903 84.4578166 37.9806635 84.4176394 38.5888863 84.4176394 39.1939623 84.4176394 39.8597257 84.5146966 40.5218929 84.4722623 41.1872068 84.429828 41.8511721 84.5945994 42.4773763 84.5945994 43.1480846 84.5945994 43.7540597 84.5652566 44.3645302 84.521468 44.9673585 84.4325366 46.1918957 84.4420166 47.3984515 84.442468 48.6252364 84.442468 49.2159272 84.278148 49.7800954 84.240228 50.3685386 84.2284909 50.5488027 84.2239766 50.7290668 84.2239766 50.9093309 84.2239766 51.3692067 84.2542223 51.8277338 84.2763423 52.2880591 84.2984623 52.7393937 84.2691194 53.2055629 84.7544051 53.4258358 84.856428 53.4716885 84.9625137 53.4932662 85.0672451 53.4932662 85.4049137 53.4932662 85.7263309 53.2693971 85.8274509 52.9277494 85.8789137 52.7542284 85.8969709 52.5622763 85.8969709 52.3622326 85.8969709 51.8861735 85.7940451 51.367858 85.7940451 50.9610276 85.7940451 50.4705834 85.8590509 50.021946 85.9385023 49.534199 86.0125366 49.0792681 86.0328509 48.6198419 86.0328509 48.158168 86.0328509 47.6101831 86.0044109 47.059501 86.0044109 46.5110666L86.0075709 46.2229137C86.0111823 46.0534385 86.0184051 45.8844128 86.0310451 45.7153871L86.0310451 45.7153871zM52.2510966 6.56422657C52.453788 6.6361524 52.6776966 6.71122498 52.8984451 6.71122498L52.8988966 6.71257359C52.9797023 6.71257359 53.060508 6.70223425 53.1390566 6.67795929 53.2613937 6.64064776 53.1340909 6.51342896 53.0871423 6.470723 52.9887309 6.38126525 53.0799194 6.13222207 53.1119709 6.01983797L53.2510109 5.58783347C53.2957023 5.46511003 53.4351937 5.27450659 53.4392566 5.14863639 53.442868 5.01557361 53.1643366 4.91712514 53.066828 4.87531825 52.8957366 4.80159428 52.6934966 4.72427401 52.5079594 4.72427401 52.4208337 4.72427401 52.3377709 4.7413564 52.2628337 4.78361282 52.0028109 4.93106077 51.7355651 5.01332593 51.622708 5.31721255 51.5667309 5.46645864 51.5030794 5.67414446 51.5030794 5.86070208 51.5030794 5.93937095 51.5148166 6.01444353 51.5423537 6.08007585 51.6552109 6.34305465 52.0023594 6.47611743 52.2510966 6.56422657L52.2510966 6.56422657zM101.394062 6.56422657C101.596754 6.6361524 101.821114 6.71122498 102.041862 6.71122498L102.041862 6.71257359C102.123119 6.71257359 102.203474 6.70223425 102.282022 6.67795929 102.404359 6.64064776 102.277057 6.51342896 102.230108 6.470723 102.131697 6.38126525 102.222885 6.13222207 102.254937 6.01983797L102.393977 5.58783347C102.438668 5.46511003 102.578159 5.27450659 102.582222 5.14863639 102.586285 5.01557361 102.307754 4.91712514 102.210245 4.87531825 102.038702 4.80159428 101.836462 4.72427401 101.650925 4.72427401 101.563799 4.72427401 101.480737 4.7413564 101.405799 4.78361282 101.145777 4.93106077 100.878531 5.01332593 100.765674 5.31721255 100.709697 5.46645864 100.646497 5.67414446 100.646497 5.86070208 100.646497 5.93937095 100.657782 6.01444353 100.685771 6.08007585 100.798628 6.34305465 101.145325 6.47611743 101.394062 6.56422657L101.394062 6.56422657z"/>
    <path d="M91.2954966,17.7804037 C91.340748,17.8197194 91.3421023,18.1150648 91.2987651,18.3978232 C91.249108,18.7192418 91.1547594,19.0154863 91.0676337,19.3274645 C90.9443937,19.1031459 90.7060394,18.9678354 90.468588,18.9678354 C90.3038166,18.9678354 90.1394966,19.0325687 90.0149023,19.1782185 C89.9363537,19.2699239 89.9011423,19.3751154 89.9011423,19.4816555 C89.9011423,19.5976359 89.9431251,19.7149649 90.0162566,19.8174592 C90.1819309,20.0489705 90.4396966,20.0984195 90.7069423,20.1375292 C90.5353994,20.4112968 90.395908,20.499406 90.2234623,20.7358621 L90.0586909,20.9583827 C90.0031651,21.0253636 89.9277766,21.0415469 89.8532909,21.0865005 C89.7318566,21.159775 89.5946223,21.2011323 89.4754451,21.2721591 C89.2050394,21.3404886 88.948628,21.3948825 88.6818337,21.3948825 C88.5743937,21.3962311 88.4642451,21.3872404 88.351388,21.3670113 C87.9315594,21.2910396 87.7135194,21.0001896 87.4832909,20.6711289 C87.3230337,20.4418653 87.2954966,20.1024653 87.2954966,19.7918357 C87.2954966,19.6808002 87.2986566,19.5729114 87.3013651,19.475362 L87.3112966,18.7871218 C87.3216794,18.5839313 87.3934566,18.3919793 87.4485309,18.1982291 C87.5627423,17.796793 87.6191709,17.3863663 87.7220966,16.9840312 C87.7735594,16.7839875 87.8286337,16.5938336 87.9080851,16.4027806 L88.0146223,16.111481 C88.0457709,15.9986474 88.142828,15.9096392 88.212348,15.8125393 C88.3364909,15.6385687 88.4583766,15.4619009 88.5983194,15.3000678 C88.796948,15.0708042 89.1377766,14.8842466 89.4998223,14.8037796 C89.5878509,14.784 89.6749766,14.7804037 89.7598451,14.7804037 C89.9223594,14.7804037 90.0808109,14.8055777 90.2464851,14.8388434 C90.490708,14.8869438 90.5976966,15.0829417 90.7674337,15.2447748 C90.9507137,15.420094 91.151148,15.7037515 91.1705594,15.9613358 C91.1899709,16.2184707 91.2549766,16.4684129 91.3272051,16.7147589 C91.372348,16.8689499 91.3890509,17.0402233 91.3890509,17.2096985 C91.3890509,17.320734 91.381828,17.4304209 91.3709937,17.5342638 L91.2954966,17.7804037 Z M60.732988,25.2608957 C60.4874109,25.6169286 60.2770451,25.9405948 59.8770794,26.1024279 C59.7114051,26.2017754 59.399468,26.3393336 59.156148,26.3393336 C59.0825651,26.3393336 59.0153023,26.3267466 58.9597766,26.2966276 C58.9787366,25.9082282 59.1128109,25.6169286 59.3466509,25.325629 C59.8206509,24.7753964 60.5501594,24.3222637 61.2318166,24.0633307 C61.1803537,24.2575304 61.1419823,24.4840968 61.0720109,24.7106631 C60.998428,24.9048629 60.8629994,25.066696 60.732988,25.2608957 Z M60.8124394,12.5673359 C60.8124394,12.4963091 60.8160509,12.4252824 60.8133423,12.3533566 C60.8097309,12.259853 60.7894166,12.1519642 60.7894166,12.0499195 C60.7894166,11.988333 60.7970909,11.9285446 60.8196623,11.8759489 C60.9198794,11.6435386 61.254388,11.2070387 61.5396909,11.2070387 C61.6484851,11.2070387 61.7500566,11.2704233 61.8290566,11.4331555 C61.914828,11.6089243 61.9649366,11.773005 61.9649366,11.9348382 C61.9649366,12.0944236 61.9161823,12.2517613 61.8046794,12.4167412 C61.5758051,12.7547926 61.3117194,13.081156 61.0462794,13.3917857 C60.9379366,13.1391462 60.8124394,12.808737 60.8124394,12.5673359 Z M35.6231766,3.66112039 C35.7920109,3.10549337 35.936468,2.51570159 36.2642051,2.03020226 C36.4181423,1.8022873 36.5346109,1.57302373 36.7273709,1.37298002 C36.922388,1.17068863 37.0880623,0.914003337 37.3214509,0.7530693 C37.405868,0.695079102 37.5200794,0.661363871 37.6320337,0.661363871 C37.7620451,0.661363871 37.8884451,0.707216585 37.9602223,0.81330718 C38.0712737,0.977387972 38.0830109,1.1949636 38.0816566,1.38691565 C38.0784966,1.90927697 37.9074051,2.35431802 37.7331537,2.83981735 C37.633388,3.11763086 37.4677137,3.37071986 37.3462794,3.63954264 C37.2230394,3.91331032 37.0569137,4.16145442 36.8795023,4.40330501 C36.5079766,4.90948302 36.0664794,5.35946897 35.6904394,5.86070208 C35.5188966,6.08816751 35.3906909,6.34710048 35.2340451,6.58580432 L34.8092509,7.23133862 C34.918948,6.63750101 35.0218737,5.88947241 35.1803251,5.40891798 C35.3685709,4.83845626 35.4480223,4.236527 35.6231766,3.66112039 Z M124.727051,14.228373 C124.755491,14.1173375 124.787091,14.0319255 124.841262,13.9307798 L124.955925,13.6812871 C125.091805,13.3742538 125.220011,13.0667709 125.361759,12.7619852 L125.449337,12.6001521 C125.517954,12.4657407 125.605531,12.3412191 125.697171,12.2211929 C125.777074,12.1164509 125.866005,11.9532691 125.984731,11.8934808 C126.095782,11.8372888 126.239788,11.7797481 126.365737,11.7810967 C126.540439,11.7828948 126.611314,11.8840405 126.717851,11.9946265 C126.908354,12.1924225 126.926411,12.457649 126.908354,12.754343 C126.898422,12.9134789 126.862308,13.0658718 126.826194,13.2205123 C126.785114,13.396281 126.773828,13.5774442 126.702954,13.7451213 C126.595062,14.0009075 126.473628,14.2881613 126.332782,14.5282137 C126.262359,14.6477904 126.158079,14.7080283 126.059217,14.7997337 C125.933719,14.9170627 125.829439,15.0577676 125.714325,15.1849865 C125.251159,15.6979075 124.711251,16.1523888 124.207005,16.6262002 C124.220999,16.4526792 124.249439,16.2894974 124.295034,16.1213708 C124.412405,15.6875682 124.409245,15.2200503 124.523005,14.7871467 C124.574017,14.5947451 124.676942,14.4216736 124.727051,14.228373 Z M131.744057,16.3196164 C131.684919,16.3196164 131.627588,16.3416437 131.587411,16.3924413 C131.414965,16.6127141 131.269154,16.8923258 131.136434,17.1337268 C130.968502,17.4394116 130.726537,17.6992436 130.523394,17.982002 C130.343725,18.2323938 130.139228,18.4477218 129.943308,18.6841779 C129.848959,18.7983602 129.759577,18.919735 129.647171,19.0172844 C129.529348,19.1197787 129.395274,19.2047411 129.298668,19.3297122 C129.131188,19.5463888 128.894188,19.6951853 128.669377,19.8462296 C128.394005,20.0323376 128.165582,20.2741882 127.892468,20.4611954 C127.398605,20.7992468 126.838834,21.0748126 126.291251,21.313966 C126.121062,21.3881395 125.938685,21.4182584 125.754954,21.4182584 C125.639388,21.4182584 125.522919,21.4061209 125.408708,21.3858918 C125.051177,21.3225072 124.853902,21.1116746 124.699514,20.801944 C124.575371,20.5160388 124.451228,20.0786399 124.347851,19.7814963 C124.243571,19.4807565 124.183079,19.1525949 124.183079,18.8338736 C124.183982,18.7178932 124.159605,18.6014632 124.159605,18.4913268 L124.203845,17.9451401 L124.169085,17.5333647 C124.171342,17.4493014 124.173599,17.3647885 124.175405,17.2807252 C124.236799,17.2357716 124.296839,17.1890198 124.355977,17.1409194 C124.625479,16.9206466 124.841714,16.6491266 125.103542,16.4212116 C125.348217,16.2090304 125.603725,16.0130325 125.832148,15.7819708 C126.068245,15.543267 126.259651,15.2618572 126.515159,15.0433825 C126.756674,14.8365957 126.864565,14.5709197 126.985097,14.2854641 C127.043782,14.1465573 127.120074,14.0161918 127.176502,13.8763859 C127.246474,13.7028649 127.264982,13.5181054 127.307868,13.3373918 C127.377839,13.0424959 127.418919,12.7565907 127.418919,12.4500069 C127.418919,12.1353314 127.348045,11.9937274 127.226611,11.7100699 C127.043782,11.2839094 126.562559,11.1211772 126.159434,11.1211772 C125.944102,11.1211772 125.723354,11.1490485 125.524725,11.1697272 C124.854805,11.2403044 124.306771,11.5181179 123.762348,11.8979762 C123.232371,12.2679446 122.761531,12.6401608 122.354794,13.1472379 C122.166097,13.382795 121.974691,13.6646543 121.835651,13.932578 C121.686228,14.2216299 121.521005,14.5461952 121.419434,14.8554763 C121.334565,15.1148588 121.138645,15.3171502 121.032108,15.5634961 C120.893971,15.883566 120.713851,16.1416 120.528314,16.4328996 C120.374377,16.6743006 120.203285,16.9453711 120.019554,17.1642953 C119.945971,17.2515054 119.881868,17.3436603 119.815057,17.4344667 C119.773074,17.481668 119.734702,17.5320161 119.699942,17.580566 C119.620039,17.6718219 119.527045,17.7738667 119.471519,17.8768105 L118.932965,18.5524638 C118.734788,18.8078004 118.546091,19.0712288 118.332114,19.3139785 C118.096017,19.5810031 117.815228,19.8183583 117.617051,20.1168505 C117.456342,20.3596002 117.265388,20.579873 117.077142,20.8023935 L116.797708,21.1579768 C116.688462,21.2892415 116.552582,21.3903872 116.439274,21.5167069 C115.989651,22.0251326 115.647017,22.6077318 115.168051,23.0932311 C114.949559,23.3197975 114.726102,23.5463638 114.550045,23.8052968 C114.366765,24.0642298 114.170845,24.2907961 113.976731,24.5497291 C113.796611,24.8086621 113.585794,25.0028618 113.390325,25.2294282 C113.291914,25.326528 113.201177,25.4559945 113.087868,25.5530944 C112.982685,25.6501943 112.877502,25.8120274 112.752005,25.8767606 C112.655399,25.9172189 112.490628,26.0075757 112.357005,26.0075757 C112.276199,26.0075757 112.206228,25.97431 112.169211,25.8767606 C112.058611,25.6205249 111.946657,25.3647386 111.946657,25.0648978 C111.946657,25.0235405 111.948914,24.9808345 111.953428,24.937679 C111.989542,24.5816462 112.018885,24.25798 112.138965,23.9343138 L112.504622,22.9309485 C112.740268,22.283616 113.103668,21.7010168 113.390777,21.0761612 C113.676079,20.4553514 113.848525,19.7783496 114.085977,19.1377602 C114.232691,18.7408195 114.311239,18.3133104 114.311239,17.8893975 C114.311239,17.0667459 114.015554,16.2575803 113.348794,15.7118431 C113.106828,15.5140471 112.829199,15.3665992 112.546605,15.2357841 C112.396279,15.1665555 112.244599,15.1018222 112.087051,15.0501255 C111.915959,14.9934839 111.743062,14.9746034 111.599959,14.870311 C111.409005,14.7314042 111.544885,14.3690779 111.619822,14.1942082 C111.756154,13.8768355 111.907382,13.5828387 112.104205,13.2982821 C112.197199,13.1643203 112.245954,13.0164228 112.326308,12.8770665 C112.402148,12.7467009 112.490628,12.6320691 112.534868,12.4859698 C112.575948,12.3511089 112.603034,12.1982665 112.603034,12.0467727 C112.603034,11.8921322 112.574594,11.7397393 112.504622,11.6102729 C112.259497,11.1589383 111.473559,10.9242803 111.018971,10.9242803 C110.769782,10.9242803 110.492154,11.1063425 110.273662,11.2083873 C110.006417,11.333808 109.845257,11.569365 109.704862,11.8193073 C109.550022,12.0944236 109.429491,12.3879709 109.336497,12.6887107 C109.290451,12.8384064 109.243954,12.9907992 109.222737,13.1463388 C109.198359,13.3234561 109.137417,13.4362898 109.040811,13.5904808 C108.890034,13.8296342 108.729325,14.0548519 108.585771,14.2989502 L108.058954,15.1490235 C107.894182,15.4030116 107.752434,15.6677886 107.547034,15.8934558 C107.330799,16.1308111 107.078902,16.3322034 106.926771,16.6203562 C106.778702,16.8999679 106.585942,17.1328278 106.436519,17.3836691 C106.335851,17.4960532 106.148057,17.6682256 106.058222,17.8417467 C105.915119,17.9963872 105.789171,18.154624 105.669994,18.3402826 C105.502062,18.6014632 105.257839,18.8442129 105.052891,19.0775223 C104.805057,19.3602807 104.536908,19.623709 104.286817,19.9042198 C103.852091,20.3928659 103.431359,20.9867035 102.874297,21.3445345 C102.612919,21.5122115 102.340257,21.6138068 102.043217,21.6987691 C101.872125,21.7477686 101.693811,21.807557 101.519559,21.807557 C101.402188,21.807557 101.286171,21.7801352 101.176022,21.703714 C100.918257,21.5212023 100.687125,21.3036266 100.687125,20.9529882 C100.687125,20.8558884 100.704731,20.759238 100.723239,20.6621382 C100.760257,20.4733329 100.744457,20.2867753 100.771994,20.09797 C100.817588,19.7774505 100.911034,19.4578301 100.994548,19.1454023 C101.089799,18.7902685 101.127268,18.4405292 101.185954,18.080001 C101.297908,17.3899626 101.364268,16.6918325 101.447331,15.9990969 C101.485702,15.6835223 101.477577,15.3980667 101.562897,15.0874371 C101.656794,14.7439912 101.702388,14.3848116 101.773714,14.0359714 C101.815245,13.8327809 101.845491,13.6376821 101.845491,13.4367393 L101.845491,13.3072728 C101.879348,12.9979918 101.779582,12.7066922 101.680268,12.4189889 C101.566057,12.0885796 101.375102,11.877747 101.128171,11.6399423 C100.917805,11.4376509 100.720079,11.2749187 100.443354,11.1683786 C100.297091,11.1121865 100.165274,11.0267746 100.012691,10.9858668 C99.9025423,10.9557478 99.7991651,10.8932623 99.6813423,10.939115 C99.5901537,10.9741788 99.5413994,11.0600403 99.5459137,11.1557915 C99.5531366,11.3045881 99.4939994,11.4430453 99.4736851,11.5882456 C99.4339594,11.8719031 99.2953709,12.1596064 99.2208851,12.4405666 C99.1454966,12.7251232 98.9978794,13.0344042 98.8024109,13.2560257 C98.5861766,13.5014726 98.4435251,13.7950199 98.2584394,14.0642922 L97.6517194,14.9035767 C97.5641423,15.0236029 97.5045537,15.1548675 97.4251023,15.2789396 C97.3429423,15.4084061 97.2129309,15.4987629 97.1145194,15.6156423 C96.6865651,16.1245176 96.3118794,16.6778969 95.8491651,17.1580018 C95.777388,17.2281295 95.7164451,17.3050002 95.6586623,17.3836691 C95.5805651,17.4618884 95.5187194,17.5688781 95.4559709,17.6502442 C95.3467251,17.7927472 95.2343194,17.9330026 95.1088223,18.0620195 C94.8700166,18.3079159 94.5969023,18.5169504 94.3192737,18.7169941 C94.0524794,18.9089461 93.7861366,19.1467509 93.4931594,19.2964465 C92.8945651,19.6025808 92.1366166,19.6938367 91.4730166,19.6938367 C91.5741366,19.3805098 91.6806737,19.0617885 91.7330394,18.7367737 C91.7921766,18.3717501 91.8124909,18.0085247 91.846348,17.6403544 C91.8598909,17.4911083 91.8693709,17.3423117 91.8693709,17.1935152 C91.8693709,17.0465168 91.8603423,16.8995184 91.8373194,16.7520704 C91.7881137,16.4396426 91.6477194,16.1393523 91.6373366,15.8179337 C91.6287594,15.5531568 91.4012394,15.2411785 91.236468,15.0442816 C91.0351309,14.80333 90.8292794,14.5592318 90.5710623,14.3803163 C90.3205194,14.2063457 90.0492109,14.1600434 89.7801594,14.0337237 C89.5070451,13.9060553 89.2212909,13.8804318 88.9237994,13.8489642 C88.2606509,13.778387 87.5731251,13.9348257 86.9943937,14.259391 C86.4608051,14.5587822 86.0567766,14.98764 85.6026394,15.3845806 C85.1552737,15.7756773 84.8352109,16.2499382 84.4839994,16.7188047 L83.949508,17.4061459 C83.785188,17.573823 83.6425366,17.7307112 83.5820451,17.8884985 L83.1306166,18.4760426 C82.7238794,19.0172844 82.239948,19.4892977 81.8223766,20.0233469 C81.6223937,20.2786836 81.4603309,20.5623411 81.2553823,20.8127329 L80.5981023,21.5823392 C80.198588,22.0885172 79.8153251,22.6063832 79.3440337,23.0595159 L78.6109137,23.6744817 C78.3572109,23.9010481 78.1658051,24.1923477 77.936028,24.418914 C77.7315309,24.6131137 77.4994966,24.8073135 77.2480509,24.9691466 C76.9952509,25.1309797 76.6350109,25.2928128 76.3442909,25.3575461 C76.0404794,25.3899127 75.7154509,25.3575461 75.423828,25.2604462 C75.1895366,25.1957129 75.0771309,24.7102136 75.0243137,24.5160139 C74.899268,23.9985975 74.7737709,23.4600528 74.7737709,22.9174624 C74.7737709,22.7817024 74.7818966,22.6454928 74.7995023,22.5092833 C74.899268,21.758108 74.8089823,20.992997 74.9480223,20.2431702 C75.0175423,19.8682569 75.0188966,19.4650227 75.0662966,19.0847149 C75.114148,18.6963154 75.1263366,18.3115122 75.1895366,17.9244614 C75.2716966,17.4227787 75.3344451,16.913454 75.3344451,16.4059274 C75.3344451,16.1317102 75.3312851,15.8579425 75.3728166,15.5855234 C75.490188,14.8235592 75.6247137,14.1703828 75.6247137,13.6345353 L75.6138794,13.3441348 C75.5809251,13.01912 75.6784337,12.6788209 75.7154509,12.3569529 C75.758788,11.9802413 75.8237937,11.6075756 75.8752566,11.2322127 C75.9732166,10.5187984 76.0820109,9.81752163 76.2481366,9.11579528 C76.2553594,9.08657541 76.2621309,9.05690601 76.2684509,9.0272366 C78.6998451,9.0654472 81.1312394,9.18322574 83.5635366,9.18322574 C84.0425023,9.18322574 84.521468,9.17873038 85.0008851,9.1679415 C86.4233366,9.13647395 87.8588794,9.11129991 89.2781709,9.01464958 C90.086228,8.95935661 90.8911251,8.8766419 91.7005366,8.8766419 C91.8914909,8.8766419 92.0788337,8.83843131 92.0788337,8.61725939 C92.0788337,8.48914151 91.9858394,8.37226204 91.8427366,8.37226204 C90.2929823,8.37450973 88.7513537,8.59658072 87.197988,8.59658072 C86.5334851,8.59658072 85.8694337,8.65906628 85.2053823,8.67839634 C84.8293423,8.68918522 84.4528509,8.69278151 84.0768109,8.69278151 C83.7111537,8.69278151 83.3454966,8.68918522 82.9798394,8.68379078 C81.4928337,8.66311211 80.0062794,8.66266257 78.5201766,8.61141542 C77.8010509,8.58714045 77.0823766,8.56781039 76.3637023,8.55387476 C76.4535366,8.03960509 76.5117709,7.51544563 76.5821937,7.0002769 L76.6539709,6.47881465 C76.6666109,6.38935691 76.709948,6.2571932 76.709948,6.14660724 C76.709948,6.10435082 76.703628,6.06524115 76.6869251,6.03287453 C76.5641366,5.79506976 76.1722966,5.66065837 75.9398109,5.57614553 C75.663988,5.4758989 75.3741709,5.39902818 75.079388,5.39902818 C74.7936337,5.50377016 74.7809937,5.77394155 74.7575194,5.87643585 C74.6031309,6.55613492 74.516908,7.25201729 74.352588,7.93171635 C74.3038337,8.13400774 74.2397309,8.3322533 74.1760794,8.53049886 L73.8555651,8.53049886 C72.4493651,8.53049886 71.0431651,8.54353542 69.6369651,8.55162707 C68.1422851,8.56016827 66.6467023,8.64872694 65.1533766,8.70761621 C64.4189023,8.73683608 63.6772051,8.74357912 62.9463423,8.82989012 C62.7603537,8.8519174 62.3748337,8.85011926 62.3536166,9.10590548 C62.3378166,9.30010521 62.467828,9.36843475 62.6158966,9.36843475 C63.4433651,9.19806044 64.2112451,9.22997753 64.929468,9.20165673 C65.684708,9.17243687 66.4394966,9.143217 67.1942851,9.11309806 C68.6718109,9.05420879 70.143468,9.05151157 71.6218966,9.04297038 C72.4245366,9.03847501 73.2267251,9.0272366 74.0289137,9.02094309 C73.9458509,9.33067369 73.8776851,9.6431015 73.8022966,9.95463023 C73.638428,10.6266872 73.4429594,11.291102 73.2799937,11.9636085 L72.4696794,13.4780967 C72.3211594,13.7266903 72.2191366,14.000458 72.0543651,14.2400609 C71.8859823,14.4832601 71.7117309,14.7376977 71.530708,14.9710071 C71.3541994,15.198023 71.160988,15.4066079 71.002988,15.648009 C70.8395709,15.8979512 70.6937594,16.1645263 70.5091251,16.4000834 C70.2617423,16.7161075 70.0026223,17.0168474 69.7475651,17.3202844 C69.710548,17.3405136 69.6762394,17.3679353 69.6487023,17.4034487 C69.5453251,17.536961 69.3918394,17.6745191 69.3128394,17.8224166 C69.2257137,17.9033332 69.1566451,18.0071761 69.0758394,18.098432 C68.9693023,18.2184582 68.8284566,18.3007234 68.715148,18.4144561 L68.0533537,19.0689811 L67.2619994,19.7814963 C67.0010737,20.0121085 66.7121594,20.2126018 66.4580051,20.449957 C66.114468,20.770926 65.7650623,20.9974923 65.3817994,21.2937368 C65.1055251,21.5072666 64.8134509,21.6875307 64.5195709,21.8624004 C64.2369766,22.0521048 63.9268451,22.1802227 63.6428966,22.3672298 C63.6699823,22.3024966 63.6993251,22.2314698 63.731828,22.1537 L63.7896109,21.9271336 C63.836108,21.7931718 63.8997594,21.6587604 63.9381309,21.5126611 C64.0275137,21.1732611 64.0645309,20.8176778 64.1182509,20.4715347 C64.1421766,20.3182428 64.1516566,20.1671986 64.1516566,20.0175029 C64.1516566,19.4946921 64.0338337,18.987615 63.984628,18.4580611 C63.9557366,18.1433856 63.8257251,17.8808564 63.7557537,17.5778688 C63.6794623,17.2456614 63.4492337,16.981334 63.3088394,16.6769978 C63.1688966,16.3749094 62.9910337,16.0908023 62.8136223,15.8084935 C62.632148,15.518992 62.3712223,15.2748937 62.1649194,15.0006765 C61.9613251,14.7300556 61.7301937,14.4837096 61.516668,14.2207308 C61.4245766,14.1069981 61.342868,13.9865224 61.2706394,13.858854 C61.3916223,13.7406259 61.4968051,13.6071136 61.6042451,13.4771976 C61.9884109,13.0110283 62.4664737,12.5111438 62.4556394,11.8723526 C62.4484166,11.4232657 62.1269994,10.7246861 61.5965709,10.7246861 C61.3360966,10.7246861 61.0476337,10.7655939 60.8192109,10.9296747 C60.562348,11.1139847 60.2896851,11.284359 60.0585537,11.501485 C59.7411994,11.7995277 59.3376223,12.093075 59.203548,12.5309234 C59.1313194,12.7664805 59.1249994,13.0182209 59.0383251,13.2497322 C58.9904737,13.3774005 58.9764794,13.4924818 58.9764794,13.6084622 C58.9764794,13.7199473 58.9895709,13.8323314 58.9976966,13.956853 C59.0058223,14.1960063 59.0794051,14.4383065 59.1520851,14.6648728 L59.2089651,14.8249078 C59.0857251,15.0537218 58.9200509,15.2699488 58.8699423,15.3382784 C58.5413023,15.7788241 58.236588,16.2494887 57.8772509,16.6639613 C57.7350509,16.8280421 57.6388966,17.0294344 57.500308,17.1890198 C57.459228,17.234423 57.4190509,17.2744317 57.3779709,17.3166881 C57.3039366,17.3616418 57.2402851,17.4430079 57.1825023,17.525273 C57.124268,17.5868595 57.0664851,17.6466479 57.0087023,17.7172251 C56.7947251,17.9649197 56.6579423,18.136193 56.527028,18.3402826 C56.3586451,18.6014632 56.1148737,18.8442129 55.9094737,19.0775223 C55.6620909,19.3602807 55.3939423,19.623709 55.1438509,19.9042198 C54.7091251,20.3928659 54.2883937,20.9867035 53.7308794,21.3445345 C53.4699537,21.5122115 53.1968394,21.6138068 52.9002509,21.6987691 C52.7291594,21.7477686 52.5508451,21.807557 52.3765937,21.807557 C52.2587709,21.807557 52.1432051,21.7801352 52.0330566,21.703714 C51.7748394,21.5212023 51.5441594,21.3036266 51.5441594,20.9529882 C51.5441594,20.8558884 51.5613137,20.759238 51.5802737,20.6621382 C51.6168394,20.4733329 51.6014909,20.2867753 51.6285766,20.09797 C51.6746223,19.7774505 51.768068,19.4578301 51.8515823,19.1454023 C51.9463823,18.7902685 51.9843023,18.4405292 52.042988,18.080001 C52.1544909,17.3899626 52.2213023,16.6918325 52.3043651,15.9990969 C52.3422851,15.6835223 52.3346109,15.3980667 52.4199309,15.0874371 C52.513828,14.7439912 52.5594223,14.3848116 52.6302966,14.0359714 C52.671828,13.8327809 52.7020737,13.6376821 52.7020737,13.4367393 L52.7020737,13.3072728 C52.7359309,12.9979918 52.6366166,12.7066922 52.5373023,12.4189889 C52.4226394,12.0885796 52.2321366,11.877747 51.9847537,11.6399423 C51.7748394,11.4376509 51.5771137,11.2749187 51.2999366,11.1683786 C51.1541251,11.1121865 51.022308,11.0267746 50.8697251,10.9858668 C50.7591251,10.9557478 50.655748,10.8932623 50.5383766,10.939115 C50.447188,10.9741788 50.3984337,11.0600403 50.402948,11.1557915 C50.4097194,11.3045881 50.3505823,11.4430453 50.3307194,11.5882456 C50.2909937,11.8719031 50.1524051,12.1596064 50.0779194,12.4405666 C50.0025309,12.7251232 49.8544623,13.0344042 49.6594451,13.2560257 C49.4427594,13.5014726 49.300108,13.7950199 49.1150223,14.0642922 L48.5083023,14.9035767 C48.4211766,15.0236029 48.361588,15.1548675 48.2821366,15.2789396 C48.1995251,15.4084061 48.0695137,15.4987629 47.9715537,15.6156423 C47.5435994,16.1245176 47.1689137,16.6778969 46.7061994,17.1580018 C46.6344223,17.2276799 46.5739309,17.3045507 46.516148,17.3832195 C46.3942623,17.4956036 46.2940451,17.6767668 46.2037594,17.7585824 C45.9654051,17.9748095 45.779868,18.2692558 45.5898166,18.5281888 C45.4214337,18.7565533 45.2851023,19.0172844 45.1081423,19.2371077 C44.8968737,19.499637 44.6531023,19.7365427 44.4418337,19.999971 C44.2576509,20.2296841 44.1307994,20.5088462 43.9285594,20.721477 C43.6956223,20.9651257 43.4631366,21.1809032 43.2735366,21.4636616 C43.0911594,21.7356311 42.8970451,21.9941146 42.692548,22.2494513 C42.5950394,22.3708261 42.515588,22.5038889 42.420788,22.6261628 C42.3219251,22.7542807 42.1851423,22.8459861 42.0817651,22.9691591 C41.8876509,23.1997712 41.6664509,23.4182459 41.4908451,23.6618947 C41.286348,23.9451026 41.0868166,24.2350536 40.8791594,24.5160139 C40.6854966,24.7776441 40.4512051,25.0051095 40.2449023,25.2559508 C40.098188,25.4353159 39.9189709,25.6632308 39.7162794,25.7837066 C39.598908,25.8538343 39.3772566,25.9405948 39.1903651,25.9405948 C39.102788,25.9405948 39.0228851,25.9212647 38.9646509,25.8722652 C38.8409594,25.7693214 38.8034909,25.7234687 38.761508,25.5715254 C38.7186223,25.4177839 38.7326166,25.2204374 38.7168166,25.0599529 C38.6481994,24.3591257 38.8061994,23.6735826 38.8504394,22.974104 C38.8901651,22.3501474 38.9709709,21.6138068 38.9709709,20.8837596 C38.9709709,19.9082656 38.8269651,18.9431109 38.2473309,18.2688063 C38.0022051,17.9838002 37.6794337,17.7504908 37.2568966,17.5909054 C37.1417823,17.5549424 37.0104166,17.5122365 36.8722794,17.4794203 C36.7400109,17.4475032 36.5702737,17.4259255 36.4127251,17.4259255 C35.8633366,17.4259255 35.5671994,17.7325093 35.2146337,18.0260566 C34.8390451,18.338934 34.4941537,18.7003612 34.1555823,19.0532473 C33.8179137,19.4056839 33.4256223,19.7073228 33.1064623,20.0768418 C33.1317423,19.1777689 33.291548,18.2971271 33.2802623,17.3967056 C33.2734909,16.7857856 33.3655823,16.2823049 33.4870166,15.3657001 C33.5813651,14.6572307 33.6066451,13.9420183 33.7059594,13.2339984 C33.9145194,11.7990782 34.2476737,10.384387 34.4846737,8.95486124 C34.4964109,8.88428402 34.5352337,8.68334124 34.5785709,8.4531786 L34.8458166,8.06702682 C35.0381251,7.80809384 35.193868,7.53522523 35.370828,7.26595292 L35.8813937,6.47476882 C36.0569994,6.18257015 36.2822623,5.93667373 36.4899194,5.66695188 C36.8980109,5.13649891 37.3512451,4.63661441 37.6830451,4.05086846 C38.0085251,3.47681045 38.3046623,2.83532199 38.4775594,2.19832888 C38.5394051,1.97086346 38.5795823,1.7096828 38.5795823,1.44940121 C38.5795823,1.13247804 38.5199937,0.816004398 38.3660566,0.560218177 C38.202188,0.286900035 37.8785137,0.174965467 37.5530337,0.174965467 C37.3381537,0.174965467 37.1223709,0.223964936 36.9499251,0.307129173 C35.7518337,0.887930225 34.8602623,2.03424809 34.2020794,3.15089655 C33.8513194,3.74608277 33.5533766,4.37498422 33.3290166,5.02861017 C33.2197709,5.34598288 33.1479937,5.67504354 33.0391994,5.99241625 C32.9258909,6.32102737 32.7674394,6.62761121 32.6757994,6.96476352 C32.5904794,7.28078762 32.529988,7.60355477 32.4261594,7.91463397 C32.3146566,8.25088721 32.2036051,8.5790488 32.1232509,8.92564137 L32.097068,9.04027316 C31.9616394,9.14546468 31.853748,9.22907846 31.8225994,9.26009647 C31.7169651,9.36528799 31.613588,9.46778229 31.4971194,9.56083633 C31.2361937,9.76987077 30.9599194,9.95777699 30.6989937,10.1668114 C30.251628,10.5255415 29.7532509,10.8087494 29.3045309,11.1638832 C28.854908,11.519916 28.4215366,11.9096641 27.9344451,12.216248 C27.426588,12.5358683 26.9354337,12.8883049 26.4194509,13.1944392 C26.2465537,13.2969335 25.7978337,13.4304458 25.7978337,13.6561131 C25.7978337,13.7950199 25.9301023,13.9244863 26.0718509,13.9132479 C26.307948,13.8948169 26.6063423,13.6507187 26.8031651,13.5284448 C27.0609309,13.3679603 27.3056051,13.1890448 27.5565994,13.0177714 C28.0463994,12.6828668 28.554708,12.3879709 29.025548,12.0238464 C29.2648051,11.8386374 29.4846509,11.6300525 29.7284223,11.4506874 C29.9663251,11.2762673 30.2213823,11.1283698 30.4628966,10.9597937 C30.8037251,10.7219889 31.408188,10.2499757 31.9088223,9.86247527 L31.6618909,10.9463076 L31.3833594,12.284128 C31.2519937,12.9921478 31.1192737,13.6017192 30.9897137,14.4113343 C30.8655709,15.124299 30.9084566,15.6821737 30.8127537,16.3987348 C30.7242737,17.0644982 30.6037423,17.6960969 30.6037423,18.3677043 C30.6037423,19.1179806 30.6014851,19.8741008 30.630828,20.6239276 C30.6439194,20.950291 30.6746166,21.2798012 30.7075709,21.6052656 C30.7278851,21.8044102 30.7044109,22.3038452 30.9712051,22.3258725 C31.4953137,22.3685784 32.1124166,22.0336738 32.5281823,21.7504658 C32.7466737,21.6016693 32.959748,21.4429829 33.0098566,21.1741601 C33.0410051,21.0096298 33.0662851,20.9224198 33.171468,20.7889074 C33.285228,20.6450558 33.3949251,20.4976078 33.5136509,20.357802 C33.7325937,20.0997681 33.9984851,19.8799448 34.2404509,19.6439382 C34.5099537,19.3814089 34.7785537,19.117531 35.0457994,18.8527541 C35.2724166,18.6279859 35.4945194,18.4054654 35.7545423,18.2175591 C35.8506966,18.1483305 35.9653594,18.111019 36.0759594,18.111019 C36.2479537,18.111019 36.4091137,18.2018254 36.467348,18.4059149 C36.5106851,18.5565096 36.5237766,18.7192418 36.5237766,18.8833226 C36.5237766,19.0568436 36.5088794,19.2321628 36.4998509,19.3957941 C36.479988,19.7567718 36.4131766,20.1087588 36.3707423,20.4670394 C36.290388,21.1467384 36.2235766,21.8412722 36.1788851,22.5236685 C36.1603766,22.801482 36.1459309,23.0783964 36.1459309,23.3544118 C36.1459309,23.7652881 36.1779823,24.1743662 36.2772966,24.5802976 C36.3495251,24.875643 36.5458966,25.1008608 36.7147309,25.3485553 C36.8036623,25.4793704 36.8953023,25.6088369 36.9964223,25.7306613 C37.1061194,25.8623754 37.1819594,26.0224104 37.3011366,26.1437852 C37.7358623,26.5888263 38.4251937,26.7097516 39.0138566,26.6553577 C39.6237366,26.5991656 40.1442337,26.1649135 40.5071823,25.7009919 C40.701748,25.4528478 40.922948,25.2271805 41.1143537,24.9767887 C41.305308,24.7268465 41.4849766,24.4724088 41.6777366,24.2238152 C41.880428,23.9626345 42.0691251,23.6915641 42.2979994,23.4515116 C42.5322909,23.2056152 42.7819309,22.9655628 42.9805594,22.6895474 C43.3069423,22.2355156 43.6166223,21.7284386 44.000788,21.3211586 C44.1921937,21.1179681 44.3966909,20.93186 44.5497251,20.6958534 C44.708628,20.4513056 44.876108,20.2247392 45.0742851,20.0098608 C45.4593537,19.591792 45.735628,19.1224759 46.0751023,18.6720404 C46.1929251,18.5156018 46.3215823,18.3677043 46.4479823,18.2180087 C46.4962851,18.2036235 46.5436851,18.1802476 46.5811537,18.1321472 C46.7716566,17.8974892 46.9228851,17.6345104 47.1287366,17.4214301 C47.3828909,17.1580018 47.6122166,16.876592 47.8329651,16.5852924 C48.0284337,16.3272585 48.2175823,16.0638302 48.4347194,15.8233282 C48.5313251,15.715889 48.642828,15.6192386 48.7173137,15.4942675 C48.794508,15.3657001 48.8595137,15.2393804 48.9502509,15.1189046 L49.5235651,14.3259224 C49.691948,14.0858699 49.8210566,13.8188453 50.0056909,13.5909303 C49.9298509,13.8655971 49.8016451,14.136218 49.7050394,14.4050408 C49.5872166,14.7305051 49.5285309,15.0977764 49.4553994,15.4362773 L49.2296851,16.3528821 C49.1511366,16.7017223 49.1398509,17.0429205 49.110508,17.3967056 C49.0933537,17.6003456 49.0743937,17.7846556 49.0743937,17.9730113 C49.0743937,18.1006797 49.0829709,18.2301461 49.1068966,18.3690529 C49.167388,18.7147464 49.2247194,19.0568436 49.3109423,19.3975922 C49.4621709,19.9968243 49.818348,20.6347164 50.2232794,21.098638 C50.4178451,21.3211586 50.576748,21.5261472 50.8345137,21.6825858 C50.9505309,21.7765389 51.0701594,21.8610518 51.2001709,21.925785 C51.3486909,22.0228849 51.5251994,22.1199848 51.6872623,22.184718 C51.9626337,22.2818179 52.2402623,22.4108348 52.5341423,22.4112844 C52.8979937,22.4108348 53.1724623,22.2490017 53.4735651,22.0552515 C53.7584166,21.8934184 54.0355937,21.733833 54.286588,21.5144592 C54.5389366,21.2928378 54.7429823,21.0545835 54.9736623,20.8109347 C55.452628,20.3038576 55.9315937,19.7927347 56.3884394,19.2658781 L56.909388,18.6428206 C56.9865823,18.5488675 57.0226966,18.4306394 57.086348,18.3560163 C57.1152394,18.3223011 57.1648966,18.2737512 57.2240337,18.2162105 C57.2768509,18.1824953 57.323348,18.1312481 57.3653309,18.0759552 C57.4772851,17.9613234 57.5933023,17.8300587 57.6628223,17.7055371 C57.7865137,17.5787679 57.9133651,17.4591912 58.0031994,17.2982572 C58.1327594,17.0649478 58.3449309,16.901766 58.4970623,16.685539 C58.7259366,16.3600747 59.1110051,15.8192823 59.4324223,15.3926723 L60.0811251,17.0159483 C60.1587709,17.2096985 60.1754737,17.4259255 60.2269366,17.6282169 C60.416988,18.3744473 60.8431366,19.0541464 60.8652566,19.8435324 L60.878348,19.98154 C60.8873766,20.2926192 60.9492223,20.3825265 61.0002337,20.6900094 C61.0580166,21.0375011 61.0828451,21.3867909 61.1604909,21.7315853 C61.2327194,22.0570497 61.3198451,22.3807159 61.3433194,22.7043821 C61.3541537,22.8662152 61.3690509,23.0280483 61.346028,23.1898814 L61.3279709,23.3840812 C61.317588,23.5135477 61.2327194,23.5459143 61.1171537,23.5782809 C60.5199137,23.8048473 59.9696223,24.1285135 59.468988,24.5492796 C58.9421709,24.9853299 58.4690737,25.5436541 58.4690737,26.2723527 C58.4690737,26.4431765 58.514668,26.5955693 58.6902737,26.6850271 C58.8293137,26.7717876 59.0162051,26.800558 59.194068,26.800558 C59.7317194,26.7502099 60.0147651,26.5883768 60.2738851,26.4589103 C60.5695709,26.3294438 60.7632337,26.0705108 61.0422166,25.9086777 C61.6385537,25.5850115 61.9500394,25.0671455 62.3585823,24.5492796 C62.5635309,24.2903466 62.7468109,24.0260192 62.9215137,23.740114 L63.273628,23.1647074 L63.501148,23.0280483 C63.8722223,22.7691154 64.2771537,22.6072822 64.6559023,22.3807159 C65.0815994,22.1217829 65.4928509,21.8304833 65.8734051,21.5167069 C66.0137994,21.3998274 66.1717994,21.3099201 66.313548,21.1925911 C66.4512337,21.0784089 66.5907251,20.9475938 66.7347309,20.8437509 C67.0994851,20.579873 67.4231594,20.2625003 67.7779823,19.9860354 C68.1391251,19.7019284 68.4163023,19.327015 68.772028,19.0577427 C68.9295766,18.9386155 69.0365651,18.771388 69.1886966,18.6455178 C69.3394737,18.5205467 69.5119194,18.3870344 69.609428,18.2121647 C69.6920394,18.1519268 69.6997137,18.1384407 69.7100966,18.1263032 C69.7954166,18.0395427 69.8726109,17.9244614 69.9407766,17.8260129 C69.9773423,17.7833069 70.0116509,17.7383533 70.0414451,17.6920511 C70.427868,17.2515054 70.8558223,16.8078129 71.1533137,16.3016349 C71.4250737,15.839961 71.8114966,15.4641486 72.090028,15.0123645 C72.2426109,14.7646699 72.450268,14.5551859 72.5929194,14.3020969 C72.7008109,14.1092458 72.7938051,13.9123489 72.8976337,13.7199473 C72.7933537,14.2746752 72.7274451,14.8298527 72.6773366,15.401663 C72.6159423,16.1051875 72.5030851,16.7992717 72.4335651,17.5009981 L72.2281651,19.6533784 C72.1934051,20.0013196 72.1748966,20.3420682 72.1726394,20.691358 C72.1712851,20.8491453 72.2092051,21.0037858 72.2335823,21.1588759 C72.2403537,21.3337456 72.2073994,21.5054685 72.2073994,21.6794391 C72.2073994,21.7082094 72.2083023,21.7365302 72.210108,21.7653005 L72.3085194,22.671566 C72.3581766,22.9952322 72.5391994,23.2865318 72.652508,23.610198 C72.8561023,24.1927972 73.2032509,24.7106631 73.6095366,25.1637959 C74.140868,25.7594316 74.9575023,26.103327 75.7633023,26.103327 C76.1831309,26.103327 76.5997994,26.0102729 76.9713251,25.8111283 C77.1636337,25.6816618 77.354588,25.6492952 77.522068,25.4874621 L78.0917709,25.0019627 C78.5034737,24.7106631 78.8443023,24.3222637 79.1946109,23.9662308 C79.8555023,23.2541652 80.4644794,22.5097328 81.0725537,21.7491172 C81.3695937,21.3778001 81.693268,21.0496386 81.9605137,20.6540465 C82.2476223,20.2287851 82.603348,19.8336426 82.9563651,19.4618759 C83.2908737,19.1098889 83.5382566,18.6891228 83.8664451,18.3371358 C84.0072909,18.1860916 84.1070566,17.9891946 84.2379709,17.8273615 C84.2912394,17.7612797 84.3562451,17.6790145 84.3905537,17.5958503 C84.4672966,17.4960532 84.5462966,17.3971552 84.6280051,17.3067983 C84.5304966,17.604841 84.5169537,17.8974892 84.5169537,18.2027244 C84.5169537,18.3196039 84.5187594,18.4382815 84.5187594,18.5601059 C84.5187594,18.8060023 84.527788,19.0505501 84.5490051,19.2964465 C84.5733823,19.5886452 84.6108509,19.9073665 84.7706566,20.1609051 C84.9453594,20.43737 85.150308,20.6985506 85.3426166,20.962878 C85.9633309,21.8169972 87.1469766,22.2161856 88.1572737,22.2809188 C88.458828,22.3150836 88.8141023,22.1532505 89.097148,22.0885172 C89.2411537,22.023784 89.372068,21.9914174 89.4980166,21.8943175 C89.6104223,21.8264375 89.7147023,21.7342825 89.8379423,21.6731456 C90.102028,21.5423305 90.3164566,21.4308454 90.497028,21.1885453 C90.6906909,20.9291628 90.9136966,20.6891104 91.1010394,20.425682 C91.211188,20.271491 91.201708,20.1824828 91.486108,20.1824828 C92.0932794,20.1451713 92.4237251,20.1213459 92.7401766,20.0507686 C93.0516623,19.98154 93.3798509,19.8893851 93.6705709,19.7563223 C93.9360109,19.6349475 94.1865537,19.4187204 94.4181366,19.2384563 C94.7269137,19.000202 95.0117651,18.8037546 95.2808166,18.5681975 C95.4054109,18.4589602 95.5169137,18.3371358 95.6234509,18.2112656 C95.6600166,18.1946328 95.695228,18.1694587 95.7245709,18.1321472 C95.9150737,17.8974892 96.0658509,17.6345104 96.2717023,17.4214301 C96.5258566,17.1580018 96.7556337,16.876592 96.9759309,16.5852924 C97.1713994,16.3272585 97.360548,16.0638302 97.5776851,15.8233282 C97.6747423,15.715889 97.7857937,15.6192386 97.8607309,15.4942675 C97.9374737,15.3657001 98.0024794,15.2393804 98.093668,15.1189046 L98.6665309,14.3259224 C98.8349137,14.0858699 98.9644737,13.8188453 99.149108,13.5909303 C99.0728166,13.8655971 98.9446109,14.136218 98.8480051,14.4050408 C98.7301823,14.7305051 98.6714966,15.0977764 98.5983651,15.4362773 L98.3726509,16.3528821 C98.2941023,16.7017223 98.283268,17.0429205 98.2534737,17.3967056 C98.2367709,17.6003456 98.2173594,17.7846556 98.2173594,17.9730113 C98.2173594,18.1006797 98.226388,18.2301461 98.2503137,18.3690529 C98.3103537,18.7147464 98.3676851,19.0568436 98.453908,19.3975922 C98.605588,19.9968243 98.9613137,20.6347164 99.3662451,21.098638 C99.5608109,21.3211586 99.7201651,21.5261472 99.9779309,21.6825858 C100.093948,21.7765389 100.213125,21.8610518 100.343137,21.925785 C100.492108,22.0228849 100.668617,22.1199848 100.830228,22.184718 C101.105599,22.2818179 101.383679,22.4108348 101.677108,22.4112844 C102.040959,22.4108348 102.315428,22.2490017 102.616531,22.0552515 C102.901382,21.8934184 103.178559,21.733833 103.429554,21.5144592 C103.681902,21.2928378 103.886399,21.0545835 104.116628,20.8109347 C104.595594,20.3038576 105.074559,19.7927347 105.531405,19.2658781 L106.052354,18.6428206 C106.129999,18.5488675 106.165662,18.4306394 106.229314,18.3560163 C106.347137,18.2189077 106.804434,17.8435448 106.863119,17.561236 C106.989068,17.3949075 107.119079,17.2317258 107.234645,17.0609019 C107.398062,16.8181523 107.502794,16.5969803 107.724445,16.395588 C107.962348,16.1798105 108.149239,15.932116 108.317622,15.6592474 C108.476074,15.4021125 108.653485,15.1656564 108.803811,14.9044757 C108.886422,14.7615231 108.958199,14.6100294 109.051194,14.4733703 C109.108525,14.3879584 109.198359,14.2724275 109.226348,14.1703828 C109.407822,14.7741102 109.937348,15.0770977 110.477257,15.3171502 C110.632548,15.3868283 110.793708,15.4434699 110.956674,15.4906712 C111.079011,15.5266341 111.183742,15.6682381 111.298405,15.7460079 C111.573777,15.932116 111.791817,16.0256196 111.821159,16.3951385 C111.835154,16.5780998 111.862239,16.7502723 111.862239,16.9242429 C111.862239,17.0262876 111.852759,17.1287819 111.826125,17.2348725 C111.738097,17.5859605 111.630657,17.938397 111.514188,18.2809438 L110.860971,20.2265374 C110.758948,20.5398643 110.753982,20.8738698 110.678142,21.1930407 C110.595531,21.54278 110.542714,21.8956661 110.492154,22.2516989 L110.367559,23.2226976 C110.321965,23.6110971 110.379297,23.9671299 110.438434,24.3231628 C110.540005,24.9704952 110.767525,25.4883611 111.202702,25.9738605 C111.387788,26.2004268 111.556622,26.3622599 111.840571,26.4269932 C111.996765,26.4616075 112.176885,26.4966713 112.352491,26.4966713 C112.506879,26.4948732 112.655851,26.4688001 112.782251,26.393278 C112.969594,26.2961781 113.115405,26.1990782 113.258508,26.0696117 C113.419217,25.875412 113.594371,25.6812123 113.763205,25.5193792 C114.089137,25.1957129 114.416422,24.8396801 114.695857,24.4512806 C114.982514,24.0628812 115.240279,23.6744817 115.593297,23.3508155 C115.778382,23.1566158 115.927354,22.9300494 116.091674,22.7358497 C116.269085,22.5416499 116.433857,22.3150836 116.604497,22.0885172 C116.761142,21.8943175 116.936297,21.7180992 117.100617,21.5279453 C117.252297,21.3521766 117.386822,21.1435917 117.557914,20.987153 C117.710045,20.8482462 117.867142,20.6189827 117.982708,20.4463607 C118.118588,20.2440693 118.267108,20.0786399 118.440005,19.9064675 C118.833651,19.5135726 119.152359,19.0505501 119.498605,18.6176465 L119.849365,18.1762018 C119.950034,18.0939366 120.034451,17.9658187 120.109388,17.8561318 C120.161302,17.795894 120.213217,17.728913 120.249331,17.660134 C120.525154,17.2973581 120.763959,16.9058119 121.041137,16.543036 C121.022177,16.8042166 121.005022,17.0752871 121.005022,17.3472566 C121.005022,17.7612797 121.044297,18.1766513 121.174308,18.5596563 C121.397314,19.2195758 121.735434,19.7689093 122.123211,20.3461141 C122.498348,20.9044383 122.863554,21.2762049 123.459439,21.6861821 C123.561462,21.7477686 123.633691,21.8345291 123.749708,21.8767856 C123.894165,21.9293813 124.061194,21.9630966 124.211971,21.9914174 C124.400217,22.0264812 124.595234,22.0503066 124.783028,22.0503066 C125.190668,22.0813246 125.581154,22.0467103 125.981571,22.0026558 C126.411782,21.9554544 126.787371,21.7518144 127.138582,21.5131106 C127.502885,21.265416 127.897434,21.0568311 128.250451,20.7943019 C128.605725,20.5295249 128.955582,20.2517114 129.306794,19.9810905 C129.475177,19.8507249 129.601577,19.7019284 129.746485,19.549086 C129.900874,19.3859043 130.086862,19.2744192 130.230868,19.0959533 C130.505788,18.7552047 130.787931,18.4315385 131.051565,18.0809001 C131.305719,17.7432982 131.521502,17.38277 131.772497,17.0456177 C131.851497,16.9404262 132.000017,16.7008233 132.000017,16.5470818 C131.970674,16.3960376 131.854205,16.3196164 131.744057,16.3196164 Z"/>
  </g>
</svg>
